<svg width="205" height="116" viewBox="0 0 205 116" fill="none" xmlns="http://www.w3.org/2000/svg">
<path d="M97.1694 115.948H18.0025C17.3823 115.947 16.7879 115.7 16.3498 115.261C15.9116 114.822 15.6655 114.227 15.6655 113.607V2.3206C15.6709 1.70397 15.9194 1.11437 16.357 0.67987C16.7945 0.245368 17.3859 0.00105632 18.0025 0H97.1694C97.7903 0 98.3858 0.246651 98.8248 0.685692C99.2639 1.12473 99.5105 1.7202 99.5105 2.3411V113.607C99.5105 114.228 99.2639 114.823 98.8248 115.262C98.3858 115.701 97.7903 115.948 97.1694 115.948ZM18.0025 0.0820003C17.4095 0.0830864 16.8412 0.319417 16.4222 0.739118C16.0033 1.15882 15.768 1.7276 15.768 2.3206V113.607C15.768 114.2 16.0033 114.769 16.4222 115.188C16.8412 115.608 17.4095 115.844 18.0025 115.846H97.1694C97.7628 115.844 98.3316 115.608 98.7512 115.189C99.1708 114.769 99.407 114.2 99.408 113.607V2.3206C99.407 1.72722 99.1708 1.15845 98.7512 0.738868C98.3316 0.319284 97.7628 0.0830841 97.1694 0.0820003H18.0025Z" fill="#E6E6E6"/>
<path d="M185.857 115.948H106.686C106.065 115.947 105.47 115.7 105.032 115.261C104.593 114.822 104.346 114.227 104.345 113.607V2.3206C104.351 1.7036 104.601 1.114 105.039 0.679613C105.477 0.245225 106.069 0.0010448 106.686 0H185.857C186.473 0.00213384 187.063 0.246922 187.5 0.681309C187.936 1.11569 188.184 1.70468 188.19 2.3206V113.607C188.19 114.226 187.944 114.821 187.507 115.259C187.07 115.698 186.476 115.946 185.857 115.948ZM106.686 0.0820003C106.092 0.0830841 105.524 0.319284 105.104 0.738868C104.685 1.15845 104.448 1.72722 104.447 2.3206V113.607C104.448 114.2 104.685 114.769 105.104 115.189C105.524 115.608 106.092 115.844 106.686 115.846H185.857C186.45 115.844 187.019 115.608 187.439 115.189C187.858 114.769 188.094 114.2 188.095 113.607V2.3206C188.094 1.72722 187.858 1.15845 187.439 0.738868C187.019 0.319284 186.45 0.0830841 185.857 0.0820003H106.686Z" fill="#E6E6E6"/>
<path d="M106.993 7.65869H24.0708V66.752H106.993V7.65869Z" fill="#FAFAFA"/>
<path d="M108.527 7.65869H24.7886V66.752H108.527V7.65869Z" fill="#F5F5F5"/>
<path d="M106.378 64.3374V10.0698L26.9368 10.0698V64.3374H106.378Z" fill="#FAFAFA"/>
<path d="M41.4014 64.3374L54.0048 10.0698H70.5278L57.9244 64.3374H41.4014Z" fill="white"/>
<path d="M60.5977 64.3374L73.2052 10.0698H80.6672L68.0597 64.3374H60.5977Z" fill="white"/>
<path d="M106.378 64.3374V10.0698H106.104V64.3374H106.378Z" fill="#FAFAFA"/>
<path d="M22.4595 7.56062V30.9798H28.6546C28.6546 30.9798 39.7697 23.7187 42.3158 8.78241C42.3775 8.42469 42.36 8.05779 42.2647 7.70753C42.1694 7.35727 41.9984 7.03216 41.7639 6.75506C41.5294 6.47796 41.2371 6.25561 40.9074 6.10366C40.5777 5.9517 40.2188 5.87383 39.8558 5.87552H24.1446C23.6977 5.87552 23.269 6.05305 22.953 6.36907C22.637 6.68509 22.4595 7.1137 22.4595 7.56062Z" fill="#E0E0E0"/>
<path d="M22.4595 73.9803V32.8696H28.6546C28.6546 32.8696 41.2293 57.0801 42.6848 73.9803H22.4595Z" fill="#E0E0E0"/>
<path d="M28.4742 30.9795H22.685C22.3431 30.9795 22.0659 31.2567 22.0659 31.5986V32.2505C22.0659 32.5924 22.3431 32.8696 22.685 32.8696H28.4742C28.8161 32.8696 29.0933 32.5924 29.0933 32.2505V31.5986C29.0933 31.2567 28.8161 30.9795 28.4742 30.9795Z" fill="#F5F5F5"/>
<path d="M110.29 7.5606V30.9798H104.082C104.082 30.9798 92.9508 23.7187 90.4211 8.7824C90.3602 8.42478 90.3781 8.05815 90.4738 7.7082C90.5694 7.35825 90.7404 7.03344 90.9747 6.75651C91.2091 6.47958 91.5011 6.25724 91.8304 6.10506C92.1598 5.95287 92.5184 5.87452 92.8811 5.8755H108.609C109.055 5.87766 109.482 6.05602 109.796 6.37169C110.111 6.68735 110.289 7.11472 110.29 7.5606Z" fill="#E0E0E0"/>
<path d="M110.29 73.9803V32.8696H104.082C104.082 32.8696 91.5118 57.0801 90.0522 73.9803H110.29Z" fill="#E0E0E0"/>
<path d="M104.263 32.8657H110.052C110.394 32.8657 110.671 32.5885 110.671 32.2466V31.5947C110.671 31.2528 110.394 30.9756 110.052 30.9756H104.263C103.921 30.9756 103.644 31.2528 103.644 31.5947V32.2466C103.644 32.5885 103.921 32.8657 104.263 32.8657Z" fill="#F5F5F5"/>
<path d="M108.416 81.4507H94.7915V134.234H108.416V81.4507Z" fill="#FAFAFA"/>
<path d="M43.2347 81.4507H29.6104V134.234H43.2347V81.4507Z" fill="#E0E0E0"/>
<path d="M108.416 81.4507H40.0605V132.135H108.416V81.4507Z" fill="#FAFAFA"/>
<path d="M60.5977 72.4878C60.5977 77.4078 65.3373 81.4504 71.1347 81.4504H76.3663C82.1596 81.4504 86.8992 77.416 86.8992 72.4878H60.5977Z" fill="#EBEBEB"/>
<path d="M57.564 61.2251H67.404C67.404 61.2251 65.6943 65.7351 65.6943 68.3919C65.6943 71.0487 73.1809 81.4504 62.484 81.4504C51.7871 81.4504 59.2737 71.0446 59.2737 68.3919C59.2737 65.7392 57.564 61.2251 57.564 61.2251Z" fill="#E0E0E0"/>
<path d="M105.595 84.5381H42.8813V97.3178H105.595V84.5381Z" fill="#EBEBEB"/>
<path d="M72.312 90.9255C72.312 91.3067 72.425 91.6792 72.6368 91.9961C72.8485 92.313 73.1495 92.56 73.5016 92.7059C73.8537 92.8517 74.2412 92.8899 74.615 92.8155C74.9888 92.7412 75.3321 92.5576 75.6016 92.2881C75.8711 92.0186 76.0546 91.6753 76.129 91.3015C76.2033 90.9277 76.1652 90.5402 76.0193 90.1881C75.8735 89.836 75.6265 89.535 75.3096 89.3233C74.9927 89.1115 74.6201 88.9985 74.239 88.9985C73.7279 88.9985 73.2378 89.2016 72.8764 89.5629C72.515 89.9243 72.312 90.4145 72.312 90.9255Z" fill="#FAFAFA"/>
<path d="M105.595 100.405H42.8813V113.184H105.595V100.405Z" fill="#EBEBEB"/>
<path d="M72.312 106.793C72.312 107.174 72.425 107.546 72.6368 107.863C72.8485 108.18 73.1495 108.427 73.5016 108.573C73.8537 108.719 74.2412 108.757 74.615 108.683C74.9888 108.608 75.3321 108.425 75.6016 108.155C75.8711 107.886 76.0546 107.542 76.129 107.169C76.2033 106.795 76.1652 106.407 76.0193 106.055C75.8735 105.703 75.6265 105.402 75.3096 105.19C74.9927 104.979 74.6201 104.866 74.239 104.866C73.7279 104.866 73.2378 105.069 72.8764 105.43C72.515 105.792 72.312 106.282 72.312 106.793Z" fill="#FAFAFA"/>
<path d="M151.65 6.94531H121.216V28.6097H151.65V6.94531Z" fill="#E0E0E0"/>
<path d="M154.135 6.94531H122.947V28.6097H154.135V6.94531Z" fill="#F5F5F5"/>
<path d="M152.147 26.6215V8.93408L124.935 8.93408V26.6215H152.147Z" fill="white"/>
<path d="M147.358 21.4676V14.0835L129.724 14.0835V21.4676H147.358Z" fill="#F5F5F5"/>
<path d="M176.341 17.7778H157.817V37.2036H176.341V17.7778Z" fill="#E0E0E0"/>
<path d="M178.834 17.7778H159.552V37.2036H178.834V17.7778Z" fill="#F5F5F5"/>
<path d="M176.845 35.2149V19.7661H161.54V35.2149H176.845Z" fill="white"/>
<path d="M166.329 27.4903C166.329 26.8082 166.599 26.1539 167.081 25.6711C167.563 25.1884 168.217 24.9166 168.899 24.9155H169.482C170.164 24.9166 170.818 25.1884 171.3 25.6711C171.782 26.1539 172.052 26.8082 172.052 27.4903C172.052 28.1721 171.781 28.826 171.299 29.3081C170.817 29.7902 170.163 30.061 169.482 30.061H168.92C168.581 30.0637 168.244 29.9992 167.93 29.8713C167.615 29.7433 167.33 29.5544 167.089 29.3154C166.848 29.0764 166.657 28.7921 166.526 28.4789C166.396 28.1656 166.329 27.8297 166.329 27.4903Z" fill="#F5F5F5"/>
<path d="M205 43.8086H156.087H147.194V55.1123H138.301V66.416H129.408V77.7197H120.515V89.0234H111.622V100.323H102.729V111.627H93.8363V122.93H84.9434V134.234H93.8363H205V43.8086Z" fill="#FAFAFA"/>
<path d="M143.611 111.626H92.9224V115.017H143.611V111.626Z" fill="#EBEBEB"/>
<path d="M152.503 100.323H101.815V103.713H152.503V100.323Z" fill="#EBEBEB"/>
<path d="M161.397 89.019H110.708V92.4098H161.397V89.019Z" fill="#EBEBEB"/>
<path d="M170.289 77.7197H119.601V81.1104H170.289V77.7197Z" fill="#EBEBEB"/>
<path d="M179.182 66.416H128.494V69.8067H179.182V66.416Z" fill="#EBEBEB"/>
<path d="M188.075 55.1123H137.387V58.503H188.075V55.1123Z" fill="#EBEBEB"/>
<path d="M196.968 43.8086H146.28V47.1993H196.968V43.8086Z" fill="#EBEBEB"/>
<path d="M196.107 43.8086V55.1123H187.214V66.416H178.321V77.7197H169.428V89.0234H160.535V100.323H151.642V111.627H142.749V122.93H133.856V134.234H142.749H205V55.1123V43.8086H196.107Z" fill="white"/>
<path d="M149.711 43.8697C150.285 45.7926 153.246 49.3924 153.479 52.0123C153.713 54.6322 148.666 58.8224 148.666 58.8224C148.666 58.8224 144.894 46.2108 147.255 44.7389C149.617 43.267 149.711 43.8697 149.711 43.8697Z" fill="#263238"/>
<path d="M139.347 57.4941C138.453 58.2403 137.575 58.8676 136.661 59.5113C135.747 60.155 134.804 60.7413 133.844 61.2907C132.881 61.8604 131.889 62.3791 130.872 62.8446C130.355 63.0783 129.843 63.3079 129.31 63.5088C129.047 63.6154 128.781 63.7179 128.51 63.8081L127.69 64.0951C126.989 64.2911 126.256 64.3441 125.534 64.2509C124.93 64.1803 124.333 64.0652 123.746 63.9065C122.653 63.6039 121.583 63.223 120.544 62.7667C118.528 61.8864 116.583 60.8514 114.726 59.6712L115.493 58.2444C116.46 58.6544 117.453 59.0644 118.437 59.4211C119.421 59.7778 120.413 60.155 121.405 60.4625C122.372 60.7795 123.358 61.0369 124.357 61.2333C124.816 61.3229 125.28 61.3791 125.747 61.4014C126.095 61.4283 126.445 61.3922 126.78 61.2948C127.716 60.9369 128.63 60.5262 129.519 60.0648C129.974 59.827 130.425 59.5851 130.868 59.3227C131.311 59.0603 131.762 58.8061 132.2 58.5355C133.082 57.9902 133.943 57.4121 134.796 56.8176C135.648 56.2231 136.497 55.5876 137.256 54.9849L139.347 57.4941Z" fill="#E58A7B"/>
<path d="M141.511 53.1277C140.494 52.3323 136.288 54.9358 135.013 56.0223L135.943 61.6516C135.943 61.6516 141.991 59.1178 142.352 57.3876C142.733 55.5795 142.27 53.7345 141.511 53.1277Z" fill="#006F98"/>
<path opacity="0.2" d="M141.511 53.1277C140.494 52.3323 136.288 54.9358 135.013 56.0223L135.943 61.6516C135.943 61.6516 141.991 59.1178 142.352 57.3876C142.733 55.5795 142.27 53.7345 141.511 53.1277Z" fill="black"/>
<path d="M155.66 70.1632L142.893 72.6519C136.296 54.7881 137.731 54.2019 137.731 54.2019C138.659 53.692 139.617 53.2402 140.601 52.8488L140.773 52.7833C141.593 52.484 141.757 52.4388 142.848 52.119C144.726 51.6721 146.476 51.299 148.645 50.9915L149.055 50.9341C149.465 50.8849 149.838 50.844 150.216 50.8071C150.47 50.7784 150.724 50.762 150.966 50.7456L151.786 50.7005C153.188 50.6308 154.193 50.6512 154.193 50.6512C153.803 61.8073 154.434 65.0095 155.66 70.1632Z" fill="#006F98"/>
<path opacity="0.2" d="M155.66 70.1632L142.893 72.6519C136.296 54.7881 137.731 54.2019 137.731 54.2019C138.659 53.692 139.617 53.2402 140.601 52.8488L140.773 52.7833C141.593 52.484 141.757 52.4388 142.848 52.119C144.726 51.6721 146.476 51.299 148.645 50.9915L149.055 50.9341C149.465 50.8849 149.838 50.844 150.216 50.8071C150.47 50.7784 150.724 50.762 150.966 50.7456L151.786 50.7005C153.188 50.6308 154.193 50.6512 154.193 50.6512C153.803 61.8073 154.434 65.0095 155.66 70.1632Z" fill="black"/>
<path d="M145.661 45.1532C144.841 46.5103 147.813 47.1376 149.572 45.7477C150.978 44.6325 150.646 42.0577 149.441 41.4591C148.235 40.8605 145.661 45.1532 145.661 45.1532Z" fill="#006F98"/>
<path opacity="0.4" d="M145.661 45.1532C144.841 46.5103 147.813 47.1376 149.572 45.7477C150.978 44.6325 150.646 42.0577 149.441 41.4591C148.235 40.8605 145.661 45.1532 145.661 45.1532Z" fill="black"/>
<path d="M143.09 72.6519C143.09 72.6519 143.045 97.9981 145.115 107.543C147.272 117.473 153.615 140.064 153.615 140.064L158.215 139.47C158.215 139.47 154.619 116.649 153.086 106.78C151.417 96.026 152.442 70.8315 152.442 70.8315L143.09 72.6519Z" fill="#006F98"/>
<path opacity="0.7" d="M143.09 72.6519C143.09 72.6519 143.045 97.9981 145.115 107.543C147.272 117.473 153.615 140.064 153.615 140.064L158.215 139.47C158.215 139.47 154.619 116.649 153.086 106.78C151.417 96.026 152.442 70.8315 152.442 70.8315L143.09 72.6519Z" fill="black"/>
<path opacity="0.5" d="M152.155 82.0657L149.9 79.8188C149.986 89.5563 150.531 94.3657 152.405 99.6055C152.11 94.0664 152.085 87.5146 152.155 82.0657Z" fill="black"/>
<path d="M146.263 71.9958C146.263 71.9958 153.139 92.9427 156.55 105.009C160.15 117.739 173.95 131.819 173.95 131.819L177.911 129.531C177.911 129.531 168.481 116.165 165.012 104.287C157.96 80.1753 160.859 75.0667 155.656 70.1631L146.263 71.9958Z" fill="#006F98"/>
<path opacity="0.7" d="M146.263 71.9958C146.263 71.9958 153.139 92.9427 156.55 105.009C160.15 117.739 173.95 131.819 173.95 131.819L177.911 129.531C177.911 129.531 168.481 116.165 165.012 104.287C157.96 80.1753 160.859 75.0667 155.656 70.1631L146.263 71.9958Z" fill="black"/>
<path d="M140.86 37.7568C142.688 38.3677 144.349 42.9064 144.418 44.694C144.488 46.4816 139.121 48.9457 139.121 48.9457C139.121 48.9457 136.755 43.2057 137.416 39.5157C137.703 37.9126 140.86 37.7568 140.86 37.7568Z" fill="#263238"/>
<path d="M115.763 58.3963L113.595 56.0347L112.885 58.9949C112.885 58.9949 114.427 60.3561 115.673 59.8887L115.763 58.3963Z" fill="#E58A7B"/>
<path d="M111.397 55.3579L109.88 56.5633L112.885 58.9946L113.594 56.0344L111.397 55.3579Z" fill="#E58A7B"/>
<g style="mix-blend-mode:multiply" opacity="0.27">
<path d="M154.607 57.1167L152.639 58.2893L154.91 66.8296C154.414 64.2425 154.635 61.4012 154.607 57.1167Z" fill="#006F98"/>
</g>
<path d="M143.422 43.7836C144.82 44.9521 146.849 46.6536 149.24 44.6651C151.29 42.9513 152.725 38.4536 149.047 38.2896C147.124 38.2035 143.422 43.7836 143.422 43.7836Z" fill="#263238"/>
<path d="M146.8 44.5835C146.8 46.5187 147.1 50.0078 148.645 51C148.645 51 148.506 52.9926 145.037 53.665C141.228 54.4071 142.848 52.1275 142.848 52.1275C144.832 51.2255 144.488 49.6921 143.832 48.3145L146.8 44.5835Z" fill="#E58A7B"/>
<path d="M145.591 46.1045L143.836 48.3144C143.99 48.6338 144.116 48.9657 144.213 49.3066C144.984 49.036 145.906 47.9536 145.829 47.1049C145.812 46.7596 145.731 46.4204 145.591 46.1045Z" fill="#CF6F64"/>
<path d="M146.985 40.139C147.395 43.2919 147.645 44.6162 146.382 46.5227C144.484 49.3927 140.523 49.2082 139.174 46.2439C137.944 43.5748 137.485 38.8639 140.29 37.0394C140.906 36.6312 141.617 36.3876 142.355 36.3317C143.092 36.2759 143.831 36.4096 144.502 36.7203C145.174 37.031 145.754 37.5083 146.189 38.1067C146.623 38.7051 146.897 39.4047 146.985 40.139Z" fill="#E58A7B"/>
<path d="M141.507 34.6161C139.375 36.129 143.652 36.5759 143.656 38.7694C143.656 39.6755 145.144 42.5496 147.26 42.3856L149.31 38.7448C151.466 35.2598 146.37 31.1598 141.507 34.6161Z" fill="#263238"/>
<path d="M141.507 34.6162C137.756 34.4194 136.12 37.4042 136.55 40.0856C139.167 39.433 141.874 39.2183 144.562 39.4501C149.703 39.9749 141.507 34.6162 141.507 34.6162Z" fill="#263238"/>
<path d="M148.01 42.8572C148.062 43.4692 147.869 44.0768 147.473 44.5464C146.944 45.1655 146.243 44.8006 145.997 44.0667C145.788 43.4025 145.812 42.2832 146.526 41.9306C146.683 41.8577 146.856 41.8252 147.03 41.836C147.203 41.8469 147.371 41.9007 147.518 41.9926C147.665 42.0846 147.788 42.2118 147.873 42.3627C147.959 42.5137 148.006 42.6836 148.01 42.8572Z" fill="#E58A7B"/>
<path d="M142.43 41.9304C142.479 42.1846 142.385 42.4142 142.221 42.447C142.057 42.4798 141.881 42.2994 141.831 42.037C141.782 41.7746 141.877 41.5491 142.041 41.5163C142.205 41.4835 142.381 41.6762 142.43 41.9304Z" fill="#263238"/>
<path d="M139.564 42.4881C139.613 42.7423 139.519 42.976 139.355 43.0088C139.191 43.0416 139.014 42.8612 138.965 42.5988C138.916 42.3364 139.01 42.1109 139.174 42.0822C139.338 42.0535 139.515 42.2298 139.564 42.4881Z" fill="#263238"/>
<path d="M139.252 42.0865L138.608 42.0332C138.608 42.0332 139.014 42.4473 139.252 42.0865Z" fill="#263238"/>
<path d="M140.409 42.7793C140.294 43.4004 140.095 44.0031 139.818 44.571C139.965 44.6395 140.126 44.675 140.288 44.675C140.45 44.675 140.61 44.6395 140.757 44.571L140.409 42.7793Z" fill="#DF5753"/>
<path d="M141.827 45.3911C141.81 45.3914 141.793 45.3853 141.779 45.374C141.766 45.3627 141.757 45.347 141.754 45.3296C141.752 45.3199 141.752 45.31 141.754 45.3003C141.756 45.2907 141.76 45.2816 141.766 45.2736C141.772 45.2656 141.779 45.2588 141.788 45.2536C141.796 45.2484 141.805 45.245 141.815 45.2435C142.132 45.1884 142.431 45.0594 142.689 44.8671C142.947 44.6748 143.156 44.4245 143.299 44.1365C143.303 44.1274 143.309 44.119 143.316 44.112C143.323 44.105 143.331 44.0995 143.34 44.0956C143.349 44.0918 143.359 44.0899 143.369 44.0898C143.379 44.0898 143.389 44.0918 143.398 44.0955C143.407 44.0993 143.415 44.1048 143.422 44.1118C143.429 44.1188 143.435 44.1271 143.439 44.1362C143.442 44.1454 143.444 44.1552 143.444 44.1651C143.444 44.175 143.442 44.1848 143.439 44.1939C143.289 44.5069 143.065 44.7791 142.788 44.9875C142.51 45.1959 142.186 45.3344 141.844 45.3911H141.827Z" fill="#263238"/>
<path d="M143.089 40.8401C143.052 40.8405 143.016 40.8274 142.987 40.8032C142.849 40.6721 142.682 40.5755 142.5 40.5214C142.317 40.4672 142.124 40.457 141.937 40.4916C141.896 40.5019 141.852 40.4954 141.816 40.4735C141.779 40.4516 141.753 40.4161 141.743 40.3747C141.732 40.3334 141.739 40.2897 141.761 40.2532C141.783 40.2167 141.818 40.1903 141.859 40.18C142.096 40.1335 142.34 40.1438 142.572 40.2101C142.803 40.2764 143.016 40.3967 143.192 40.5613C143.22 40.5897 143.236 40.628 143.236 40.6679C143.236 40.7078 143.22 40.7461 143.192 40.7745C143.18 40.7921 143.165 40.807 143.148 40.8184C143.13 40.8297 143.11 40.8371 143.089 40.8401Z" fill="#263238"/>
<path d="M137.977 41.4098C137.958 41.4141 137.939 41.4141 137.92 41.4098C137.901 41.4022 137.884 41.3909 137.87 41.3767C137.855 41.3624 137.844 41.3454 137.836 41.3267C137.829 41.3079 137.825 41.2879 137.825 41.2677C137.825 41.2475 137.83 41.2275 137.838 41.2089C137.925 40.9847 138.065 40.7847 138.245 40.6256C138.426 40.4665 138.642 40.353 138.875 40.2946C138.895 40.2905 138.915 40.2905 138.935 40.2945C138.955 40.2985 138.973 40.3065 138.99 40.3181C139.006 40.3296 139.02 40.3444 139.031 40.3615C139.041 40.3786 139.048 40.3977 139.051 40.4176C139.055 40.4371 139.056 40.4571 139.052 40.4766C139.048 40.4961 139.04 40.5146 139.029 40.5311C139.018 40.5475 139.004 40.5616 138.987 40.5724C138.971 40.5832 138.952 40.5905 138.932 40.5939C138.748 40.6442 138.578 40.7367 138.436 40.8641C138.293 40.9915 138.183 41.1502 138.112 41.3278C138.099 41.3523 138.08 41.3729 138.056 41.3873C138.032 41.4017 138.005 41.4095 137.977 41.4098Z" fill="#263238"/>
<path d="M142.118 41.5286L141.475 41.4712C141.475 41.4712 141.881 41.8894 142.118 41.5286Z" fill="#263238"/>
<path d="M144.935 56.3913C138.076 57.9206 140.195 53.7714 140.605 52.8571L140.778 52.7915C141.598 52.4922 141.762 52.4471 142.852 52.1273C144.755 51.6136 146.693 51.2368 148.65 50.9998L149.06 50.9424C149.47 50.8891 149.843 50.8481 150.22 50.8153C150.474 50.7866 150.728 50.7702 150.97 50.7538L151.79 50.7046C151.93 51.3442 152.27 54.7636 144.935 56.3913Z" fill="#E58A7B"/>
<path d="M155.701 69.3758L156.501 70.409C156.562 70.4869 156.476 70.5976 156.329 70.6263L142.938 73.2339C142.823 73.2585 142.717 73.2339 142.696 73.1478L142.356 72.0285C142.356 71.9506 142.422 71.8645 142.545 71.8399L155.476 69.3225C155.515 69.311 155.556 69.3099 155.596 69.3193C155.635 69.3286 155.672 69.3481 155.701 69.3758Z" fill="#26395A"/>
<path d="M154.246 71.1592L154.595 71.0936C154.664 71.0936 154.709 71.0362 154.697 70.9911L154.246 69.5397C154.246 69.4946 154.164 69.4741 154.094 69.4864L153.75 69.552C153.68 69.552 153.635 69.6135 153.648 69.6545L154.099 71.11C154.111 71.151 154.181 71.1756 154.246 71.1592Z" fill="#006F98"/>
<path d="M146.402 75.9976L143.733 75.0054L144.143 77.5433C144.143 77.5433 146.079 78.2403 147.067 77.3465L146.402 75.9976Z" fill="#E58A7B"/>
<path d="M141.192 75.6778L140.556 77.3424L144.144 77.5433L143.734 75.0054L141.192 75.6778Z" fill="#E58A7B"/>
<path d="M143.934 73.1685L144.283 73.1029C144.349 73.1029 144.398 73.0455 144.381 73.0004L143.93 71.549C143.93 71.5039 143.852 71.4834 143.783 71.4957L143.434 71.5613C143.365 71.5613 143.319 71.6228 143.336 71.6638L143.787 73.1193C143.799 73.1603 143.865 73.1849 143.934 73.1685Z" fill="#006F98"/>
<path d="M149.092 72.1597L149.436 72.0941C149.506 72.0941 149.551 72.0367 149.539 71.9916L149.088 70.5402C149.088 70.4951 149.006 70.4746 148.936 70.4869L148.592 70.5525C148.522 70.5525 148.477 70.614 148.489 70.655L148.94 72.1105C148.957 72.1342 148.98 72.1519 149.008 72.1608C149.035 72.1697 149.065 72.1693 149.092 72.1597Z" fill="#006F98"/>
<path d="M147.633 49.3721C147.924 49.2614 148.289 50.2864 148.198 50.4176C147.989 50.7169 144.16 51.7624 143.988 51.1761C143.977 50.8583 144.026 50.5413 144.131 50.2413C144.242 50.0445 145.091 50.4053 147.633 49.3721Z" fill="#006F98"/>
<path d="M146.985 49.3968C147.133 49.0565 147.555 48.5112 147.924 48.8228C148.293 49.1344 148.449 49.8068 148.207 49.9175C147.965 50.0282 146.731 49.9667 146.985 49.3968Z" fill="#006F98"/>
<path d="M147.768 49.5729C148.022 49.3023 148.588 48.9292 148.846 49.3474C149.105 49.7656 149.01 50.4503 148.748 50.4708C148.485 50.4913 147.337 50.0198 147.768 49.5729Z" fill="#006F98"/>
<path d="M147.907 49.5114C147.887 49.2934 147.93 49.0741 148.031 48.8799C148.132 48.6856 148.287 48.5248 148.477 48.4167C148.945 48.1133 149.4 47.9165 149.58 47.5967C149.658 47.8965 149.673 48.2091 149.625 48.5151C149.531 48.9538 148.076 49.29 148.174 49.6713L147.907 49.5114Z" fill="#006F98"/>
<path d="M147.846 49.4911C147.71 49.3191 147.627 49.1114 147.606 48.8931C147.586 48.6749 147.629 48.4554 147.731 48.2611C147.952 47.7527 148.231 47.3427 148.215 46.9819C148.443 47.1917 148.625 47.4456 148.752 47.7281C148.908 48.1381 147.87 49.2164 148.161 49.487L147.846 49.4911Z" fill="#006F98"/>
<path d="M176.361 129.585C176.353 129.584 176.345 129.582 176.338 129.578C176.33 129.573 176.325 129.567 176.32 129.56C176.226 129.429 166.853 116.055 163.418 104.304C161.175 96.7665 159.452 89.0843 158.26 81.3112C157.551 76.9324 157.12 74.2879 155.71 72.119C155.7 72.1091 155.695 72.0959 155.695 72.0821C155.695 72.0683 155.7 72.0551 155.71 72.0452C155.719 72.0368 155.732 72.0322 155.745 72.0322C155.757 72.0322 155.77 72.0368 155.779 72.0452C157.206 74.2346 157.637 76.8873 158.346 81.2784C159.544 89.0403 161.27 96.7115 163.512 104.238C166.944 115.973 176.308 129.33 176.402 129.466C176.41 129.476 176.414 129.488 176.414 129.501C176.414 129.513 176.41 129.525 176.402 129.535C176.402 129.547 176.397 129.558 176.39 129.567C176.383 129.576 176.373 129.582 176.361 129.585Z" fill="#006F98"/>
<path opacity="0.4" d="M176.361 129.585C176.353 129.584 176.345 129.582 176.338 129.578C176.33 129.573 176.325 129.567 176.32 129.56C176.226 129.429 166.853 116.055 163.418 104.304C161.175 96.7665 159.452 89.0843 158.26 81.3112C157.551 76.9324 157.12 74.2879 155.71 72.119C155.7 72.1091 155.695 72.0959 155.695 72.0821C155.695 72.0683 155.7 72.0551 155.71 72.0452C155.719 72.0368 155.732 72.0322 155.745 72.0322C155.757 72.0322 155.77 72.0368 155.779 72.0452C157.206 74.2346 157.637 76.8873 158.346 81.2784C159.544 89.0403 161.27 96.7115 163.512 104.238C166.944 115.973 176.308 129.33 176.402 129.466C176.41 129.476 176.414 129.488 176.414 129.501C176.414 129.513 176.41 129.525 176.402 129.535C176.402 129.547 176.397 129.558 176.39 129.567C176.383 129.576 176.373 129.582 176.361 129.585Z" fill="black"/>
<path d="M156.558 54.9932C156.78 56.133 156.907 57.2072 157.03 58.3183C157.153 59.4294 157.198 60.5282 157.231 61.6393C157.264 62.7591 157.239 63.8799 157.157 64.9972C157.112 65.5589 157.063 66.1206 156.985 66.6864C156.952 66.9652 156.915 67.2481 156.862 67.531L156.71 68.4002C156.542 69.1087 156.234 69.7764 155.804 70.3641C155.451 70.8585 155.062 71.3258 154.64 71.7622C153.849 72.5749 152.999 73.3286 152.098 74.0172C150.354 75.3595 148.509 76.5645 146.579 77.6211L145.702 76.2599C146.522 75.608 147.342 74.9356 148.162 74.2509C148.982 73.5662 149.761 72.8733 150.511 72.1517C151.252 71.4571 151.952 70.7192 152.606 69.9418C152.906 69.582 153.18 69.2011 153.426 68.802C153.62 68.5111 153.759 68.1874 153.836 67.8467C153.969 66.8514 154.047 65.8494 154.07 64.8455C154.07 64.333 154.07 63.8205 154.07 63.308C154.07 62.7955 154.049 62.2748 154.025 61.7582C153.975 60.725 153.881 59.7082 153.77 58.6586C153.66 57.609 153.516 56.5717 153.36 55.6L156.558 54.9932Z" fill="#E58A7B"/>
<path d="M156.062 51.508C157.813 52.9266 157.395 57.1414 157.395 57.1414L151.491 59.0848C151.491 59.0848 151.761 54.2263 152.057 52.4797C152.401 50.401 154.336 50.1099 156.062 51.508Z" fill="#006F98"/>
<path opacity="0.2" d="M156.062 51.508C157.813 52.9266 157.395 57.1414 157.395 57.1414L151.491 59.0848C151.491 59.0848 151.761 54.2263 152.057 52.4797C152.401 50.401 154.336 50.1099 156.062 51.508Z" fill="black"/>
<path d="M78.0685 69.0974C77.8394 68.1033 77.2801 67.2162 76.4818 66.581C75.6835 65.9458 74.6934 65.6 73.6733 65.6001H40.8733C39.6772 65.6001 38.53 66.0753 37.6842 66.921C36.8384 67.7668 36.3633 68.914 36.3633 70.1101V143.016C36.3633 144.212 36.8384 145.36 37.6842 146.205C38.53 147.051 39.6772 147.526 40.8733 147.526H145.013C146.209 147.526 147.357 147.051 148.202 146.205C149.048 145.36 149.523 144.212 149.523 143.016V81.7746C149.523 80.5785 149.048 79.4313 148.202 78.5855C147.357 77.7398 146.209 77.2646 145.013 77.2646H88.3308C85.9486 77.265 83.6366 76.4575 81.7726 74.9741C79.9086 73.4906 78.6028 71.4189 78.0685 69.0974Z" fill="#006F98"/>
<path opacity="0.6" d="M78.0685 69.0974C77.8394 68.1033 77.2801 67.2162 76.4818 66.581C75.6835 65.9458 74.6934 65.6 73.6733 65.6001H40.8733C39.6772 65.6001 38.53 66.0753 37.6842 66.921C36.8384 67.7668 36.3633 68.914 36.3633 70.1101V143.016C36.3633 144.212 36.8384 145.36 37.6842 146.205C38.53 147.051 39.6772 147.526 40.8733 147.526H145.013C146.209 147.526 147.357 147.051 148.202 146.205C149.048 145.36 149.523 144.212 149.523 143.016V81.7746C149.523 80.5785 149.048 79.4313 148.202 78.5855C147.357 77.7398 146.209 77.2646 145.013 77.2646H88.3308C85.9486 77.265 83.6366 76.4575 81.7726 74.9741C79.9086 73.4906 78.6028 71.4189 78.0685 69.0974Z" fill="black"/>
<path opacity="0.22" d="M66.4902 46.3916L69.4135 55.8585C69.7867 57.0634 70.6228 58.0709 71.7383 58.6597C72.8537 59.2486 74.1573 59.3706 75.3626 58.9991L84.8254 56.0758L66.4902 46.3916Z" fill="#006F98"/>
<path d="M66.4895 46.3916L32.6645 56.8425C32.0674 57.0259 31.5123 57.3253 31.031 57.7235C30.5497 58.1217 30.1516 58.6108 29.8596 59.163C29.5675 59.7152 29.3871 60.3195 29.3288 60.9414C29.2705 61.5634 29.3354 62.1907 29.5198 62.7875L48.8308 125.304C49.0151 125.901 49.3152 126.456 49.714 126.937C50.1127 127.418 50.6023 127.815 51.1548 128.107C51.7072 128.399 52.3117 128.579 52.9337 128.637C53.5558 128.695 54.1831 128.629 54.7799 128.445L98.0718 115.071C98.6686 114.887 99.2232 114.587 99.7041 114.189C100.185 113.79 100.583 113.301 100.874 112.749C101.166 112.197 101.346 111.593 101.404 110.971C101.462 110.349 101.397 109.722 101.212 109.126L84.8124 56.0758L66.4895 46.3916Z" fill="#006F98"/>
<path opacity="0.8" d="M66.4895 46.3916L32.6645 56.8425C32.0674 57.0259 31.5123 57.3253 31.031 57.7235C30.5497 58.1217 30.1516 58.6108 29.8596 59.163C29.5675 59.7152 29.3871 60.3195 29.3288 60.9414C29.2705 61.5634 29.3354 62.1907 29.5198 62.7875L48.8308 125.304C49.0151 125.901 49.3152 126.456 49.714 126.937C50.1127 127.418 50.6023 127.815 51.1548 128.107C51.7072 128.399 52.3117 128.579 52.9337 128.637C53.5558 128.695 54.1831 128.629 54.7799 128.445L98.0718 115.071C98.6686 114.887 99.2232 114.587 99.7041 114.189C100.185 113.79 100.583 113.301 100.874 112.749C101.166 112.197 101.346 111.593 101.404 110.971C101.462 110.349 101.397 109.722 101.212 109.126L84.8124 56.0758L66.4895 46.3916Z" fill="white"/>
<g opacity="0.28">
<path d="M84.69 112.34L56.5476 121.032C56.0213 121.194 55.4524 121.14 54.9653 120.884C54.4782 120.627 54.1125 120.188 53.9482 119.663C53.788 119.136 53.8425 118.568 54.0998 118.082C54.3572 117.596 54.7964 117.231 55.3217 117.067L83.4641 108.371C83.9909 108.21 84.5603 108.264 85.0475 108.521C85.5347 108.778 85.9 109.219 86.0635 109.745C86.2237 110.271 86.1692 110.839 85.9119 111.326C85.6546 111.812 85.2153 112.177 84.69 112.34Z" fill="#006F98"/>
</g>
<g opacity="0.28">
<path d="M54.4034 61.3277L39.5204 65.9238C38.9941 66.0844 38.4257 66.0305 37.9389 65.7741C37.4521 65.5176 37.0862 65.0793 36.921 64.5544C36.7606 64.0276 36.815 63.4587 37.0723 62.9718C37.3296 62.4849 37.7689 62.1194 38.2945 61.955L53.1775 57.3589C53.7038 57.1962 54.2732 57.2489 54.7606 57.5057C55.248 57.7625 55.6135 58.2022 55.7769 58.7283C55.9372 59.2552 55.8829 59.824 55.6256 60.311C55.3683 60.7979 54.929 61.1633 54.4034 61.3277Z" fill="#006F98"/>
</g>
<g opacity="0.28">
<path d="M66.5473 66.2027L41.9473 73.8C41.4221 73.9577 40.8559 73.902 40.3715 73.6448C39.8872 73.3877 39.5238 72.9499 39.3602 72.4265C39.1987 71.9007 39.2521 71.3324 39.5088 70.846C39.7655 70.3595 40.2045 69.9946 40.7296 69.8312L65.3296 62.2339C65.8559 62.0722 66.4248 62.1256 66.9119 62.3822C67.399 62.6388 67.7647 63.0778 67.929 63.6033C68.0879 64.1312 68.0319 64.7005 67.7731 65.1873C67.5143 65.6741 67.0738 66.0391 66.5473 66.2027Z" fill="#006F98"/>
</g>
<g opacity="0.28">
<path d="M80.2825 70.5858L44.3829 81.6558C43.8571 81.8174 43.2888 81.7639 42.8023 81.5073C42.3159 81.2506 41.951 80.8116 41.7876 80.2864C41.627 79.7601 41.6809 79.1917 41.9373 78.7049C42.1938 78.2181 42.6321 77.8523 43.157 77.687L79.0566 66.617C79.5823 66.4566 80.1502 66.5106 80.6363 66.7671C81.1225 67.0236 81.4875 67.4619 81.6519 67.9864C81.8135 68.5127 81.7602 69.0816 81.5036 69.5687C81.247 70.0558 80.8079 70.4215 80.2825 70.5858Z" fill="#006F98"/>
</g>
<g opacity="0.28">
<path d="M82.7136 78.4576L61.8446 84.9069C61.3183 85.0672 60.75 85.0127 60.2638 84.7553C59.7775 84.498 59.4128 84.0587 59.2493 83.5334C59.0889 83.0077 59.1429 82.4398 59.3994 81.9537C59.6559 81.4675 60.0942 81.1025 60.6187 80.9381L81.4877 74.4888C82.0146 74.3296 82.583 74.3845 83.0696 74.6416C83.5562 74.8988 83.9218 75.3374 84.0871 75.8623C84.2474 76.3886 84.1929 76.957 83.9355 77.4432C83.6782 77.9295 83.2389 78.2941 82.7136 78.4576Z" fill="#006F98"/>
</g>
<g opacity="0.28">
<path d="M52.2754 87.8628L46.8183 89.5479C46.292 89.7096 45.7231 89.6562 45.236 89.3996C44.7489 89.143 44.3832 88.704 44.2189 88.1785C44.0574 87.6517 44.1113 87.0823 44.3687 86.5951C44.6261 86.1079 45.0662 85.7426 45.5924 85.5791L51.0495 83.894C51.5758 83.7335 52.1442 83.7873 52.631 84.0438C53.1178 84.3002 53.4836 84.7386 53.6489 85.2634C53.8081 85.7902 53.7532 86.3586 53.4961 86.8453C53.239 87.3319 52.8003 87.6975 52.2754 87.8628Z" fill="#006F98"/>
</g>
<g opacity="0.28">
<path d="M85.1491 86.3339L49.2495 97.4244C48.7232 97.5846 48.1549 97.5301 47.6686 97.2728C47.1824 97.0154 46.8177 96.5762 46.6542 96.0509C46.4926 95.5251 46.5461 94.9568 46.8027 94.4703C47.0594 93.9839 47.4984 93.619 48.0236 93.4556L83.9232 82.3651C84.4489 82.2047 85.0168 82.2586 85.5029 82.5151C85.9891 82.7716 86.3541 83.2099 86.5185 83.7345C86.6801 84.2608 86.6268 84.8297 86.3702 85.3168C86.1136 85.8039 85.6745 86.1696 85.1491 86.3339Z" fill="#006F98"/>
</g>
<g opacity="0.28">
<path d="M73.7264 98.486L51.6807 105.296C51.155 105.456 50.5871 105.403 50.101 105.146C49.6148 104.89 49.2498 104.451 49.0854 103.927C48.9249 103.4 48.9787 102.832 49.2352 102.345C49.4916 101.858 49.93 101.493 50.4548 101.327L72.5005 94.5172C73.0274 94.3568 73.5962 94.4112 74.0831 94.6685C74.57 94.9258 74.9355 95.3651 75.0999 95.8907C75.2613 96.417 75.2073 96.9858 74.9498 97.4723C74.6923 97.9589 74.2523 98.3234 73.7264 98.486Z" fill="#006F98"/>
</g>
<g opacity="0.28">
<path d="M87.58 94.2099L81.6965 96.0262C81.1697 96.1865 80.6008 96.1321 80.1139 95.8749C79.627 95.6176 79.2615 95.1783 79.0971 94.6527C78.9369 94.1264 78.9914 93.5581 79.2487 93.0718C79.5061 92.5856 79.9453 92.2209 80.4706 92.0574L86.3541 90.2411C86.8799 90.0796 87.4482 90.133 87.9347 90.3896C88.4211 90.6463 88.786 91.0853 88.9494 91.6105C89.1111 92.1368 89.0578 92.7057 88.8012 93.1928C88.5445 93.6799 88.1055 94.0456 87.58 94.2099Z" fill="#006F98"/>
</g>
<g opacity="0.28">
<path d="M90.0118 102.09L54.1204 113.16C53.5936 113.321 53.0242 113.268 52.537 113.01C52.0498 112.753 51.6845 112.313 51.521 111.786C51.3596 111.26 51.4136 110.691 51.6711 110.205C51.9286 109.718 52.3686 109.354 52.8945 109.191L88.79 98.1007C89.3168 97.9414 89.8852 97.9963 90.3718 98.2535C90.8585 98.5106 91.2241 98.9492 91.3894 99.4742C91.4717 99.7363 91.5014 100.012 91.4767 100.286C91.4519 100.56 91.3732 100.826 91.2452 101.069C91.1171 101.312 90.9422 101.527 90.7305 101.703C90.5188 101.878 90.2746 102.01 90.0118 102.09Z" fill="#006F98"/>
</g>
<path d="M90.7825 22.8822L101.516 46.8016C101.795 47.426 101.815 48.1353 101.572 48.7745C101.33 49.4137 100.844 49.9308 100.221 50.2128L54.6861 70.6513C54.0618 70.9311 53.3521 70.9518 52.7126 70.7089C52.0731 70.466 51.556 69.9794 51.2749 69.3557L40.537 45.4363C40.2559 44.8116 40.2345 44.1008 40.4775 43.4604C40.7205 42.8199 41.2079 42.3021 41.8326 42.021L87.3672 21.5825C87.9927 21.304 88.703 21.2843 89.343 21.5278C89.9829 21.7714 90.5004 22.2583 90.7825 22.8822Z" fill="#006F98"/>
<path opacity="0.3" d="M90.7825 22.8822L101.516 46.8016C101.795 47.426 101.815 48.1353 101.572 48.7745C101.33 49.4137 100.844 49.9308 100.221 50.2128L54.6861 70.6513C54.0618 70.9311 53.3521 70.9518 52.7126 70.7089C52.0731 70.466 51.556 69.9794 51.2749 69.3557L40.537 45.4363C40.2559 44.8116 40.2345 44.1008 40.4775 43.4604C40.7205 42.8199 41.2079 42.3021 41.8326 42.021L87.3672 21.5825C87.9927 21.304 88.703 21.2843 89.343 21.5278C89.9829 21.7714 90.5004 22.2583 90.7825 22.8822Z" fill="black"/>
<path d="M83.6066 21.7003L82.1514 22.353L82.3192 22.7271L83.7744 22.0743L83.6066 21.7003Z" fill="#006F98"/>
<path d="M80.1129 23.2653L75.5752 25.3008L75.743 25.6749L80.2807 23.6394L80.1129 23.2653Z" fill="#006F98"/>
<path d="M40.4966 47.8467L40.1226 48.0146L41.3653 50.7825L41.7393 50.6145L40.4966 47.8467Z" fill="#006F98"/>
<path opacity="0.6" d="M89.2571 21.4963L77.5147 44.4973C76.4251 46.6292 74.6407 48.3255 72.4564 49.3059C70.2721 50.2862 67.8187 50.4918 65.5017 49.8888L40.5122 43.3739C40.7686 42.7744 41.2393 42.2919 41.8324 42.0209L87.367 21.5824C87.9635 21.3157 88.6389 21.285 89.2571 21.4963Z" fill="#006F98"/>
<path d="M105.399 50.9341L70.0651 53.1153C69.4409 53.1524 68.8301 53.3122 68.2677 53.5857C67.7053 53.8591 67.2024 54.2407 66.7877 54.7088C66.373 55.1768 66.0546 55.722 65.8509 56.3132C65.6471 56.9044 65.5619 57.53 65.6002 58.1542L69.6305 123.459C69.6681 124.084 69.8286 124.695 70.1028 125.257C70.377 125.82 70.7594 126.322 71.2283 126.737C71.6972 127.151 72.2432 127.469 72.8351 127.672C73.427 127.875 74.0531 127.959 74.6776 127.92L119.901 125.128C120.524 125.09 121.134 124.93 121.696 124.656C122.257 124.382 122.759 124 123.173 123.532C123.586 123.064 123.904 122.519 124.106 121.928C124.309 121.337 124.393 120.712 124.353 120.089L120.95 64.6691L105.399 50.9341Z" fill="#006F98"/>
<path opacity="0.8" d="M105.399 50.9341L70.0651 53.1153C69.4409 53.1524 68.8301 53.3122 68.2677 53.5857C67.7053 53.8591 67.2024 54.2407 66.7877 54.7088C66.373 55.1768 66.0546 55.722 65.8509 56.3132C65.6471 56.9044 65.5619 57.53 65.6002 58.1542L69.6305 123.459C69.6681 124.084 69.8286 124.695 70.1028 125.257C70.377 125.82 70.7594 126.322 71.2283 126.737C71.6972 127.151 72.2432 127.469 72.8351 127.672C73.427 127.875 74.0531 127.959 74.6776 127.92L119.901 125.128C120.524 125.09 121.134 124.93 121.696 124.656C122.257 124.382 122.759 124 123.173 123.532C123.586 123.064 123.904 122.519 124.106 121.928C124.309 121.337 124.393 120.712 124.353 120.089L120.95 64.6691L105.399 50.9341Z" fill="white"/>
<g opacity="0.22">
<path d="M107.535 119.31L78.1336 121.126C77.5844 121.158 77.045 120.97 76.6333 120.606C76.2215 120.241 75.9709 119.728 75.936 119.179C75.9046 118.63 76.091 118.09 76.4549 117.678C76.8188 117.266 77.3308 117.014 77.8794 116.977L107.281 115.165C107.83 115.132 108.37 115.318 108.782 115.682C109.195 116.047 109.446 116.559 109.482 117.108C109.515 117.658 109.328 118.199 108.963 118.611C108.598 119.024 108.085 119.275 107.535 119.31Z" fill="#006F98"/>
</g>
<g opacity="0.22">
<path d="M90.1348 62.5988L74.5835 63.55C74.0345 63.5815 73.4953 63.3951 73.083 63.0311C72.6707 62.6672 72.4187 62.1553 72.3818 61.6066C72.3504 61.057 72.5374 60.5171 72.9022 60.1047C73.267 59.6924 73.7799 59.4408 74.3293 59.4049L89.8806 58.4455C90.4295 58.413 90.9689 58.5992 91.3807 58.9634C91.7926 59.3277 92.0434 59.8402 92.0782 60.3889C92.1131 60.9396 91.928 61.4816 91.5636 61.8959C91.1993 62.3102 90.6854 62.563 90.1348 62.5988Z" fill="#006F98"/>
</g>
<g opacity="0.22">
<path d="M100.786 70.2003L75.0916 71.7829C74.542 71.8165 74.0016 71.6308 73.5888 71.2665C73.176 70.9022 72.9247 70.3889 72.8899 69.8395C72.8573 69.2895 73.044 68.7491 73.409 68.3365C73.774 67.9238 74.2876 67.6726 74.8374 67.6378L100.528 66.0552C101.078 66.0215 101.618 66.2072 102.031 66.5715C102.444 66.9359 102.695 67.4491 102.73 67.9986C102.762 68.5478 102.576 69.0877 102.212 69.5002C101.848 69.9127 101.335 70.1644 100.786 70.2003Z" fill="#006F98"/>
</g>
<g opacity="0.22">
<path d="M113.099 77.699L75.6003 80.0114C75.0492 80.0451 74.5073 79.8591 74.0931 79.4941C73.6789 79.1291 73.4262 78.6148 73.3904 78.0639C73.3578 77.515 73.544 76.9756 73.9083 76.5638C74.2725 76.1519 74.7851 75.9011 75.3338 75.8663L112.836 73.5498C113.386 73.5184 113.925 73.7055 114.337 74.0704C114.749 74.4353 114.999 74.9482 115.034 75.4973C115.067 76.0452 114.882 76.5839 114.519 76.9962C114.157 77.4085 113.646 77.6611 113.099 77.699Z" fill="#006F98"/>
</g>
<g opacity="0.22">
<path d="M113.607 85.9239L91.8072 87.2687C91.2579 87.3013 90.718 87.1152 90.3055 86.7511C89.893 86.3869 89.6413 85.8744 89.6055 85.3253C89.5718 84.7758 89.7575 84.2353 90.1218 83.8225C90.4862 83.4098 90.9994 83.1584 91.5489 83.1236L113.349 81.7788C113.898 81.7451 114.439 81.9308 114.851 82.2952C115.264 82.6595 115.515 83.1727 115.55 83.7222C115.583 84.2715 115.397 84.8113 115.033 85.2238C114.668 85.6364 114.156 85.888 113.607 85.9239Z" fill="#006F98"/>
</g>
<g opacity="0.22">
<path d="M81.8077 87.8834L76.1046 88.236C75.5557 88.2685 75.0163 88.0823 74.6045 87.7181C74.1926 87.3539 73.9418 86.8413 73.907 86.2926C73.8744 85.7433 74.0605 85.2035 74.4246 84.7909C74.7887 84.3784 75.3013 84.1267 75.8504 84.0909L81.5535 83.7383C82.1032 83.7068 82.643 83.8939 83.0554 84.2586C83.4678 84.6234 83.7193 85.1364 83.7552 85.6858C83.7866 86.235 83.5995 86.7744 83.2346 87.1862C82.8697 87.5979 82.3567 87.8485 81.8077 87.8834Z" fill="#006F98"/>
</g>
<g opacity="0.22">
<path d="M114.116 94.1483L76.6128 96.4607C76.0636 96.4932 75.5237 96.3071 75.1112 95.943C74.6987 95.5789 74.447 95.0663 74.4111 94.5173C74.3797 93.9676 74.5667 93.4277 74.9315 93.0154C75.2963 92.603 75.8092 92.3514 76.3586 92.3156L113.857 90.0032C114.407 89.9706 114.948 90.1573 115.36 90.5222C115.773 90.8872 116.024 91.4009 116.059 91.9507C116.091 92.4995 115.905 93.0389 115.541 93.4508C115.177 93.8626 114.664 94.1134 114.116 94.1483Z" fill="#006F98"/>
</g>
<g opacity="0.22">
<path d="M100.151 103.267L77.1211 104.689C76.5715 104.721 76.0316 104.534 75.6192 104.169C75.2068 103.804 74.9553 103.291 74.9194 102.742C74.888 102.193 75.0752 101.653 75.44 101.241C75.8049 100.83 76.3179 100.579 76.8669 100.544L99.8966 99.1216C100.446 99.0901 100.985 99.2773 101.397 99.6422C101.809 100.007 102.059 100.52 102.094 101.069C102.128 101.618 101.942 102.158 101.578 102.57C101.213 102.982 100.7 103.233 100.151 103.267Z" fill="#006F98"/>
</g>
<g opacity="0.22">
<path d="M114.62 102.377L108.47 102.754C107.921 102.787 107.381 102.601 106.969 102.236C106.558 101.872 106.307 101.36 106.272 100.811C106.238 100.261 106.424 99.7208 106.788 99.3081C107.153 98.8953 107.666 98.6439 108.215 98.6091L114.365 98.2319C114.915 98.1982 115.455 98.384 115.868 98.7483C116.281 99.1126 116.532 99.6259 116.567 100.175C116.599 100.725 116.411 101.265 116.047 101.677C115.682 102.09 115.169 102.341 114.62 102.377Z" fill="#006F98"/>
</g>
<g opacity="0.22">
<path d="M115.128 110.601L77.6292 112.914C77.0799 112.946 76.5401 112.76 76.1275 112.396C75.715 112.032 75.4633 111.519 75.4275 110.97C75.3949 110.421 75.581 109.881 75.9451 109.469C76.3092 109.056 76.8218 108.805 77.3709 108.769L114.874 106.456C115.422 106.424 115.962 106.61 116.374 106.974C116.786 107.338 117.036 107.851 117.071 108.4C117.105 108.949 116.919 109.49 116.555 109.902C116.19 110.315 115.677 110.567 115.128 110.601Z" fill="#006F98"/>
</g>
<path opacity="0.22" d="M105.399 50.9341L106.01 60.8233C106.048 61.4468 106.209 62.0567 106.482 62.6182C106.756 63.1796 107.138 63.6816 107.606 64.0954C108.074 64.5093 108.619 64.8269 109.21 65.0302C109.8 65.2334 110.425 65.3183 111.049 65.28L120.95 64.6691L105.399 50.9341Z" fill="#006F98"/>
<path opacity="0.5" d="M93.829 75.6042C93.8228 75.1303 93.7217 74.6625 93.5317 74.2283C93.3416 73.7941 93.0664 73.4025 92.7225 73.0764C92.3785 72.7504 91.9726 72.4966 91.5289 72.3301C91.0852 72.1636 90.6126 72.0877 90.139 72.1069H57.298C54.8093 72.1069 52.378 74.1282 51.9106 76.6169L38.9505 143.016C38.4667 145.505 40.0903 147.526 42.579 147.526H146.719C149.208 147.526 151.619 145.509 152.106 143.016L162.795 88.2814C163.279 85.7886 161.655 83.7714 159.167 83.7714H102.501C97.5805 83.7714 93.9971 80.3848 93.829 75.6042Z" fill="#006F98"/>
</svg>
