<svg width="205" height="116" viewBox="0 0 205 116" fill="none" xmlns="http://www.w3.org/2000/svg">
<path d="M97.1699 115.948H18.003C17.3828 115.947 16.7884 115.7 16.3503 115.261C15.9121 114.822 15.666 114.227 15.666 113.607V2.3206C15.6714 1.70397 15.9199 1.11437 16.3575 0.67987C16.795 0.245368 17.3864 0.00105632 18.003 0H97.1699C97.7908 0 98.3863 0.246651 98.8253 0.685692C99.2644 1.12473 99.511 1.7202 99.511 2.3411V113.607C99.511 114.228 99.2644 114.823 98.8253 115.262C98.3863 115.701 97.7908 115.948 97.1699 115.948ZM18.003 0.0820003C17.41 0.0830864 16.8417 0.319417 16.4227 0.739118C16.0038 1.15882 15.7685 1.7276 15.7685 2.3206V113.607C15.7685 114.2 16.0038 114.769 16.4227 115.188C16.8417 115.608 17.41 115.844 18.003 115.845H97.1699C97.7633 115.844 98.3321 115.608 98.7516 115.189C99.1712 114.769 99.4074 114.2 99.4085 113.607V2.3206C99.4074 1.72722 99.1712 1.15845 98.7516 0.738868C98.3321 0.319284 97.7633 0.0830841 97.1699 0.0820003H18.003Z" fill="#EBEBEB"/>
<path d="M185.857 115.948H106.686C106.065 115.947 105.47 115.7 105.032 115.261C104.593 114.822 104.346 114.227 104.345 113.607V2.3206C104.351 1.7036 104.601 1.114 105.039 0.679613C105.477 0.245225 106.069 0.0010448 106.686 0H185.857C186.473 0.00213384 187.063 0.246922 187.5 0.681308C187.936 1.11569 188.184 1.70468 188.19 2.3206V113.607C188.19 114.226 187.944 114.821 187.507 115.259C187.07 115.698 186.476 115.946 185.857 115.948ZM106.686 0.0820003C106.092 0.0830841 105.524 0.319284 105.104 0.738868C104.685 1.15845 104.448 1.72722 104.447 2.3206V113.607C104.448 114.2 104.685 114.769 105.104 115.189C105.524 115.608 106.092 115.844 106.686 115.845H185.857C186.45 115.844 187.019 115.608 187.439 115.189C187.858 114.769 188.094 114.2 188.095 113.607V2.3206C188.094 1.72722 187.858 1.15845 187.439 0.738868C187.019 0.319284 186.45 0.0830841 185.857 0.0820003H106.686Z" fill="#EBEBEB"/>
<path d="M113.947 72.1885L181.523 72.1885V11.6725L113.947 11.6725L113.947 72.1885Z" fill="#E6E6E6"/>
<path d="M111.098 72.1885L180.191 72.1885V11.6725L111.098 11.6725L111.098 72.1885Z" fill="#F0F0F0"/>
<path d="M113.947 74.2388L181.523 74.2388V72.1888L113.947 72.1888V74.2388Z" fill="#E6E6E6"/>
<path d="M106.358 74.2388L175.451 74.2388V72.1888L106.358 72.1888V74.2388Z" fill="#F0F0F0"/>
<path d="M176.21 68.2033V15.6577L115.083 15.6577V68.2033H176.21Z" fill="#FAFAFA"/>
<path d="M163.926 68.2074L140.544 15.6577H116.616L139.999 68.2074H163.926Z" fill="white"/>
<path d="M174.365 59.4253C174.44 59.4253 174.512 59.3955 174.565 59.3424C174.618 59.2894 174.648 59.2174 174.648 59.1424V18.2531C174.648 18.1781 174.618 18.1061 174.565 18.0531C174.512 18 174.44 17.9702 174.365 17.9702C174.29 17.9702 174.218 18 174.165 18.0531C174.112 18.1061 174.082 18.1781 174.082 18.2531V59.1424C174.082 59.2174 174.112 59.2894 174.165 59.3424C174.218 59.3955 174.29 59.4253 174.365 59.4253Z" fill="#F0F0F0"/>
<path d="M131.003 68.2074L107.621 15.6577H99.3433L122.726 68.2074H131.003Z" fill="white"/>
<path d="M115.587 68.2033V15.6577H115.083V68.2033H115.587Z" fill="#E6E6E6"/>
<g opacity="0.5">
<path d="M110.155 21.1312H177.735L178.1 17.2075H110.524L110.155 21.1312Z" fill="#E6E6E6"/>
<path d="M110.155 27.6092H177.735L178.1 23.6855H110.524L110.155 27.6092Z" fill="#E6E6E6"/>
<path d="M110.155 34.0873H177.735L178.1 30.1636H110.524L110.155 34.0873Z" fill="#E6E6E6"/>
<path d="M110.155 40.5653H177.735L178.1 36.6416H110.524L110.155 40.5653Z" fill="#E6E6E6"/>
<path d="M110.155 47.0472H177.735L178.1 43.1235H110.524L110.155 47.0472Z" fill="#E6E6E6"/>
<path d="M110.155 53.5253H177.735L178.1 49.6016H110.524L110.155 53.5253Z" fill="#E6E6E6"/>
</g>
<path d="M31.9226 134.234H85.772L85.772 11.6767H31.9226L31.9226 134.234Z" fill="#F0F0F0"/>
<path d="M31.9225 134.234H84.71L84.71 11.6767H31.9225L31.9225 134.234Z" fill="#F5F5F5"/>
<path d="M81.9302 134.234L81.9302 14.4565L34.7023 14.4565L34.7023 134.234H81.9302Z" fill="#EBEBEB"/>
<path d="M47.5229 69.2902C44.8456 68.5522 42.1683 70.9302 39.491 70.1922C39.196 70.0684 38.9425 69.8629 38.7602 69.6C38.5779 69.3371 38.4744 69.0277 38.4619 68.708C38.4619 68.1422 38.9252 67.9782 39.491 68.1299C42.1683 68.8679 44.8456 66.4899 47.5229 67.2279C47.8186 67.35 48.0732 67.5543 48.2563 67.8166C48.4394 68.0789 48.5435 68.3883 48.5561 68.708C48.5561 69.2902 48.0887 69.4501 47.5229 69.2902Z" fill="white"/>
<path d="M35.4282 134.234L35.4282 14.4565H34.7066L34.7066 134.234H35.4282Z" fill="#E0E0E0"/>
<path d="M170.351 131.532H180.011V89.6466H170.351V131.532Z" fill="#F0F0F0"/>
<path d="M170.355 89.6426H128.674V131.528H170.355V89.6426Z" fill="#F5F5F5"/>
<path d="M166.554 94.8003H132.471V108.535H166.554V94.8003Z" fill="#F0F0F0"/>
<path d="M166.554 112.635H132.471V126.37H166.554V112.635Z" fill="#F0F0F0"/>
<path d="M145.69 95.9565H153.34C153.861 95.9565 154.283 95.5353 154.283 95.0156C154.283 94.4959 153.861 94.0746 153.34 94.0746H145.69C145.169 94.0746 144.747 94.4959 144.747 95.0156C144.747 95.5353 145.169 95.9565 145.69 95.9565Z" fill="#F5F5F5"/>
<path d="M145.685 113.796H153.34C153.589 113.795 153.829 113.695 154.005 113.518C154.182 113.342 154.282 113.102 154.283 112.853C154.276 112.606 154.174 112.372 153.998 112.2C153.822 112.028 153.586 111.931 153.34 111.93H145.685C145.436 111.931 145.197 112.031 145.021 112.208C144.845 112.385 144.746 112.624 144.746 112.873C144.751 113.119 144.853 113.353 145.028 113.525C145.203 113.698 145.439 113.795 145.685 113.796Z" fill="#F5F5F5"/>
<path d="M161.372 88.8182C161.182 88.8182 161 88.7432 160.866 88.6095C160.731 88.4758 160.655 88.2944 160.654 88.1048V66.342C160.655 66.1521 160.731 65.9702 160.866 65.8359C161 65.7015 161.182 65.6256 161.372 65.6245C161.561 65.6267 161.742 65.7031 161.875 65.8373C162.009 65.9715 162.084 66.1528 162.085 66.342V88.1048C162.084 88.2937 162.009 88.4745 161.875 88.6081C161.742 88.7416 161.561 88.8171 161.372 88.8182Z" fill="#EBEBEB"/>
<path d="M168.071 87.9736H154.668V89.6628H168.071V87.9736Z" fill="#F0F0F0"/>
<path d="M165.082 78.6585C164.988 78.6585 164.897 78.6209 164.83 78.554C164.763 78.4871 164.726 78.3964 164.726 78.3018V67.4204C164.726 67.3254 164.763 67.2342 164.83 67.1667C164.897 67.0991 164.987 67.0606 165.082 67.0596C165.177 67.0606 165.268 67.0991 165.335 67.1667C165.402 67.2342 165.439 67.3254 165.439 67.4204V78.31C165.437 78.4031 165.398 78.4918 165.332 78.5569C165.265 78.622 165.175 78.6585 165.082 78.6585Z" fill="#E0E0E0"/>
<path d="M150.95 71.1843C150.95 71.1843 151.216 63.1812 161.372 63.1812C171.528 63.1812 171.79 71.1843 171.79 71.1843H150.95Z" fill="#E6E6E6"/>
<path d="M95.8003 36.5145C95.8208 35.6453 96.6203 34.5096 99.8429 34.3046C103.066 34.0996 104.263 34.2472 105.583 36.7646C107.018 39.4747 108.658 42.5046 107.588 45.2803C106.518 48.056 103.143 49.6919 100.729 51.1597C98.3136 52.6275 94.7179 57.5598 94.7179 57.5598C94.7179 57.5598 88.0144 38.9499 95.8003 36.5145Z" fill="#263238"/>
<path d="M97.2725 73.6479C97.2725 73.6479 102.156 98.7153 103.89 108.908C105.69 119.506 107.207 142.311 107.207 142.311H109.921C109.921 142.311 113.377 122.631 109.921 108.014C110.155 96.3455 107.871 72.0776 107.871 72.0776L97.2725 73.6479Z" fill="#FF8B7B"/>
<path d="M100.831 73.1192C100.831 73.1192 111.54 99.3346 115.271 108.974C120.503 115.985 133.652 130.855 134.373 131.155L135.324 129.01C135.324 129.01 127.288 113.295 120.81 105.53C119.088 93.9882 110.884 71.6309 110.884 71.6309L100.831 73.1192Z" fill="#FF8B7B"/>
<path d="M95.7881 57.3423C95.0173 58.2443 94.226 59.1053 93.4347 59.9827C92.6434 60.8601 91.8275 61.7047 91.0116 62.5575C90.1957 63.4103 89.3716 64.259 88.5188 65.0831C87.666 65.9072 86.8091 66.7231 85.9112 67.5431L86.0465 67.3996C85.8541 67.621 85.6303 67.813 85.3823 67.9695C85.1793 68.092 84.9651 68.1949 84.7427 68.277C84.3855 68.4058 84.0136 68.4898 83.6357 68.5271C83.0126 68.5884 82.385 68.5884 81.762 68.5271C80.6394 68.4196 79.5265 68.2277 78.4328 67.9531C77.3668 67.6907 76.3254 67.3832 75.2922 67.0511C74.259 66.719 73.2422 66.35 72.2459 65.9236C72.0355 65.8349 71.8689 65.6663 71.7828 65.4549C71.6967 65.2435 71.6981 65.0065 71.7867 64.7961C71.8629 64.6114 72.0015 64.4594 72.1783 64.3665C72.3552 64.2736 72.559 64.2457 72.7543 64.2877C73.767 64.5009 74.8043 64.7182 75.8293 64.9027C76.8543 65.0872 77.8793 65.2676 78.9002 65.3947C79.8865 65.5353 80.8807 65.6134 81.8768 65.6284C82.3151 65.6371 82.7531 65.6028 83.1847 65.5259C83.3335 65.4985 83.4792 65.4559 83.6193 65.3988C83.6457 65.3894 83.6696 65.3739 83.689 65.3537C83.689 65.3537 83.6603 65.3537 83.6234 65.4029L83.7587 65.2594C84.5787 64.4394 85.3577 63.6194 86.1449 62.7789L88.4983 60.2164L93.1723 55.0463C93.4751 54.701 93.9027 54.4902 94.361 54.4602C94.8192 54.4303 95.2706 54.5835 95.6159 54.8864C95.9611 55.1892 96.1719 55.6168 96.2019 56.0751C96.2319 56.5333 96.0786 56.9847 95.7758 57.33L95.7881 57.3423Z" fill="#FF8B7B"/>
<path d="M73.4433 64.5214L71.75 61.5571L70.561 64.7797C70.561 64.7797 72.0001 66.4197 73.3695 66.0958L73.4433 64.5214Z" fill="#FF8B7B"/>
<path d="M69.6013 61.6434L69.1913 63.0251C69.1446 63.1797 69.1446 63.3447 69.1912 63.4993C69.2379 63.6539 69.3292 63.7913 69.4537 63.8943L70.5648 64.7963L71.7374 61.5573L70.696 61.1473C70.592 61.1037 70.4801 61.082 70.3673 61.0836C70.2545 61.0852 70.1432 61.11 70.0405 61.1566C69.9377 61.2032 69.8457 61.2704 69.7701 61.3542C69.6946 61.4379 69.6371 61.5364 69.6013 61.6434Z" fill="#FF8B7B"/>
<path d="M95.8213 53.2055C93.4105 52.7955 92.3445 54.4765 91.1924 55.7434C91.4671 57.982 95.4154 62.574 95.4154 62.574C95.4154 62.574 100.204 53.9189 95.8213 53.2055Z" fill="#006F98"/>
<path d="M92.6147 55.9524C92.9222 58.3919 94.0866 65.2389 97.3502 75.4889L111.581 73.3897C110.597 68.2319 109.24 63.357 109.867 53.0865C109.885 52.8032 109.844 52.5194 109.747 52.2525C109.651 51.9857 109.5 51.7415 109.305 51.5351C109.11 51.3288 108.875 51.1646 108.614 51.0527C108.354 50.9408 108.073 50.8837 107.789 50.8848C106.825 50.8848 105.636 50.9258 104.398 51.0488C102.318 51.2075 100.252 51.5131 98.2153 51.9631C96.9033 52.2829 95.5134 52.7093 94.4556 53.0537C93.8608 53.2492 93.3521 53.645 93.0165 54.1736C92.6808 54.7022 92.5388 55.3308 92.6147 55.9524Z" fill="#006F98"/>
<path d="M98.2153 51.9553L104.398 51.041C104.398 51.041 104.115 53.4149 100.22 56.535C97.26 53.788 98.2153 51.9553 98.2153 51.9553Z" fill="white"/>
<path d="M102.758 44.1689C102.66 46.2189 102.811 49.9089 104.398 51.0405C103.399 52.659 102.032 54.0188 100.409 55.0093C99.7958 54.7538 99.266 54.3328 98.8786 53.7934C98.4912 53.2539 98.2616 52.6174 98.2153 51.9548C100.356 51.0979 100.056 49.462 99.4453 47.9737L102.758 44.1689Z" fill="#FF8B7B"/>
<path opacity="0.2" d="M101.405 45.7231L99.4414 47.9699C99.5908 48.3154 99.7088 48.6735 99.794 49.04C100.614 48.794 101.651 47.6911 101.61 46.7891C101.608 46.4243 101.538 46.0629 101.405 45.7231Z" fill="black"/>
<path d="M104.316 40.2128C104.013 43.5625 103.956 44.9852 102.213 46.658C99.589 49.1795 95.5423 48.0766 94.833 44.7023C94.1975 41.6683 94.7961 36.6991 98.113 35.4568C98.8451 35.1767 99.6368 35.0888 100.412 35.2015C101.188 35.3142 101.922 35.6238 102.544 36.1008C103.166 36.5777 103.656 37.2061 103.966 37.9259C104.276 38.6458 104.397 39.4331 104.316 40.2128Z" fill="#FF8B7B"/>
<path d="M101.746 37.605C101.45 39.6099 102.635 42.0658 103.66 42.0904C104.685 42.115 105.456 38.2446 105.456 38.2446L101.746 37.605Z" fill="#263238"/>
<path d="M96.0508 36.58C98.2361 38.1298 104.73 40.4545 104.866 38.4496C105.001 36.4447 102.291 34.8252 100.286 34.8252C98.2812 34.8252 96.6658 35.6247 96.0508 36.58Z" fill="#263238"/>
<path opacity="0.2" d="M103.361 105.882L109.921 103.303C109.888 101.741 109.835 100.085 109.757 98.3833L102.5 101.016C102.799 102.754 103.099 104.402 103.361 105.882Z" fill="black"/>
<path opacity="0.2" d="M118.49 95.1812L110.905 97.9446C111.503 99.4288 112.081 100.872 112.623 102.233L119.593 99.4821C119.256 98.0922 118.9 96.649 118.49 95.1812Z" fill="black"/>
<path d="M99.4043 41.0942C99.4043 41.3689 99.2485 41.5862 99.0681 41.578C98.8877 41.5698 98.7524 41.3484 98.7606 41.0778C98.7688 40.8072 98.9164 40.5858 99.0968 40.5899C99.2772 40.594 99.4125 40.8195 99.4043 41.0942Z" fill="#263238"/>
<path d="M96.3159 41.0064C96.3237 40.7325 96.1851 40.5064 96.0063 40.5013C95.8275 40.4962 95.6762 40.7141 95.6684 40.988C95.6606 41.2619 95.7993 41.488 95.9781 41.4931C96.1569 41.4982 96.3082 41.2803 96.3159 41.0064Z" fill="#263238"/>
<path d="M96.0874 40.5201L95.4355 40.311C95.4355 40.311 95.7594 40.8358 96.0874 40.5201Z" fill="#263238"/>
<path d="M97.1207 41.5C96.8597 42.1158 96.5148 42.6926 96.0957 43.2138C96.2324 43.3179 96.3902 43.3909 96.558 43.4277C96.7258 43.4645 96.8997 43.4643 97.0674 43.427L97.1207 41.5Z" fill="#FF5652"/>
<path d="M98.0351 44.444C97.8832 44.4665 97.7295 44.4761 97.5759 44.4727C97.5553 44.4708 97.536 44.4614 97.5216 44.4463C97.5073 44.4312 97.4989 44.4115 97.498 44.3907C97.498 44.3801 97.5002 44.3697 97.5043 44.3599C97.5085 44.3502 97.5146 44.3414 97.5223 44.3341C97.53 44.3268 97.539 44.3212 97.549 44.3175C97.5589 44.3139 97.5695 44.3123 97.58 44.3128C97.9195 44.3299 98.2583 44.2668 98.5688 44.1286C98.8794 43.9904 99.1531 43.781 99.3676 43.5174C99.3736 43.5088 99.3811 43.5014 99.3899 43.4957C99.3987 43.4901 99.4085 43.4861 99.4188 43.4842C99.429 43.4823 99.4396 43.4825 99.4498 43.4847C99.46 43.4868 99.4697 43.491 99.4783 43.4969C99.487 43.5028 99.4943 43.5104 99.5 43.5192C99.5057 43.5279 99.5096 43.5377 99.5115 43.548C99.5134 43.5583 99.5133 43.5689 99.5111 43.5791C99.5089 43.5893 99.5048 43.599 99.4988 43.6076C99.1392 44.0672 98.6137 44.3674 98.0351 44.444Z" fill="#263238"/>
<path d="M105.038 41.988C104.96 42.3008 104.82 42.5949 104.627 42.8532C104.435 43.1115 104.192 43.3289 103.915 43.4927C103.172 43.9273 102.582 43.3164 102.607 42.5005C102.627 41.7666 103.041 40.6555 103.878 40.553C104.06 40.5336 104.245 40.5602 104.414 40.6304C104.584 40.7006 104.733 40.8121 104.848 40.9548C104.964 41.0975 105.042 41.2668 105.075 41.4473C105.108 41.6278 105.095 41.8137 105.038 41.988Z" fill="#FF8B7B"/>
<path d="M100.552 39.6838C100.531 39.6864 100.509 39.6841 100.488 39.677C100.468 39.6699 100.449 39.6582 100.434 39.6428C100.29 39.5005 100.115 39.3944 99.9226 39.3331C99.7301 39.2718 99.5259 39.2571 99.3266 39.2902C99.2875 39.2932 99.2487 39.2821 99.217 39.259C99.1854 39.2358 99.1631 39.2021 99.1542 39.164C99.1453 39.1258 99.1503 39.0857 99.1684 39.051C99.1865 39.0162 99.2164 38.9891 99.2528 38.9745C99.5036 38.9314 99.761 38.9483 100.004 39.0238C100.247 39.0993 100.469 39.2314 100.651 39.4091C100.666 39.4236 100.678 39.4411 100.687 39.4605C100.695 39.4799 100.699 39.5007 100.699 39.5218C100.699 39.5429 100.695 39.5638 100.687 39.5831C100.678 39.6025 100.666 39.62 100.651 39.6346C100.639 39.6488 100.623 39.6605 100.607 39.669C100.59 39.6774 100.571 39.6824 100.552 39.6838Z" fill="#263238"/>
<path d="M95.5301 39.4254C95.5101 39.4218 95.491 39.4142 95.4741 39.4029C95.4572 39.3916 95.4427 39.3769 95.4317 39.3598C95.4194 39.3427 95.4107 39.3233 95.4061 39.3028C95.4015 39.2823 95.4011 39.261 95.4049 39.2403C95.4088 39.2197 95.4168 39.2 95.4284 39.1824C95.4401 39.1649 95.4551 39.1499 95.4727 39.1384C95.6786 38.9883 95.9176 38.8898 96.1694 38.8513C96.4213 38.8128 96.6787 38.8353 96.92 38.917C96.9592 38.9333 96.9903 38.9645 97.0064 39.0037C97.0226 39.0429 97.0225 39.087 97.0061 39.1261C96.9985 39.1458 96.9869 39.1639 96.9722 39.1791C96.9575 39.1944 96.9399 39.2066 96.9205 39.2149C96.901 39.2233 96.8801 39.2278 96.8589 39.228C96.8377 39.2282 96.8167 39.2243 96.797 39.2163C96.6055 39.1532 96.4017 39.137 96.2026 39.1691C96.0035 39.2012 95.8151 39.2807 95.6531 39.4008C95.617 39.425 95.5728 39.4338 95.5301 39.4254Z" fill="#263238"/>
<path d="M99.1748 40.5898L98.5229 40.3848C98.5229 40.3848 98.8468 40.9219 99.1748 40.5898Z" fill="#263238"/>
<path d="M97.3501 75.4888L102.11 103.639L119.933 98.3546C118.49 83.4757 114.8 76.1079 111.581 73.3896L97.3501 75.4888Z" fill="#263238"/>
<path opacity="0.2" d="M104.57 91.3068L108.133 85.4521L107.522 81.3315L104.57 91.3068Z" fill="black"/>
<path d="M109.687 52.2913C109.991 52.5619 110.364 52.8735 110.708 53.1605C111.052 53.4475 111.426 53.7427 111.795 54.0215C112.528 54.575 113.266 55.1203 114.033 55.6123C115.491 56.5994 117.087 57.3661 118.769 57.8878C118.867 57.9206 118.97 57.937 119.068 57.9616L119.216 57.9985H119.158C118.994 57.9985 118.933 58.0723 118.978 58.0559C119.213 57.8971 119.415 57.6937 119.572 57.4573C120.072 56.7397 120.503 55.9764 120.86 55.1777C121.27 54.3577 121.63 53.4762 121.971 52.5906C122.311 51.705 122.66 50.8071 122.979 49.9215C123.05 49.7192 123.194 49.5504 123.382 49.4483C123.57 49.3462 123.79 49.318 123.998 49.3692C124.206 49.4205 124.388 49.5475 124.507 49.7255C124.627 49.9034 124.675 50.1195 124.644 50.3315C124.364 52.3127 123.914 54.2661 123.299 56.1699C122.974 57.1881 122.539 58.1683 122.004 59.0932C121.662 59.6912 121.201 60.213 120.651 60.6266C120.199 60.9455 119.662 61.1199 119.109 61.1268C119.028 61.133 118.948 61.133 118.867 61.1268L118.674 61.1022L118.465 61.0653C118.33 61.0407 118.186 61.0243 118.055 60.9915C116.998 60.7679 115.967 60.4326 114.98 59.9911C114.027 59.5731 113.105 59.0881 112.221 58.5397C111.346 58.0104 110.498 57.4356 109.683 56.8177C109.276 56.5116 108.878 56.1959 108.49 55.8706C108.08 55.5385 107.727 55.2228 107.317 54.8333C107.004 54.5163 106.825 54.091 106.817 53.6455C106.809 53.2 106.973 52.7686 107.275 52.4406C107.576 52.1126 107.992 51.9133 108.437 51.884C108.882 51.8547 109.32 51.9976 109.663 52.2831L109.687 52.2913Z" fill="#FF8B7B"/>
<path d="M107.633 50.8768C110.093 50.7333 111.028 52.0125 112.041 53.3901C111.541 55.5877 108.876 59.3474 108.876 59.3474C108.876 59.3474 103.201 51.1392 107.633 50.8768Z" fill="#006F98"/>
<path d="M122.852 50.1224L123.467 46.5103L125.693 49.1425C125.693 49.1425 124.914 51.1925 123.516 51.3524L122.852 50.1224Z" fill="#FF8B7B"/>
<path d="M125.501 45.5303L126.837 46.7029C126.955 46.8066 127.03 46.9499 127.049 47.1056C127.068 47.2614 127.029 47.4186 126.94 47.5475L125.46 49.6426L123.471 46.5102L124.701 45.518C124.815 45.4274 124.957 45.3792 125.103 45.3814C125.249 45.3837 125.389 45.4362 125.501 45.5303Z" fill="#FF8B7B"/>
<path opacity="0.9" d="M122.557 19.8601L79.3267 15.715C78.2625 15.6178 77.203 15.9451 76.379 16.6255C75.555 17.3059 75.0333 18.2843 74.9274 19.3476L68.7323 84.0497C68.6317 85.114 68.9572 86.1746 69.6374 86.9993C70.3175 87.8239 71.2969 88.3453 72.3608 88.449L115.587 92.5941C116.651 92.6924 117.712 92.3656 118.536 91.685C119.36 91.0044 119.882 90.0253 119.986 88.9615L126.186 24.2799C126.238 23.7515 126.185 23.2179 126.031 22.7097C125.877 22.2016 125.624 21.7287 125.287 21.3183C124.95 20.9079 124.536 20.5678 124.067 20.3176C123.599 20.0674 123.086 19.912 122.557 19.8601ZM113.303 44.6323C113.004 47.7217 111.745 50.6396 109.702 52.9765C107.659 55.3133 104.936 56.9515 101.914 57.6611C98.8926 58.3707 95.7247 58.1159 92.8553 56.9327C89.9859 55.7494 87.5593 53.6971 85.9162 51.0639C84.2731 48.4307 83.4961 45.3489 83.6943 42.2515C83.8925 39.1541 85.056 36.1965 87.0214 33.7943C88.9867 31.392 91.6552 29.6657 94.652 28.8579C97.6488 28.05 100.823 28.2012 103.73 29.2901C104.892 29.7248 105.994 30.3047 107.01 31.0162C109.175 32.5216 110.899 34.5766 112.006 36.9698C113.113 39.363 113.562 42.0079 113.307 44.6323H113.303Z" fill="white"/>
<path d="M100.708 4.02231L105.39 4.92021C105.965 5.04148 106.475 5.3702 106.823 5.84362C107.171 6.31704 107.332 6.90199 107.276 7.48681L106.37 15.736C106.358 15.8441 106.338 15.9511 106.309 16.0558C106.183 16.5452 105.874 16.9678 105.447 17.2363C105.019 17.5049 104.504 17.5989 104.009 17.499L99.3263 16.6175C98.8021 16.506 98.3303 16.2222 97.9862 15.8112C97.6421 15.4002 97.4456 14.8859 97.428 14.3502C97.4179 14.2411 97.4179 14.1313 97.428 14.0222L98.3341 5.77301C98.3606 5.49595 98.4451 5.22758 98.5823 4.98541C98.7194 4.74323 98.9061 4.53268 99.1301 4.36749C99.3541 4.2023 99.6104 4.08618 99.8823 4.0267C100.154 3.96723 100.436 3.96573 100.708 4.02231ZM102.664 7.95831C102.447 7.91481 102.223 7.91745 102.008 7.96606C101.792 8.01467 101.589 8.10816 101.412 8.24043C101.235 8.37271 101.088 8.54081 100.98 8.7338C100.872 8.92678 100.806 9.14032 100.786 9.36051C100.738 9.8274 100.864 10.2956 101.142 10.6744C101.419 11.0531 101.827 11.3155 102.287 11.4105C102.503 11.4547 102.727 11.4525 102.943 11.4042C103.159 11.3558 103.362 11.2624 103.54 11.13C103.717 10.9976 103.864 10.8293 103.972 10.6359C104.079 10.4426 104.145 10.2287 104.164 10.0083C104.212 9.54158 104.085 9.07383 103.807 8.69528C103.53 8.31673 103.123 8.05419 102.664 7.95831Z" fill="#263238"/>
<path d="M115.136 21.4964C115.041 21.4964 114.948 21.4695 114.867 21.4187C114.787 21.3679 114.722 21.2953 114.681 21.2094L112.873 17.4743C112.751 17.22 112.565 17.0014 112.334 16.8398C112.103 16.6782 111.834 16.579 111.553 16.5518L90.7577 14.5592C90.477 14.5322 90.1941 14.5779 89.9362 14.6921C89.6784 14.8063 89.4544 14.9851 89.2858 15.2111L86.8012 18.5403C86.7616 18.5941 86.7118 18.6397 86.6546 18.6743C86.5975 18.7089 86.534 18.7319 86.468 18.742C86.4019 18.752 86.3345 18.749 86.2696 18.7331C86.2048 18.7171 86.1437 18.6885 86.0898 18.649C86.036 18.6094 85.9904 18.5596 85.9558 18.5024C85.9212 18.4453 85.8982 18.3818 85.8882 18.3158C85.8781 18.2497 85.8811 18.1823 85.897 18.1174C85.913 18.0526 85.9416 17.9914 85.9812 17.9376L88.4658 14.6084C88.7394 14.2445 89.1015 13.9567 89.5177 13.7723C89.9339 13.5879 90.3904 13.513 90.8438 13.5547L111.635 15.5473C112.088 15.5931 112.522 15.7539 112.896 16.0143C113.27 16.2748 113.571 16.6263 113.771 17.0356L115.575 20.7707C115.612 20.8474 115.63 20.9324 115.626 21.0177C115.621 21.103 115.595 21.1858 115.55 21.2583C115.505 21.3308 115.442 21.3907 115.368 21.4324C115.293 21.474 115.209 21.496 115.124 21.4964H115.136Z" fill="#006F98"/>
<path d="M72.5699 33.0213L72.2378 32.9885L72.4674 30.5818L72.8036 30.6146L72.5699 33.0213ZM72.9799 28.3637L72.6478 28.3309L73.1685 22.8779L73.5047 22.9107L72.9799 28.3637Z" fill="#006F98"/>
<path d="M115.977 92.7582C115.84 92.7597 115.703 92.7529 115.567 92.7377L72.3405 88.5967C71.2319 88.4888 70.2114 87.9456 69.5028 87.0863C68.7941 86.227 68.4552 85.1218 68.5603 84.0129L74.7554 19.3313C74.8644 18.2232 75.4078 17.2033 76.2669 16.4949C77.1259 15.7865 78.2306 15.4471 79.3392 15.5511L122.59 19.6798C123.699 19.7878 124.72 20.3308 125.429 21.19C126.138 22.0491 126.478 23.1544 126.374 24.2636L120.155 88.9698C120.052 90.0081 119.568 90.9714 118.797 91.6735C118.025 92.3756 117.02 92.7664 115.977 92.7705V92.7582ZM78.9415 15.8668C77.981 15.8694 77.0557 16.2286 76.3451 16.8748C75.6344 17.5211 75.1892 18.4082 75.0957 19.3641L68.8801 84.0498C68.7874 85.0698 69.1011 86.0852 69.7529 86.8752C70.4047 87.6652 71.342 88.166 72.361 88.2687L115.62 92.4056C116.64 92.5005 117.656 92.1875 118.446 91.5352C119.236 90.8829 119.735 89.9443 119.835 88.9247L126.034 24.2431C126.128 23.2236 125.815 22.2082 125.164 21.4181C124.513 20.6279 123.576 20.127 122.557 20.0242L79.3105 15.8832C79.1875 15.8709 79.0645 15.8668 78.9415 15.8668ZM98.5313 58.2526C98.0475 58.2526 97.5596 58.228 97.0717 58.1829C94.9417 57.9774 92.8801 57.3195 91.0248 56.2532C89.1695 55.187 87.5631 53.737 86.3131 52.0002C85.0631 50.2633 84.1983 48.2797 83.7764 46.1818C83.3545 44.0839 83.3854 41.9201 83.8668 39.8351C84.3483 37.7501 85.2693 35.7919 86.5682 34.0913C87.8672 32.3908 89.5142 30.9872 91.3991 29.9742C93.2841 28.9613 95.3636 28.3624 97.4985 28.2175C99.6335 28.0727 101.775 28.3853 103.779 29.1344C104.956 29.5724 106.072 30.1593 107.1 30.881C109.289 32.4035 111.033 34.4814 112.153 36.901C113.273 39.3207 113.728 41.9949 113.472 44.6488C113.116 48.3671 111.389 51.8199 108.627 54.3347C105.866 56.8495 102.267 58.2462 98.5313 58.2526ZM98.4944 28.5153C95.6475 28.5172 92.8624 29.3458 90.4774 30.9004C88.0925 32.4551 86.2104 34.6688 85.0597 37.2728C83.909 39.8768 83.5393 42.759 83.9955 45.5691C84.4516 48.3792 85.7141 50.9964 87.6294 53.1026C89.5447 55.2089 92.0305 56.7136 94.7848 57.434C97.539 58.1544 100.443 58.0594 103.145 57.1606C105.846 56.2618 108.228 54.5979 110.002 52.3709C111.775 50.144 112.864 47.45 113.135 44.616C113.385 42.0222 112.94 39.4086 111.846 37.0437C110.751 34.6789 109.047 32.648 106.908 31.1598C105.903 30.4534 104.812 29.8801 103.66 29.4542C102.454 29.0002 101.192 28.7093 99.9089 28.5891C99.4333 28.5399 98.9618 28.5153 98.4944 28.5153Z" fill="#006F98"/>
<path opacity="0.8" d="M103.73 29.2901C100.987 28.2649 98.0032 28.072 95.1515 28.7357C92.2998 29.3994 89.7075 30.8902 87.6996 33.0212C85.6917 35.1521 84.3575 37.8284 83.8643 40.7145C83.3711 43.6006 83.7409 46.5681 84.9273 49.2448L70.9873 60.7576L74.9561 19.3476C75.062 18.2843 75.5838 17.3059 76.4078 16.6255C77.2318 15.9451 78.2912 15.6178 79.3554 15.715L93.6808 17.0885L98.2646 22.6481L103.73 29.2901Z" fill="#006F98"/>
<path opacity="0.5" d="M126.185 24.2599L123.41 53.1608L113.16 40.7419C112.83 38.7943 112.116 36.9317 111.061 35.2622C110.005 33.5927 108.628 32.1496 107.01 31.0167L120.737 19.6802L122.557 19.8565C123.621 19.9613 124.601 20.4835 125.281 21.3088C125.961 22.1341 126.286 23.1952 126.185 24.2599Z" fill="#006F98"/>
<path d="M120.737 19.6801L107.01 31.0166C105.994 30.3051 104.892 29.7251 103.73 29.2905L98.2484 22.6485L93.6523 17.0889L120.737 19.6801Z" fill="#006F98"/>
<path opacity="0.5" d="M109.431 64.3581L83.7761 61.9013C83.3456 61.8601 82.9632 62.1757 82.9219 62.6062L82.7937 63.9449C82.7525 64.3754 83.0681 64.7578 83.4986 64.7991L109.154 67.2558C109.584 67.297 109.967 66.9815 110.008 66.5509L110.136 65.2123C110.177 64.7817 109.862 64.3993 109.431 64.3581Z" fill="#006F98"/>
<path opacity="0.5" d="M106.924 69.3793L85.2849 67.3071C84.8544 67.2658 84.4719 67.5814 84.4307 68.012L84.3025 69.3506C84.2613 69.7812 84.5769 70.1636 85.0074 70.2048L106.647 72.277C107.077 72.3182 107.46 72.0026 107.501 71.5721L107.629 70.2334C107.67 69.8029 107.355 69.4205 106.924 69.3793Z" fill="#006F98"/>
<path opacity="0.5" d="M81.7886 80.3259L75.3564 79.71L75.2556 80.7629L81.6878 81.3789L81.7886 80.3259Z" fill="#006F98"/>
<path opacity="0.5" d="M88.4242 80.9631L83.2368 80.4663L83.136 81.5193L88.3233 82.016L88.4242 80.9631Z" fill="#006F98"/>
<path opacity="0.5" d="M90.039 83.5083L75.1299 82.0806L75.029 83.1335L89.9381 84.5612L90.039 83.5083Z" fill="#006F98"/>
<path opacity="0.5" d="M93.0211 79.9116L75.4526 78.1548L75.3469 79.2126L92.9154 80.9694L93.0211 79.9116Z" fill="#006F98"/>
<path d="M104.96 4.72727L100.204 3.86217C99.9206 3.812 99.6302 3.81814 99.3494 3.88022C99.0686 3.9423 98.8027 4.05912 98.567 4.22398C98.3313 4.38885 98.1304 4.59854 97.9758 4.84107C97.8212 5.0836 97.7159 5.35422 97.6659 5.63747L96.1817 13.899C96.1601 14.0069 96.1505 14.1169 96.153 14.227C96.1362 14.7514 96.3076 15.2646 96.6362 15.6736C96.9648 16.0827 97.4289 16.3607 97.9447 16.4574L102.688 17.3225C103.205 17.4157 103.738 17.3199 104.189 17.0527C104.641 16.7854 104.981 16.3645 105.148 15.867C105.188 15.7635 105.216 15.6564 105.234 15.5472L106.715 7.28566C106.818 6.71408 106.691 6.12483 106.363 5.64584C106.034 5.16685 105.53 4.83677 104.96 4.72727ZM101.946 7.78997C102.288 7.84848 102.605 8.00739 102.857 8.24651C103.109 8.48562 103.284 8.79414 103.36 9.13287C103.435 9.4716 103.409 9.82525 103.283 10.1489C103.158 10.4725 102.939 10.7515 102.654 10.9504C102.37 11.1493 102.033 11.2591 101.686 11.266C101.339 11.2728 100.997 11.1763 100.705 10.9887C100.413 10.8012 100.183 10.531 100.045 10.2126C99.907 9.89414 99.8666 9.54182 99.9291 9.20037C100.013 8.74763 100.272 8.34604 100.649 8.08219C101.026 7.81835 101.492 7.71339 101.946 7.78997Z" fill="#263238"/>
<path opacity="0.2" d="M104.96 4.72727L100.204 3.86217C99.9206 3.812 99.6302 3.81814 99.3494 3.88022C99.0686 3.9423 98.8027 4.05912 98.567 4.22398C98.3313 4.38885 98.1304 4.59854 97.9758 4.84107C97.8212 5.0836 97.7159 5.35422 97.6659 5.63747L96.1817 13.899C96.1601 14.0069 96.1505 14.1169 96.153 14.227C96.1362 14.7514 96.3076 15.2646 96.6362 15.6736C96.9648 16.0827 97.4289 16.3607 97.9447 16.4574L102.688 17.3225C103.205 17.4157 103.738 17.3199 104.189 17.0527C104.641 16.7854 104.981 16.3645 105.148 15.867C105.188 15.7635 105.216 15.6564 105.234 15.5472L106.715 7.28566C106.818 6.71408 106.691 6.12483 106.363 5.64584C106.034 5.16685 105.53 4.83677 104.96 4.72727ZM101.946 7.78997C102.288 7.84848 102.605 8.00739 102.857 8.24651C103.109 8.48562 103.284 8.79414 103.36 9.13287C103.435 9.4716 103.409 9.82525 103.283 10.1489C103.158 10.4725 102.939 10.7515 102.654 10.9504C102.37 11.1493 102.033 11.2591 101.686 11.266C101.339 11.2728 100.997 11.1763 100.705 10.9887C100.413 10.8012 100.183 10.531 100.045 10.2126C99.907 9.89414 99.8666 9.54182 99.9291 9.20037C100.013 8.74763 100.272 8.34604 100.649 8.08219C101.026 7.81835 101.492 7.71339 101.946 7.78997Z" fill="white"/>
<path opacity="0.2" d="M113.804 85.9884C115.042 84.9666 115.217 83.1344 114.196 81.8962C113.174 80.6579 111.342 80.4825 110.103 81.5043C108.865 82.5261 108.69 84.3583 109.712 85.5966C110.733 86.8348 112.566 87.0103 113.804 85.9884Z" fill="#006F98"/>
<path opacity="0.8" d="M106.107 85.2497C107.345 84.2278 107.521 82.3957 106.499 81.1574C105.477 79.9192 103.645 79.7437 102.407 80.7655C101.168 81.7874 100.993 83.6195 102.015 84.8578C103.037 86.0961 104.869 86.2715 106.107 85.2497Z" fill="#006F98"/>
</svg>
