<svg width="205" height="116" viewBox="0 0 205 116" fill="none" xmlns="http://www.w3.org/2000/svg">
<path d="M97.1699 115.948H18.003C17.3828 115.947 16.7884 115.7 16.3503 115.261C15.9121 114.822 15.666 114.227 15.666 113.607V2.3206C15.6714 1.70397 15.9199 1.11437 16.3575 0.67987C16.795 0.245368 17.3864 0.00105632 18.003 0H97.1699C97.7908 0 98.3863 0.246651 98.8253 0.685692C99.2644 1.12473 99.511 1.7202 99.511 2.3411V113.607C99.511 114.228 99.2644 114.823 98.8253 115.262C98.3863 115.701 97.7908 115.948 97.1699 115.948ZM18.003 0.0820003C17.41 0.0830864 16.8417 0.319417 16.4227 0.739118C16.0038 1.15882 15.7685 1.7276 15.7685 2.3206V113.607C15.7685 114.2 16.0038 114.769 16.4227 115.188C16.8417 115.608 17.41 115.844 18.003 115.845H97.1699C97.7633 115.844 98.3321 115.608 98.7516 115.189C99.1712 114.769 99.4074 114.2 99.4085 113.607V2.3206C99.4074 1.72722 99.1712 1.15845 98.7516 0.738868C98.3321 0.319284 97.7633 0.0830841 97.1699 0.0820003H18.003Z" fill="#EBEBEB"/>
<path d="M185.857 115.948H106.686C106.065 115.947 105.47 115.7 105.032 115.261C104.593 114.822 104.346 114.227 104.345 113.607V2.3206C104.351 1.7036 104.601 1.114 105.039 0.679613C105.477 0.245225 106.069 0.0010448 106.686 0H185.857C186.473 0.00213384 187.063 0.246922 187.5 0.681308C187.936 1.11569 188.184 1.70468 188.19 2.3206V113.607C188.19 114.226 187.944 114.821 187.507 115.259C187.07 115.698 186.476 115.946 185.857 115.948ZM106.686 0.0820003C106.092 0.0830841 105.524 0.319284 105.104 0.738868C104.685 1.15845 104.448 1.72722 104.447 2.3206V113.607C104.448 114.2 104.685 114.769 105.104 115.189C105.524 115.608 106.092 115.844 106.686 115.845H185.857C186.45 115.844 187.019 115.608 187.439 115.189C187.858 114.769 188.094 114.2 188.095 113.607V2.3206C188.094 1.72722 187.858 1.15845 187.439 0.738868C187.019 0.319284 186.45 0.0830841 185.857 0.0820003H106.686Z" fill="#EBEBEB"/>
<path d="M110.302 134.295H182.581V42.7711L110.302 42.7711L110.302 134.295Z" fill="#F0F0F0"/>
<path d="M112.857 65.6777L180.027 65.6777V46.1043L112.857 46.1043V65.6777Z" fill="#E0E0E0"/>
<path d="M176.21 65.6738H180.027V49.2697H176.21V65.6738Z" fill="#EBEBEB"/>
<path d="M157.76 65.6738H161.577V49.2697H157.76V65.6738Z" fill="#EBEBEB"/>
<path d="M134.032 65.022L137.793 65.6704L140.58 49.5047L136.818 48.8563L134.032 65.022Z" fill="#EBEBEB"/>
<path d="M171.483 65.6777H175.3V51.4343H171.483V65.6777Z" fill="#EBEBEB"/>
<path d="M162.713 65.6777H166.53V51.4343H162.713V65.6777Z" fill="#EBEBEB"/>
<path d="M140.576 65.6777H144.394V51.4343H140.576V65.6777Z" fill="#EBEBEB"/>
<path d="M149.663 64.8442L153.389 65.6724L156.479 51.7682L152.753 50.9401L149.663 64.8442Z" fill="#EBEBEB"/>
<path d="M168.186 65.6777H170.093V48.4618H168.186V65.6777Z" fill="#EBEBEB"/>
<path d="M145.489 65.6777H147.395V48.4618H145.489V65.6777Z" fill="#EBEBEB"/>
<path d="M180.031 68.7734H112.861V88.3468H180.031V68.7734Z" fill="#E0E0E0"/>
<path d="M116.678 71.9429H112.861V88.347H116.678V71.9429Z" fill="#EBEBEB"/>
<path d="M135.128 71.9429H131.311V88.347H135.128V71.9429Z" fill="#EBEBEB"/>
<path d="M156.075 71.5274L152.313 72.1758L155.1 88.3415L158.862 87.6931L156.075 71.5274Z" fill="#EBEBEB"/>
<path d="M121.405 74.1035H117.588V88.3469H121.405V74.1035Z" fill="#EBEBEB"/>
<path d="M130.175 74.1035H126.358V88.3469H130.175V74.1035Z" fill="#EBEBEB"/>
<path d="M152.311 74.1035H148.494V88.3469H152.311V74.1035Z" fill="#EBEBEB"/>
<path d="M140.143 73.6089L136.417 74.437L139.507 88.3412L143.233 87.5131L140.143 73.6089Z" fill="#EBEBEB"/>
<path d="M124.701 71.1309H122.795V88.3468H124.701V71.1309Z" fill="#EBEBEB"/>
<path d="M147.399 71.1309H145.493V88.3468H147.399V71.1309Z" fill="#EBEBEB"/>
<path d="M176.21 88.3467H180.027V71.9426H176.21V88.3467Z" fill="#EBEBEB"/>
<path d="M171.483 88.3467H175.3V74.1033H171.483V88.3467Z" fill="#EBEBEB"/>
<path d="M162.713 88.3467H166.53V74.1033H162.713V88.3467Z" fill="#EBEBEB"/>
<path d="M168.186 88.3467H170.093V71.1308H168.186V88.3467Z" fill="#EBEBEB"/>
<path d="M112.857 111.016L180.027 111.016V91.4422H112.857V111.016Z" fill="#E0E0E0"/>
<path d="M137.658 111.016H141.475V94.6115H137.658V111.016Z" fill="#EBEBEB"/>
<path d="M113.931 110.366L117.692 111.015L120.479 94.8489L116.717 94.2005L113.931 110.366Z" fill="#EBEBEB"/>
<path d="M151.38 111.016H155.197V96.7722H151.38V111.016Z" fill="#EBEBEB"/>
<path d="M142.61 111.016H146.427V96.7722H142.61V111.016Z" fill="#EBEBEB"/>
<path d="M120.474 111.016H124.292V96.7722H120.474V111.016Z" fill="#EBEBEB"/>
<path d="M129.563 110.187L133.289 111.015L136.379 97.1105L132.653 96.2824L129.563 110.187Z" fill="#EBEBEB"/>
<path d="M148.084 111.016H149.99V93.7997H148.084V111.016Z" fill="#EBEBEB"/>
<path d="M125.39 111.016H127.297V93.7997H125.39V111.016Z" fill="#EBEBEB"/>
<path d="M157.832 110.364L161.593 111.013L164.38 94.847L160.618 94.1986L157.832 110.364Z" fill="#EBEBEB"/>
<path d="M164.373 111.016H168.19V96.7722H164.373V111.016Z" fill="#EBEBEB"/>
<path d="M173.465 110.184L177.191 111.012L180.282 97.1076L176.555 96.2794L173.465 110.184Z" fill="#EBEBEB"/>
<path d="M169.289 111.016H171.195V93.7997H169.289V111.016Z" fill="#EBEBEB"/>
<path d="M171.486 42.7672V41.4101H169.285C170.65 37.2516 170.932 32.8136 170.105 28.5156C170.105 28.5156 170.137 34.1449 167.96 34.1859C164.635 34.2433 164.385 28.5156 164.385 28.5156C164.385 28.5156 163.565 36.7156 166.566 41.4101H164.287V42.7672H171.486Z" fill="#E0E0E0"/>
<path d="M167.219 34.1901C168.278 34.1901 169.137 33.3311 169.137 32.2713C169.137 31.2116 168.278 30.3525 167.219 30.3525C166.159 30.3525 165.3 31.2116 165.3 32.2713C165.3 33.3311 166.159 34.1901 167.219 34.1901Z" fill="#E0E0E0"/>
<path d="M156.726 42.7672V41.9759L154.402 40.8935L155.562 39.7619L152.672 29.5406V35.9202C152.672 35.9202 153.082 35.9202 153.082 36.8386C153.082 37.757 151.765 37.5438 151.765 36.7853C151.765 36.0268 152.196 35.9202 152.196 35.9202V29.27L149.547 39.3806L150.736 40.8935L148.358 41.9759V42.7672H156.726Z" fill="#E0E0E0"/>
<path d="M142.487 42.7672V42.1399L140.343 41.652V32.2712L138.506 29.7046L136.94 31.7136V36.0186L136.128 34.8952L134.992 34.4606L134.181 36.2359L135.911 41.652L134.181 42.1399V42.7672H142.487Z" fill="#E0E0E0"/>
<path d="M128.265 43.0542L125.636 29.7046H117.588L119.495 37.2732L116.674 42.7672L128.265 43.0542Z" fill="#E0E0E0"/>
<path d="M75.3373 23.1611H21.8569V25.9081H75.3373V23.1611Z" fill="#E0E0E0"/>
<path d="M26.6744 13.0337H24.3169V23.1607H26.6744V13.0337Z" fill="#EBEBEB"/>
<path d="M38.0684 13.0337H35.7109V23.1607H38.0684V13.0337Z" fill="#EBEBEB"/>
<path d="M51.0005 12.7797L48.6772 13.1802L50.3975 23.16L52.7207 22.7595L51.0005 12.7797Z" fill="#EBEBEB"/>
<path d="M29.5938 14.3662H27.2363V23.1607H29.5938V14.3662Z" fill="#EBEBEB"/>
<path d="M35.0098 14.3662H32.6523V23.1607H35.0098V14.3662Z" fill="#EBEBEB"/>
<path d="M48.6793 14.3662H46.3218V23.1607H48.6793V14.3662Z" fill="#EBEBEB"/>
<path d="M41.1632 14.0647L38.8618 14.5762L40.7698 23.1612L43.0711 22.6497L41.1632 14.0647Z" fill="#EBEBEB"/>
<path d="M31.6274 12.5298H30.4507V23.1611H31.6274V12.5298Z" fill="#EBEBEB"/>
<path d="M45.6411 12.5298H44.4644V23.1611H45.6411V12.5298Z" fill="#EBEBEB"/>
<path d="M70.2041 15.1455H58.7241V23.0708H70.2041V15.1455Z" fill="#EBEBEB"/>
<path d="M21.8531 46.4243L75.3335 46.4243V43.6773L21.8531 43.6773V46.4243Z" fill="#E0E0E0"/>
<path d="M70.516 43.6772H72.8735V33.5502H70.516V43.6772Z" fill="#EBEBEB"/>
<path d="M59.122 43.6772H61.4795V33.5502H59.122V43.6772Z" fill="#EBEBEB"/>
<path d="M44.4722 43.2729L46.7954 43.6733L48.5156 33.6935L46.1924 33.2931L44.4722 43.2729Z" fill="#EBEBEB"/>
<path d="M67.5966 43.6733H69.9541V34.8788H67.5966V43.6733Z" fill="#EBEBEB"/>
<path d="M62.1845 43.6733H64.542V34.8788H62.1845V43.6733Z" fill="#EBEBEB"/>
<path d="M48.5151 43.6733H50.8726V34.8788H48.5151V43.6733Z" fill="#EBEBEB"/>
<path d="M54.1259 43.1614L56.4272 43.6729L58.3352 35.0878L56.0339 34.5764L54.1259 43.1614Z" fill="#EBEBEB"/>
<path d="M65.563 43.6772H66.7397V33.0459H65.563V43.6772Z" fill="#EBEBEB"/>
<path d="M51.5494 43.6772H52.7261V33.0459H51.5494V43.6772Z" fill="#EBEBEB"/>
<path d="M26.9863 43.583H38.4663V35.6577H26.9863V43.583Z" fill="#EBEBEB"/>
<path d="M64.116 83.8325H19.2661V134.295H64.116V83.8325Z" fill="#E0E0E0"/>
<path d="M61.8895 85.8418H21.4922V93.968H61.8895V85.8418Z" fill="#EBEBEB"/>
<path d="M61.8895 96.0796H21.4922V104.206H61.8895V96.0796Z" fill="#EBEBEB"/>
<path d="M61.8895 106.317H21.4922V130.548H61.8895V106.317Z" fill="#EBEBEB"/>
<path d="M43.5706 87.2317H39.8109C39.3192 87.2317 38.8359 87.1035 38.4089 86.8597C37.9818 86.616 37.6256 86.2651 37.3755 85.8418H45.9855C45.7371 86.2622 45.3842 86.6111 44.961 86.8547C44.5378 87.0982 44.0588 87.2281 43.5706 87.2317Z" fill="#E0E0E0"/>
<path d="M43.5706 97.4568H39.8109C39.3192 97.4568 38.8359 97.3285 38.4089 97.0848C37.9818 96.8411 37.6256 96.4902 37.3755 96.0669H45.9855C45.7371 96.4873 45.3842 96.8362 44.961 97.0798C44.5378 97.3233 44.0588 97.4532 43.5706 97.4568Z" fill="#E0E0E0"/>
<path d="M43.5706 107.719H39.8109C39.3187 107.719 38.835 107.59 38.4079 107.346C37.9807 107.101 37.6248 106.75 37.3755 106.325H45.9855C45.7379 106.747 45.3853 107.097 44.962 107.341C44.5387 107.585 44.0593 107.716 43.5706 107.719Z" fill="#E0E0E0"/>
<path d="M44.2182 117.834C44.1321 118.437 45.7639 118.834 47.0882 119.064C46.9816 120.159 46.2682 121.266 45.2473 122.299C43.9804 121.585 42.1764 120.659 41.8443 120.872C41.5122 121.085 43.3285 122.319 44.4847 123.024C43.659 123.747 42.7836 124.41 41.8648 125.009C41.299 124.48 40.6348 124.013 40.2248 124.267C39.8148 124.521 39.9255 125.345 40.1264 126.079C38.7488 126.878 37.7197 127.366 37.7197 127.366C37.3194 126.088 37.0125 124.782 36.8013 123.459C36.871 123.324 36.9407 123.184 37.0022 123.049C37.2236 122.537 37.0022 122.319 36.6414 122.229C36.5364 121.295 36.5295 120.352 36.6209 119.416C38.1748 119.088 40.069 118.486 39.3597 117.551C38.9497 116.985 38.1297 116.924 37.3343 117.063C37.4464 116.878 37.5754 116.704 37.7197 116.542C40.5569 113.418 42.5331 116.542 42.5331 116.542C44.1731 115.169 46.4937 115.538 46.9939 117.686C46.0919 117.444 44.3248 117.092 44.2182 117.834Z" fill="#006F98"/>
<path opacity="0.3" d="M44.2182 117.834C44.1321 118.437 45.7639 118.834 47.0882 119.064C46.9816 120.159 46.2682 121.266 45.2473 122.299C43.9804 121.585 42.1764 120.659 41.8443 120.872C41.5122 121.085 43.3285 122.319 44.4847 123.024C43.659 123.747 42.7836 124.41 41.8648 125.009C41.299 124.48 40.6348 124.013 40.2248 124.267C39.8148 124.521 39.9255 125.345 40.1264 126.079C38.7488 126.878 37.7197 127.366 37.7197 127.366C37.3194 126.088 37.0125 124.782 36.8013 123.459C36.871 123.324 36.9407 123.184 37.0022 123.049C37.2236 122.537 37.0022 122.319 36.6414 122.229C36.5364 121.295 36.5295 120.352 36.6209 119.416C38.1748 119.088 40.069 118.486 39.3597 117.551C38.9497 116.985 38.1297 116.924 37.3343 117.063C37.4464 116.878 37.5754 116.704 37.7197 116.542C40.5569 113.418 42.5331 116.542 42.5331 116.542C44.1731 115.169 46.4937 115.538 46.9939 117.686C46.0919 117.444 44.3248 117.092 44.2182 117.834Z" fill="white"/>
<path d="M40.0898 140.335C40.1718 139.396 42.0865 117.268 38.5031 114.915C37.6462 114.349 36.8631 114.23 36.2317 114.558C34.5384 115.415 34.3129 119.031 34.3047 119.187L34.7147 119.207C34.7147 119.175 34.932 115.673 36.4162 114.923C36.9246 114.669 37.5519 114.779 38.2817 115.255C41.6601 117.473 39.7003 140.068 39.6798 140.298L40.0898 140.335Z" fill="#006F98"/>
<path d="M33.4275 117.457C33.1739 117.275 32.8984 117.126 32.6075 117.014C32.6825 116.798 32.7919 116.596 32.9314 116.415C34.186 114.812 34.7559 116.415 35.7276 116.44C35.957 116.434 36.1851 116.477 36.397 116.565C36.6088 116.654 36.7998 116.786 36.9576 116.952C36.8351 116.996 36.716 117.048 36.6009 117.108C36.5591 117.131 36.5229 117.164 36.495 117.202C36.4672 117.241 36.4482 117.286 36.4396 117.333C36.431 117.38 36.4329 117.428 36.4452 117.474C36.4575 117.521 36.4798 117.564 36.5107 117.6C36.6347 117.754 36.804 117.864 36.9945 117.916C37.0532 117.92 37.1121 117.92 37.1708 117.916C37.1284 118.158 37.054 118.394 36.9494 118.617C36.8247 118.888 36.6707 119.146 36.4902 119.384C36.3849 119.33 36.2768 119.282 36.1663 119.24C36.1201 119.225 36.071 119.22 36.0229 119.227C35.9747 119.234 35.9289 119.253 35.8891 119.28C35.8492 119.308 35.8164 119.345 35.7934 119.388C35.7703 119.431 35.7576 119.478 35.7563 119.527C35.7678 119.699 35.8124 119.868 35.8875 120.023C35.6346 120.241 35.3598 120.432 35.0675 120.593C35.039 120.572 35.0088 120.552 34.9773 120.536C34.9117 120.499 34.842 120.47 34.7764 120.437L34.6534 120.392C34.601 120.378 34.5458 120.377 34.4929 120.389C34.4399 120.401 34.3908 120.426 34.35 120.462C34.3077 120.499 34.2763 120.547 34.259 120.6C34.2417 120.653 34.2391 120.711 34.2516 120.765C34.267 120.823 34.2862 120.879 34.309 120.933C33.9445 121.066 33.5519 121.103 33.1692 121.04C33.0306 120.748 32.9088 120.448 32.8043 120.142C32.9027 120.117 33.0011 120.097 33.0954 120.068C33.2068 120.039 33.3042 119.97 33.3701 119.876C33.4032 119.829 33.4261 119.775 33.4373 119.719C33.4484 119.662 33.4476 119.604 33.4349 119.548C33.4221 119.492 33.3977 119.439 33.3632 119.393C33.3287 119.347 33.285 119.309 33.2348 119.281C33.1877 119.25 33.1346 119.228 33.0788 119.218C33.0231 119.209 32.9659 119.21 32.9109 119.224C32.7961 119.256 32.6772 119.281 32.5583 119.31C32.4436 118.84 32.3926 118.358 32.4066 117.875H32.4394C32.6141 117.957 32.7815 118.055 32.9396 118.166C33.0358 118.227 33.1525 118.248 33.264 118.223C33.3755 118.199 33.4726 118.131 33.5341 118.035C33.5919 117.942 33.6131 117.832 33.5933 117.725C33.5736 117.618 33.5144 117.522 33.4275 117.457Z" fill="#006F98"/>
<path opacity="0.3" d="M33.4275 117.457C33.1739 117.275 32.8984 117.126 32.6075 117.014C32.6825 116.798 32.7919 116.596 32.9314 116.415C34.186 114.812 34.7559 116.415 35.7276 116.44C35.957 116.434 36.1851 116.477 36.397 116.565C36.6088 116.654 36.7998 116.786 36.9576 116.952C36.8351 116.996 36.716 117.048 36.6009 117.108C36.5591 117.131 36.5229 117.164 36.495 117.202C36.4672 117.241 36.4482 117.286 36.4396 117.333C36.431 117.38 36.4329 117.428 36.4452 117.474C36.4575 117.521 36.4798 117.564 36.5107 117.6C36.6347 117.754 36.804 117.864 36.9945 117.916C37.0532 117.92 37.1121 117.92 37.1708 117.916C37.1284 118.158 37.054 118.394 36.9494 118.617C36.8247 118.888 36.6707 119.146 36.4902 119.384C36.3849 119.33 36.2768 119.282 36.1663 119.24C36.1201 119.225 36.071 119.22 36.0229 119.227C35.9747 119.234 35.9289 119.253 35.8891 119.28C35.8492 119.308 35.8164 119.345 35.7934 119.388C35.7703 119.431 35.7576 119.478 35.7563 119.527C35.7678 119.699 35.8124 119.868 35.8875 120.023C35.6346 120.241 35.3598 120.432 35.0675 120.593C35.039 120.572 35.0088 120.552 34.9773 120.536C34.9117 120.499 34.842 120.47 34.7764 120.437L34.6534 120.392C34.601 120.378 34.5458 120.377 34.4929 120.389C34.4399 120.401 34.3908 120.426 34.35 120.462C34.3077 120.499 34.2763 120.547 34.259 120.6C34.2417 120.653 34.2391 120.711 34.2516 120.765C34.267 120.823 34.2862 120.879 34.309 120.933C33.9445 121.066 33.5519 121.103 33.1692 121.04C33.0306 120.748 32.9088 120.448 32.8043 120.142C32.9027 120.117 33.0011 120.097 33.0954 120.068C33.2068 120.039 33.3042 119.97 33.3701 119.876C33.4032 119.829 33.4261 119.775 33.4373 119.719C33.4484 119.662 33.4476 119.604 33.4349 119.548C33.4221 119.492 33.3977 119.439 33.3632 119.393C33.3287 119.347 33.285 119.309 33.2348 119.281C33.1877 119.25 33.1346 119.228 33.0788 119.218C33.0231 119.209 32.9659 119.21 32.9109 119.224C32.7961 119.256 32.6772 119.281 32.5583 119.31C32.4436 118.84 32.3926 118.358 32.4066 117.875H32.4394C32.6141 117.957 32.7815 118.055 32.9396 118.166C33.0358 118.227 33.1525 118.248 33.264 118.223C33.3755 118.199 33.4726 118.131 33.5341 118.035C33.5919 117.942 33.6131 117.832 33.5933 117.725C33.5736 117.618 33.5144 117.522 33.4275 117.457Z" fill="white"/>
<path d="M127.346 9.11035H58.4906C56.1356 9.11035 54.2266 11.0194 54.2266 13.3744V144.029C54.2266 146.384 56.1356 148.293 58.4906 148.293H127.346C129.701 148.293 131.61 146.384 131.61 144.029V13.3744C131.61 11.0194 129.701 9.11035 127.346 9.11035Z" fill="#263238"/>
<path d="M129.023 13.772V143.381C129.023 143.632 128.973 143.881 128.876 144.113C128.779 144.344 128.637 144.555 128.458 144.731C128.279 144.907 128.067 145.046 127.834 145.14C127.601 145.233 127.351 145.279 127.1 145.275H58.581C58.3529 145.278 58.1265 145.235 57.9155 145.148C57.7044 145.062 57.513 144.933 57.3527 144.771C57.1923 144.609 57.0663 144.416 56.9822 144.204C56.8981 143.992 56.8576 143.765 56.8631 143.537V13.6162C56.8549 13.415 56.8864 13.2141 56.956 13.0252C57.0256 12.8362 57.1318 12.6629 57.2686 12.515C57.4054 12.3672 57.57 12.2479 57.753 12.1639C57.936 12.0798 58.1338 12.0328 58.335 12.0254H75.4648C75.7044 12.0297 75.9374 12.1053 76.1338 12.2426C76.3303 12.3799 76.4813 12.5726 76.5677 12.7962L77.277 14.5428C77.3647 14.7648 77.5163 14.9558 77.7126 15.0916C77.909 15.2274 78.1412 15.3018 78.3799 15.3054H107.543C107.782 15.3052 108.014 15.2336 108.212 15.0999C108.409 14.9662 108.562 14.7764 108.65 14.5551L109.359 12.8003C109.448 12.5778 109.599 12.386 109.795 12.2483C109.991 12.1107 110.223 12.0332 110.462 12.0254H127.346C127.799 12.0393 128.228 12.23 128.541 12.5565C128.855 12.883 129.028 13.3194 129.023 13.772Z" fill="#006F98"/>
<path opacity="0.3" d="M129.023 20.123H56.8628V136.666H129.023V20.123Z" fill="white"/>
<path d="M77.4283 60.5408C86.4519 60.5408 93.7668 53.2258 93.7668 44.2023C93.7668 35.1788 86.4519 27.8638 77.4283 27.8638C68.4048 27.8638 61.0898 35.1788 61.0898 44.2023C61.0898 53.2258 68.4048 60.5408 77.4283 60.5408Z" fill="white"/>
<path opacity="0.6" d="M91.3111 13.19C91.859 13.19 92.3033 12.7457 92.3033 12.1978C92.3033 11.6498 91.859 11.2056 91.3111 11.2056C90.7631 11.2056 90.3188 11.6498 90.3188 12.1978C90.3188 12.7457 90.7631 13.19 91.3111 13.19Z" fill="white"/>
<path opacity="0.6" d="M94.2998 12.1975C94.2998 12.3232 94.2625 12.4461 94.1927 12.5506C94.1229 12.6551 94.0236 12.7366 93.9075 12.7847C93.7914 12.8328 93.6636 12.8453 93.5403 12.8208C93.4171 12.7963 93.3038 12.7358 93.2149 12.6469C93.1261 12.558 93.0655 12.4448 93.041 12.3215C93.0165 12.1982 93.0291 12.0705 93.0772 11.9543C93.1253 11.8382 93.2067 11.739 93.3112 11.6691C93.4158 11.5993 93.5386 11.562 93.6643 11.562C93.7479 11.5615 93.8308 11.5775 93.9081 11.6093C93.9855 11.641 94.0558 11.6878 94.1149 11.7469C94.174 11.8061 94.2208 11.8763 94.2525 11.9537C94.2843 12.031 94.3004 12.1139 94.2998 12.1975Z" fill="white"/>
<path opacity="0.6" d="M65.0053 17.249H65.895V16.06H65.0053V17.249Z" fill="white"/>
<path opacity="0.6" d="M63.5498 17.249H64.4395V15.6664H63.5498V17.249Z" fill="white"/>
<path opacity="0.6" d="M62.0986 17.249H62.9883V15.2687H62.0986V17.249Z" fill="white"/>
<path opacity="0.6" d="M60.6469 17.249H61.5366V14.871H60.6469V17.249Z" fill="white"/>
<path opacity="0.6" d="M121.044 15.6255H120.515V16.8145H121.044V15.6255Z" fill="white"/>
<path opacity="0.6" d="M121.405 17.249H125.616V15.1949H121.405V17.249Z" fill="white"/>
<path d="M79.5398 41.4099C76.1532 41.4509 71.0815 41.7174 66.8667 42.7793C66.8667 42.7793 67.4858 45.8871 68.1582 50.1142C68.4083 51.6886 68.6666 53.3942 68.9044 55.1941C68.9372 55.4606 68.9741 55.7271 69.0069 56.0141L69.0561 56.4241C69.1217 56.9612 69.1873 57.5024 69.2488 58.0395C69.2488 58.1584 69.2775 58.2773 69.2898 58.3962C71.6651 59.7578 74.3443 60.501 77.0815 60.5576C79.8188 60.6142 82.5264 59.9824 84.9559 58.7201C84.9231 53.2589 84.5869 46.3258 83.2954 41.5001C83.2995 41.455 81.7948 41.3853 79.5398 41.4099Z" fill="#006F98"/>
<path opacity="0.6" d="M79.5398 41.4099C76.1532 41.4509 71.0815 41.7174 66.8667 42.7793C66.8667 42.7793 67.4858 45.8871 68.1582 50.1142C68.4083 51.6886 68.6666 53.3942 68.9044 55.1941C68.9372 55.4606 68.9741 55.7271 69.0069 56.0141L69.0561 56.4241C69.1217 56.9612 69.1873 57.5024 69.2488 58.0395C69.2488 58.1584 69.2775 58.2773 69.2898 58.3962C71.6651 59.7578 74.3443 60.501 77.0815 60.5576C79.8188 60.6142 82.5264 59.9824 84.9559 58.7201C84.9231 53.2589 84.5869 46.3258 83.2954 41.5001C83.2995 41.455 81.7948 41.3853 79.5398 41.4099Z" fill="white"/>
<path d="M72.3774 42.0781C73.7304 43.3081 77.0391 42.853 77.0391 42.853C77.0391 42.853 79.0891 42.2872 78.6791 41.623C77.4491 41.4221 76.871 40.8522 76.6291 40.1265C76.4981 39.6756 76.4563 39.2035 76.5061 38.7366C76.5061 38.4783 76.5635 38.2159 76.6086 37.9576L72.5086 34.9277C73.0457 36.9449 73.7017 40.6267 72.3774 42.0781Z" fill="#EBB376"/>
<path opacity="0.2" d="M73.4517 36.8711C73.6157 39.3311 75.6329 40.0035 76.621 40.1511C76.4899 39.7002 76.4481 39.2281 76.498 38.7612L73.4517 36.8711Z" fill="black"/>
<path d="M78.5396 28.6343C78.5396 28.6343 79.9418 32.2382 78.2813 34.116C76.6208 35.9938 75.0669 29.0484 75.0669 29.0484L78.5396 28.6343Z" fill="#263238"/>
<path d="M73.1934 38.3678C73.7471 38.8885 74.4561 39.2137 75.212 39.2936C75.9679 39.3736 76.7291 39.2039 77.3795 38.8106C78.2279 38.3156 78.8565 37.5169 79.1384 36.5761C79.1794 36.4449 79.2081 36.3137 79.2368 36.1661C79.7001 33.6651 79.1179 29.6061 76.3668 28.6508C75.7612 28.4364 75.1108 28.3806 74.4775 28.4888C73.8442 28.5969 73.2491 28.8653 72.7489 29.2685C72.2487 29.6717 71.86 30.1963 71.6199 30.7922C71.3798 31.3881 71.2962 32.0355 71.3771 32.6729C71.6846 35.4158 71.7502 37.0394 73.1934 38.3678Z" fill="#EBB376"/>
<path d="M75.5918 33.2387C75.5918 33.4642 75.7271 33.6487 75.8747 33.6487C76.0223 33.6487 76.1289 33.456 76.1207 33.2387C76.1125 33.0214 75.9813 32.8287 75.8337 32.8492C75.6861 32.8697 75.5795 33.0132 75.5918 33.2387Z" fill="#263238"/>
<path d="M78.1172 33.1117C78.1172 33.3331 78.2566 33.5217 78.4042 33.5217C78.5518 33.5217 78.6584 33.3249 78.6461 33.1117C78.6338 32.8985 78.5067 32.7017 78.3591 32.7222C78.2115 32.7427 78.1049 32.8985 78.1172 33.1117Z" fill="#263238"/>
<path d="M77.3179 33.2632C77.6198 33.9332 78.013 34.5583 78.4864 35.1205C78.3382 35.2384 78.1659 35.3223 77.9817 35.3663C77.7974 35.4102 77.6058 35.4131 77.4204 35.3747L77.3179 33.2632Z" fill="#D58745"/>
<path d="M74.7633 32.4638C74.788 32.4653 74.8127 32.4605 74.8349 32.4497C74.8572 32.4389 74.8763 32.4226 74.8904 32.4023C74.98 32.2637 75.1009 32.1481 75.2433 32.0648C75.3857 31.9814 75.5457 31.9327 75.7104 31.9226C75.7276 31.9226 75.7447 31.9192 75.7606 31.9126C75.7765 31.906 75.791 31.8963 75.8032 31.8841C75.8154 31.8719 75.825 31.8575 75.8316 31.8416C75.8382 31.8256 75.8416 31.8086 75.8416 31.7914C75.8416 31.7741 75.8382 31.7571 75.8316 31.7411C75.825 31.7252 75.8154 31.7108 75.8032 31.6986C75.791 31.6864 75.7765 31.6767 75.7606 31.6701C75.7447 31.6635 75.7276 31.6602 75.7104 31.6602C75.5028 31.67 75.3005 31.729 75.1201 31.8324C74.9398 31.9357 74.7866 32.0805 74.6731 32.2547C74.6533 32.2832 74.6452 32.3183 74.6505 32.3527C74.6559 32.387 74.6742 32.418 74.7018 32.4392C74.7211 32.4501 74.7418 32.4584 74.7633 32.4638Z" fill="#263238"/>
<path d="M79.1588 32.1851C79.1841 32.1932 79.2114 32.1932 79.2367 32.1851C79.267 32.1686 79.2895 32.1408 79.2995 32.1078C79.3095 32.0748 79.3061 32.0393 79.29 32.0088C79.1935 31.8233 79.0536 31.6638 78.8823 31.5439C78.711 31.4239 78.5133 31.3471 78.306 31.32C78.2889 31.3176 78.2714 31.319 78.2549 31.3238C78.2383 31.3287 78.2229 31.337 78.2097 31.3483C78.1966 31.3595 78.186 31.3734 78.1785 31.389C78.1711 31.4046 78.167 31.4216 78.1666 31.4388C78.1653 31.4728 78.1768 31.5059 78.1989 31.5317C78.2209 31.5576 78.2518 31.5742 78.2855 31.5783C78.4486 31.6045 78.6033 31.6687 78.7371 31.7655C78.871 31.8623 78.9803 31.9892 79.0563 32.1359C79.0682 32.1517 79.0837 32.1644 79.1015 32.173C79.1194 32.1816 79.139 32.1857 79.1588 32.1851Z" fill="#263238"/>
<path d="M73.2258 29.1592L73.4923 30.3482C73.2979 30.4655 73.1549 30.6518 73.0918 30.8699C73.0287 31.088 73.0502 31.3219 73.152 31.5249C73.6399 32.5007 73.2217 34.1325 72.5042 34.8336C72.5042 34.8336 72.4386 34.399 72.0942 34.5384C71.7498 34.6778 72.0614 36.9574 72.8937 37.9783C71.8602 37.0508 71.0847 35.8713 70.6428 34.5548C69.8515 32.39 69.8228 30.75 70.1713 29.8439L73.2258 29.1592Z" fill="#263238"/>
<path d="M70.3025 34.9977C70.6407 35.5976 71.2021 36.0397 71.8646 36.2277C72.7461 36.4737 73.1889 35.6865 72.947 34.8501C72.7256 34.1121 71.9999 33.0666 71.1102 33.2101C70.9174 33.2393 70.735 33.3163 70.5796 33.4341C70.4241 33.5518 70.3006 33.7066 70.2203 33.8843C70.1401 34.062 70.1055 34.257 70.1199 34.4515C70.1342 34.6459 70.197 34.8337 70.3025 34.9977Z" fill="#EBB376"/>
<path d="M73.4927 30.3402C73.4927 30.3402 76.4611 31.3939 78.1503 29.8277C79.8395 28.2615 77.8879 26.1377 77.8879 26.1377C77.4787 26.56 76.9318 26.8219 76.3463 26.8757C75.3992 26.9413 73.2139 26.3714 71.455 27.2857C69.6961 28.2 69.036 30.7174 70.635 31.8654L73.4927 30.3402Z" fill="#263238"/>
<path d="M75.8501 35.7603C76.0035 35.9953 76.2295 36.1739 76.4938 36.2686C76.758 36.3633 77.046 36.3691 77.3138 36.2851" stroke="#263238" stroke-width="0.5" stroke-linecap="round" stroke-linejoin="round"/>
<path d="M78.3876 42.6399L77.9776 44.5874C77.9776 44.5874 80.2449 54.0461 80.7328 58.9374L79.9128 59.7574L78.6131 58.9374C78.6131 58.9374 78.4983 48.9457 77.3503 44.7473L75.3003 43.0622L76.9403 42.5415L78.3876 42.6399Z" fill="#006F98"/>
<path d="M72.8405 40.2251L76.7724 41.9963L77.0019 40.5777L78.4492 41.0861C78.6986 41.1744 78.9114 41.3432 79.0539 41.566C79.1965 41.7888 79.2607 42.0527 79.2364 42.3161L79.0725 43.8782L77.0799 42.7958L76.0836 44.2021L71.3604 41.9266L72.8405 40.2251Z" fill="#006F98"/>
<path opacity="0.7" d="M72.8405 40.2251L76.7724 41.9963L77.0019 40.5777L78.4492 41.0861C78.6986 41.1744 78.9114 41.3432 79.0539 41.566C79.1965 41.7888 79.2607 42.0527 79.2364 42.3161L79.0725 43.8782L77.0799 42.7958L76.0836 44.2021L71.3604 41.9266L72.8405 40.2251Z" fill="white"/>
<path d="M83.3077 41.4553L78.7198 41.2339C79.5111 44.9239 79.3594 54.3252 79.3594 54.3252C75.1651 44.7025 71.4546 41.6849 71.4546 41.6849L66.8667 42.7837C67.0635 45.3093 68.0557 52.8246 68.7691 58.0644C71.2492 59.6145 74.1 60.4703 77.0237 60.5424C79.9475 60.6145 82.837 59.9003 85.3905 58.4744C85.7513 46.8878 83.3077 41.4553 83.3077 41.4553Z" fill="#263238"/>
<path opacity="0.1" d="M85.4278 54.5302C85.2064 45.6537 83.3081 41.4676 83.3081 41.4676L78.7202 41.2339C79.3967 44.3991 79.3803 51.7791 79.3639 53.8045C79.3639 54.1366 79.3639 54.3211 79.3639 54.3211L79.1261 53.7758C75.0261 44.5877 71.4632 41.6808 71.4632 41.6808L71.1475 41.7587L66.8794 42.7837C66.9901 44.2146 67.355 47.2445 67.7773 50.5737C67.9167 51.6274 68.0561 52.7057 68.1873 53.7717C68.3185 54.8377 68.4579 55.7766 68.5973 56.7237C68.6588 57.1911 68.7203 57.6421 68.7818 58.0808C71.263 59.632 74.1152 60.4884 77.0405 60.5606C79.9658 60.6327 82.8568 59.9179 85.4114 58.4908C85.4114 58.2981 85.4114 58.0808 85.4319 57.9045C85.4538 56.6991 85.4524 55.5743 85.4278 54.5302Z" fill="white"/>
<path opacity="0.2" d="M81.057 45.5348L82.1189 47.4044C82.1189 47.4044 81.016 54.604 79.2489 57.1091V55.6208L72.3855 47.7078L73.6155 45.8054L70.52 46.4122C70.52 46.4122 70.233 43.5422 71.1514 41.7587L71.4671 41.6849C71.4671 41.6849 75.1776 44.7066 79.3678 54.3252C79.3678 54.3252 79.5236 44.9198 78.7323 41.2339C78.7323 41.2339 80.9176 42.4188 82.4756 45.5348H81.057Z" fill="white"/>
<path opacity="0.2" d="M85.4315 57.8714C85.4507 56.6851 85.4507 55.5672 85.4315 54.5176L79.3799 53.8042L79.1339 53.7755L75.3045 53.3245L70.2287 47.1499L68.1992 53.7509C68.3386 54.7595 68.4698 55.7558 68.6092 56.7029C68.6707 57.1703 68.7322 57.6213 68.7937 58.06C70.5992 59.1901 72.6095 59.9536 74.71 60.3068C76.796 59.2988 78.8195 58.1666 80.7698 56.9161C82.705 57.3999 84.2712 57.6951 85.4315 57.8714Z" fill="black"/>
<path d="M83.3078 41.459C83.8433 43.1473 84.28 44.8654 84.6157 46.6045C84.911 48.1267 85.1245 49.6637 85.2553 51.2088L75.9647 54.3248L75.5547 56.0919C75.5547 56.0919 83.9146 57.1046 88.4779 56.2395C89.5232 55.2764 90.4396 54.1822 91.2044 52.9841C90.1999 48.8882 85.0995 41.8772 83.3078 41.459Z" fill="#263238"/>
<path opacity="0.1" d="M83.3079 41.4551C83.8034 43.0018 84.214 44.5744 84.5379 46.166C84.5707 46.3136 84.5994 46.4571 84.6281 46.6047C84.921 48.1273 85.1345 49.6642 85.2677 51.209L79.212 53.2385L75.973 54.3209L75.563 56.088C75.563 56.088 76.8422 56.2479 78.6749 56.3832C79.7901 56.4693 81.1062 56.5431 82.4674 56.5759C84.4783 56.6614 86.4928 56.5501 88.4821 56.2438C89.5287 55.2807 90.4465 54.1866 91.2127 52.9884C90.2 48.8884 85.0996 41.8774 83.3079 41.4551Z" fill="white"/>
<path opacity="0.2" d="M87.9408 51.1803C86.3637 53.2176 84.52 55.0338 82.4591 56.58C81.0979 56.5472 79.7818 56.4734 78.6666 56.3873C78.4631 55.7235 78.3662 55.0315 78.3796 54.3373L79.1996 53.2549L85.2553 51.2254C85.1222 49.6806 84.9087 48.1437 84.6157 46.6211C84.587 46.4735 84.5583 46.33 84.5255 46.1824L84.5583 46.1455C84.5583 46.1455 87.2643 48.1996 87.9408 51.1803Z" fill="black"/>
<path d="M76.8874 53.3453C76.8874 53.3453 75.0383 51.857 74.3167 51.6315C73.5951 51.406 72.1929 52.4884 72.1929 52.4884L73.9969 55.0632L76.8874 53.3453Z" fill="#EBB376"/>
<path d="M85.1897 53.0294L87.9408 51.1803C87.9408 51.1803 85.8662 49.692 85.5956 49.6469C85.325 49.6018 83.9556 51.1803 83.9556 51.1803L85.1897 53.0294Z" fill="#EBB376"/>
<path d="M66.8835 42.7835C64.2062 44.0955 68.0356 56.8014 71.3566 59.3844C74.6776 61.9674 85.9444 53.0089 85.9444 53.0089L84.2429 50.6227C84.2429 50.6227 75.4402 53.71 74.284 53.4066C73.1278 53.1032 70.02 46.5145 69.0073 44.9893C68.341 44.0233 67.4878 43.2007 66.4981 42.5703" fill="#263238"/>
<path opacity="0.1" d="M66.8835 42.7835C64.2062 44.0955 68.0356 56.8014 71.3566 59.3844C74.6776 61.9674 85.9444 53.0089 85.9444 53.0089L84.2429 50.6227C84.2429 50.6227 75.4402 53.71 74.284 53.4066C73.1278 53.1032 70.02 46.5145 69.0073 44.9893C68.341 44.0233 67.4878 43.2007 66.4981 42.5703" fill="white"/>
<path d="M116.001 36.6132H100.786C100.266 36.6121 99.7667 36.4048 99.3987 36.0367C99.0306 35.6687 98.8233 35.1698 98.8223 34.6493C98.8234 34.1291 99.0307 33.6306 99.3989 33.2632C99.7671 32.8958 100.266 32.6895 100.786 32.6895H116.001C116.521 32.6895 117.02 32.8959 117.387 33.2635C117.755 33.631 117.961 34.1295 117.961 34.6493C117.961 35.1694 117.755 35.6683 117.387 36.0365C117.02 36.4047 116.521 36.6121 116.001 36.6132Z" fill="#006F98"/>
<path d="M122.934 41.2542H99.5645C99.3644 41.2542 99.1725 41.1747 99.031 41.0333C98.8895 40.8918 98.8101 40.6999 98.8101 40.4998C98.8101 40.4009 98.8296 40.303 98.8676 40.2117C98.9055 40.1205 98.9612 40.0376 99.0313 39.9678C99.1014 39.8981 99.1846 39.8429 99.2761 39.8055C99.3676 39.768 99.4656 39.749 99.5645 39.7495H122.934C123.033 39.749 123.131 39.768 123.223 39.8055C123.314 39.8429 123.398 39.8981 123.468 39.9678C123.538 40.0376 123.593 40.1205 123.631 40.2117C123.669 40.303 123.689 40.4009 123.689 40.4998C123.689 40.6999 123.609 40.8918 123.468 41.0333C123.326 41.1747 123.135 41.2542 122.934 41.2542Z" fill="#006F98"/>
<path d="M113.025 44.7557H99.5767C99.4778 44.7562 99.3798 44.7372 99.2883 44.6997C99.1968 44.6623 99.1136 44.6071 99.0435 44.5374C98.9734 44.4676 98.9177 44.3847 98.8798 44.2934C98.8418 44.2022 98.8223 44.1043 98.8223 44.0054C98.8223 43.8053 98.9017 43.6134 99.0432 43.4719C99.1847 43.3305 99.3766 43.251 99.5767 43.251H113.025C113.124 43.251 113.221 43.2705 113.313 43.3085C113.404 43.3464 113.487 43.4021 113.557 43.4722C113.626 43.5423 113.682 43.6255 113.719 43.717C113.757 43.8085 113.776 43.9065 113.775 44.0054C113.775 44.1039 113.756 44.2015 113.718 44.2925C113.68 44.3835 113.625 44.4662 113.555 44.5359C113.486 44.6056 113.403 44.6609 113.312 44.6986C113.221 44.7363 113.123 44.7557 113.025 44.7557Z" fill="#006F98"/>
<path opacity="0.2" d="M106.563 53.9809H100.651C100.41 53.9826 100.171 53.9365 99.9474 53.8453C99.7241 53.7541 99.5211 53.6197 99.35 53.4497C99.1789 53.2798 99.0431 53.0776 98.9504 52.855C98.8578 52.6323 98.8101 52.3935 98.8101 52.1523C98.8101 51.6674 99.0027 51.2022 99.3456 50.8593C99.6886 50.5164 100.154 50.3237 100.639 50.3237H106.551C106.791 50.3232 107.029 50.3701 107.251 50.4618C107.473 50.5535 107.675 50.6882 107.845 50.8581C108.015 51.028 108.15 51.2298 108.241 51.4519C108.333 51.674 108.38 51.912 108.379 52.1523C108.379 52.6352 108.189 53.0984 107.848 53.441C107.508 53.7836 107.046 53.9777 106.563 53.9809Z" fill="black"/>
<path d="M85.4686 65.4814H58.7612V132.406H85.4686V65.4814Z" fill="#006F98"/>
<g opacity="0.3">
<path d="M78.4537 83.1605H63.2837C63.1846 83.1605 63.0865 83.141 62.995 83.103C62.9035 83.0651 62.8203 83.0096 62.7503 82.9395C62.6802 82.8695 62.6246 82.7863 62.5867 82.6948C62.5488 82.6032 62.5293 82.5051 62.5293 82.4061C62.5293 82.3072 62.5488 82.2093 62.5868 82.118C62.6248 82.0267 62.6804 81.9438 62.7505 81.8741C62.8206 81.8043 62.9038 81.7492 62.9953 81.7117C63.0868 81.6742 63.1848 81.6552 63.2837 81.6558H78.4537C78.5526 81.6552 78.6506 81.6742 78.7421 81.7117C78.8336 81.7492 78.9168 81.8043 78.9869 81.8741C79.057 81.9438 79.1126 82.0267 79.1506 82.118C79.1886 82.2093 79.2081 82.3072 79.2081 82.4061C79.2081 82.6062 79.1286 82.798 78.9871 82.9395C78.8457 83.081 78.6538 83.1605 78.4537 83.1605Z" fill="white"/>
<path d="M72.6439 86.6619H63.2959C63.0958 86.6619 62.9039 86.5825 62.7625 86.441C62.621 86.2995 62.5415 86.1076 62.5415 85.9075C62.5415 85.8087 62.561 85.7107 62.599 85.6195C62.637 85.5282 62.6926 85.4453 62.7627 85.3755C62.8328 85.3058 62.916 85.2506 63.0075 85.2132C63.099 85.1757 63.197 85.1567 63.2959 85.1572H72.6439C72.8433 85.1572 73.0345 85.2361 73.1759 85.3767C73.3173 85.5173 73.3972 85.7082 73.3983 85.9075C73.3983 86.1076 73.3188 86.2995 73.1774 86.441C73.0359 86.5825 72.844 86.6619 72.6439 86.6619Z" fill="white"/>
</g>
<g opacity="0.3">
<path d="M74.3537 93.6361H63.2837C63.0836 93.6361 62.8917 93.5566 62.7503 93.4151C62.6088 93.2736 62.5293 93.0817 62.5293 92.8817C62.5293 92.7828 62.5488 92.6849 62.5868 92.5936C62.6248 92.5023 62.6804 92.4194 62.7505 92.3497C62.8206 92.2799 62.9038 92.2248 62.9953 92.1873C63.0868 92.1498 63.1848 92.1308 63.2837 92.1314H74.3537C74.4526 92.1308 74.5506 92.1498 74.6421 92.1873C74.7336 92.2248 74.8168 92.2799 74.8869 92.3497C74.957 92.4194 75.0126 92.5023 75.0506 92.5936C75.0886 92.6849 75.1081 92.7828 75.1081 92.8817C75.1081 93.0817 75.0286 93.2736 74.8871 93.4151C74.7457 93.5566 74.5538 93.6361 74.3537 93.6361Z" fill="white"/>
<path d="M76.7439 97.1375H63.2959C63.197 97.1381 63.099 97.119 63.0075 97.0816C62.916 97.0441 62.8328 96.9889 62.7627 96.9192C62.6926 96.8495 62.637 96.7666 62.599 96.6753C62.561 96.584 62.5415 96.4861 62.5415 96.3872C62.5415 96.1871 62.621 95.9952 62.7625 95.8538C62.9039 95.7123 63.0958 95.6328 63.2959 95.6328H76.7439C76.944 95.6328 77.1359 95.7123 77.2773 95.8538C77.4188 95.9952 77.4983 96.1871 77.4983 96.3872C77.4972 96.5866 77.4173 96.7774 77.2759 96.918C77.1345 97.0586 76.9433 97.1375 76.7439 97.1375Z" fill="white"/>
</g>
<g opacity="0.3">
<path d="M78.4537 104.112H63.2837C63.1848 104.112 63.0868 104.093 62.9953 104.056C62.9038 104.018 62.8206 103.963 62.7505 103.893C62.6804 103.824 62.6248 103.741 62.5868 103.649C62.5488 103.558 62.5293 103.46 62.5293 103.361C62.5293 103.161 62.6088 102.969 62.7503 102.828C62.8917 102.686 63.0836 102.607 63.2837 102.607H78.4537C78.6538 102.607 78.8457 102.686 78.9871 102.828C79.1286 102.969 79.2081 103.161 79.2081 103.361C79.2081 103.46 79.1886 103.558 79.1506 103.649C79.1126 103.741 79.057 103.824 78.9869 103.893C78.9168 103.963 78.8336 104.018 78.7421 104.056C78.6506 104.093 78.5526 104.112 78.4537 104.112Z" fill="white"/>
<path d="M68.5439 107.617H63.2959C63.0958 107.617 62.9039 107.538 62.7625 107.396C62.621 107.255 62.5415 107.063 62.5415 106.863C62.5415 106.764 62.561 106.666 62.599 106.575C62.637 106.483 62.6926 106.4 62.7627 106.331C62.8328 106.261 62.916 106.206 63.0075 106.168C63.099 106.131 63.197 106.112 63.2959 106.112H68.5439C68.7433 106.112 68.9345 106.191 69.0759 106.332C69.2173 106.472 69.2972 106.663 69.2983 106.863C69.2972 107.062 69.2174 107.254 69.0762 107.395C68.9349 107.536 68.7437 107.616 68.5439 107.617Z" fill="white"/>
</g>
<g opacity="0.3">
<path d="M70.2537 114.591H63.2837C63.1846 114.591 63.0865 114.572 62.995 114.534C62.9035 114.496 62.8203 114.44 62.7503 114.37C62.6802 114.3 62.6246 114.217 62.5867 114.125C62.5488 114.034 62.5293 113.936 62.5293 113.837C62.5293 113.738 62.5488 113.64 62.5868 113.549C62.6248 113.457 62.6804 113.374 62.7505 113.305C62.8206 113.235 62.9038 113.18 62.9953 113.142C63.0868 113.105 63.1848 113.086 63.2837 113.086H70.2537C70.3526 113.086 70.4506 113.105 70.5421 113.142C70.6336 113.18 70.7168 113.235 70.7869 113.305C70.857 113.374 70.9126 113.457 70.9506 113.549C70.9886 113.64 71.0081 113.738 71.0081 113.837C71.0081 113.936 70.9886 114.034 70.9507 114.125C70.9128 114.217 70.8572 114.3 70.7871 114.37C70.7171 114.44 70.6339 114.496 70.5424 114.534C70.4509 114.572 70.3528 114.591 70.2537 114.591Z" fill="white"/>
</g>
<path opacity="0.3" d="M86.9854 132.41H126.993L126.993 65.4854H86.9854V132.41Z" fill="white"/>
<g opacity="0.2">
<path d="M93.2953 72.6811H104.365C104.469 72.6887 104.573 72.6749 104.671 72.6406C104.769 72.6062 104.858 72.5521 104.934 72.4815C105.01 72.4108 105.071 72.3253 105.112 72.2302C105.154 72.1351 105.175 72.0325 105.175 71.9287C105.175 71.825 105.154 71.7223 105.112 71.6272C105.071 71.5321 105.01 71.4466 104.934 71.376C104.858 71.3054 104.769 71.2512 104.671 71.2168C104.573 71.1825 104.469 71.1687 104.365 71.1764H93.2953C93.1919 71.1687 93.0879 71.1825 92.99 71.2168C92.8921 71.2512 92.8024 71.3054 92.7263 71.376C92.6503 71.4466 92.5897 71.5321 92.5482 71.6272C92.5068 71.7223 92.4854 71.825 92.4854 71.9287C92.4854 72.0325 92.5068 72.1351 92.5482 72.2302C92.5897 72.3253 92.6503 72.4108 92.7263 72.4815C92.8024 72.5521 92.8921 72.6062 92.99 72.6406C93.0879 72.6749 93.1919 72.6887 93.2953 72.6811Z" fill="black"/>
<path d="M119.113 78.86H98.203C98.0996 78.8523 97.9956 78.8661 97.8977 78.9004C97.7998 78.9348 97.7101 78.989 97.6341 79.0596C97.558 79.1302 97.4974 79.2157 97.4559 79.3108C97.4145 79.4059 97.3931 79.5086 97.3931 79.6123C97.3931 79.7161 97.4145 79.8187 97.4559 79.9138C97.4974 80.0089 97.558 80.0944 97.6341 80.1651C97.7101 80.2357 97.7998 80.2898 97.8977 80.3242C97.9956 80.3585 98.0996 80.3723 98.203 80.3647H119.113C119.217 80.3723 119.32 80.3585 119.418 80.3242C119.516 80.2898 119.606 80.2357 119.682 80.1651C119.758 80.0944 119.819 80.0089 119.86 79.9138C119.902 79.8187 119.923 79.7161 119.923 79.6123C119.923 79.5086 119.902 79.4059 119.86 79.3108C119.819 79.2157 119.758 79.1302 119.682 79.0596C119.606 78.989 119.516 78.9348 119.418 78.9004C119.32 78.8661 119.217 78.8523 119.113 78.86Z" fill="black"/>
<path d="M93.2953 83.8656H119.043C119.233 83.8516 119.411 83.7662 119.54 83.6267C119.67 83.4871 119.742 83.3037 119.742 83.1133C119.742 82.9228 119.67 82.7394 119.54 82.5999C119.411 82.4603 119.233 82.375 119.043 82.3609H93.2953C93.1919 82.3533 93.0879 82.3671 92.99 82.4014C92.8921 82.4358 92.8024 82.4899 92.7263 82.5605C92.6503 82.6312 92.5897 82.7167 92.5482 82.8118C92.5068 82.9069 92.4854 83.0095 92.4854 83.1133C92.4854 83.217 92.5068 83.3197 92.5482 83.4148C92.5897 83.5099 92.6503 83.5954 92.7263 83.666C92.8024 83.7366 92.8921 83.7908 92.99 83.8252C93.0879 83.8595 93.1919 83.8733 93.2953 83.8656Z" fill="black"/>
<path d="M119.113 86.5392H93.2831C93.1797 86.5315 93.0757 86.5453 92.9778 86.5796C92.8799 86.614 92.7901 86.6682 92.7141 86.7388C92.6381 86.8094 92.5775 86.8949 92.536 86.99C92.4945 87.0851 92.4731 87.1878 92.4731 87.2915C92.4731 87.3953 92.4945 87.4979 92.536 87.593C92.5775 87.6881 92.6381 87.7736 92.7141 87.8442C92.7901 87.9149 92.8799 87.969 92.9778 88.0034C93.0757 88.0377 93.1797 88.0515 93.2831 88.0439H119.113C119.217 88.0515 119.321 88.0377 119.418 88.0034C119.516 87.969 119.606 87.9149 119.682 87.8442C119.758 87.7736 119.819 87.6881 119.86 87.593C119.902 87.4979 119.923 87.3953 119.923 87.2915C119.923 87.1878 119.902 87.0851 119.86 86.99C119.819 86.8949 119.758 86.8094 119.682 86.7388C119.606 86.6682 119.516 86.614 119.418 86.5796C119.321 86.5453 119.217 86.5315 119.113 86.5392Z" fill="black"/>
<path d="M93.2953 91.5492H119.043C119.233 91.5352 119.411 91.4498 119.54 91.3103C119.67 91.1708 119.742 90.9873 119.742 90.7969C119.742 90.6064 119.67 90.423 119.54 90.2835C119.411 90.1439 119.233 90.0586 119.043 90.0445H93.2953C93.1919 90.0369 93.0879 90.0507 92.99 90.085C92.8921 90.1194 92.8024 90.1735 92.7263 90.2441C92.6503 90.3147 92.5897 90.4003 92.5482 90.4954C92.5068 90.5905 92.4854 90.6931 92.4854 90.7969C92.4854 90.9006 92.5068 91.0033 92.5482 91.0984C92.5897 91.1935 92.6503 91.279 92.7263 91.3496C92.8024 91.4202 92.8921 91.4744 92.99 91.5087C93.0879 91.5431 93.1919 91.5569 93.2953 91.5492Z" fill="black"/>
<path d="M119.113 94.2223H93.2831C93.1797 94.2146 93.0757 94.2284 92.9778 94.2628C92.8799 94.2971 92.7901 94.3513 92.7141 94.4219C92.6381 94.4925 92.5775 94.578 92.536 94.6731C92.4945 94.7682 92.4731 94.8709 92.4731 94.9746C92.4731 95.0784 92.4945 95.181 92.536 95.2761C92.5775 95.3712 92.6381 95.4568 92.7141 95.5274C92.7901 95.598 92.8799 95.6521 92.9778 95.6865C93.0757 95.7208 93.1797 95.7346 93.2831 95.727H119.113C119.217 95.7346 119.321 95.7208 119.418 95.6865C119.516 95.6521 119.606 95.598 119.682 95.5274C119.758 95.4568 119.819 95.3712 119.86 95.2761C119.902 95.181 119.923 95.0784 119.923 94.9746C119.923 94.8709 119.902 94.7682 119.86 94.6731C119.819 94.578 119.758 94.4925 119.682 94.4219C119.606 94.3513 119.516 94.2971 119.418 94.2628C119.321 94.2284 119.217 94.2146 119.113 94.2223Z" fill="black"/>
<path d="M93.2953 99.2201H113.303C113.493 99.2061 113.671 99.1207 113.8 98.9812C113.93 98.8417 114.002 98.6582 114.002 98.4678C114.002 98.2773 113.93 98.0939 113.8 97.9544C113.671 97.8148 113.493 97.7295 113.303 97.7154H93.2953C93.1919 97.7078 93.0879 97.7216 92.99 97.7559C92.8921 97.7903 92.8024 97.8444 92.7263 97.915C92.6503 97.9857 92.5897 98.0712 92.5482 98.1663C92.5068 98.2614 92.4854 98.364 92.4854 98.4678C92.4854 98.5715 92.5068 98.6742 92.5482 98.7693C92.5897 98.8644 92.6503 98.9499 92.7263 99.0205C92.8024 99.0911 92.8921 99.1453 92.99 99.1797C93.0879 99.214 93.1919 99.2278 93.2953 99.2201Z" fill="black"/>
<path d="M98.2153 106.908H119.043C119.233 106.894 119.411 106.808 119.54 106.669C119.67 106.529 119.742 106.346 119.742 106.155C119.742 105.965 119.67 105.781 119.54 105.642C119.411 105.502 119.233 105.417 119.043 105.403H98.2153C98.1118 105.395 98.0078 105.409 97.9099 105.443C97.812 105.478 97.7223 105.532 97.6463 105.603C97.5702 105.673 97.5096 105.759 97.4681 105.854C97.4267 105.949 97.4053 106.052 97.4053 106.155C97.4053 106.259 97.4267 106.362 97.4681 106.457C97.5096 106.552 97.5702 106.637 97.6463 106.708C97.7223 106.779 97.812 106.833 97.9099 106.867C98.0078 106.902 98.1118 106.915 98.2153 106.908Z" fill="black"/>
<path d="M119.113 109.585H93.2831C93.1797 109.577 93.0757 109.591 92.9778 109.626C92.8799 109.66 92.7901 109.714 92.7141 109.785C92.6381 109.855 92.5775 109.941 92.536 110.036C92.4945 110.131 92.4731 110.234 92.4731 110.337C92.4731 110.441 92.4945 110.544 92.536 110.639C92.5775 110.734 92.6381 110.82 92.7141 110.89C92.7901 110.961 92.8799 111.015 92.9778 111.049C93.0757 111.084 93.1797 111.097 93.2831 111.09H119.113C119.217 111.097 119.321 111.084 119.418 111.049C119.516 111.015 119.606 110.961 119.682 110.89C119.758 110.82 119.819 110.734 119.86 110.639C119.902 110.544 119.923 110.441 119.923 110.337C119.923 110.234 119.902 110.131 119.86 110.036C119.819 109.941 119.758 109.855 119.682 109.785C119.606 109.714 119.516 109.66 119.418 109.626C119.321 109.591 119.217 109.577 119.113 109.585Z" fill="black"/>
<path d="M93.2953 114.591H119.043C119.233 114.577 119.411 114.492 119.54 114.352C119.67 114.213 119.742 114.029 119.742 113.839C119.742 113.648 119.67 113.465 119.54 113.325C119.411 113.186 119.233 113.101 119.043 113.087H93.2953C93.1919 113.079 93.0879 113.093 92.99 113.127C92.8921 113.161 92.8024 113.216 92.7263 113.286C92.6503 113.357 92.5897 113.442 92.5482 113.537C92.5068 113.632 92.4854 113.735 92.4854 113.839C92.4854 113.943 92.5068 114.045 92.5482 114.14C92.5897 114.235 92.6503 114.321 92.7263 114.392C92.8024 114.462 92.8921 114.516 92.99 114.551C93.0879 114.585 93.1919 114.599 93.2953 114.591Z" fill="black"/>
</g>
<g opacity="0.3">
<path d="M74.3537 72.681H63.2837C63.1848 72.6815 63.0868 72.6625 62.9953 72.625C62.9038 72.5876 62.8206 72.5324 62.7505 72.4627C62.6804 72.3929 62.6248 72.31 62.5868 72.2187C62.5488 72.1274 62.5293 72.0295 62.5293 71.9307C62.5293 71.8316 62.5488 71.7335 62.5867 71.642C62.6246 71.5504 62.6802 71.4673 62.7503 71.3972C62.8203 71.3272 62.9035 71.2716 62.995 71.2337C63.0865 71.1958 63.1846 71.1763 63.2837 71.1763H74.3537C74.5538 71.1763 74.7457 71.2557 74.8871 71.3972C75.0286 71.5387 75.1081 71.7306 75.1081 71.9307C75.1081 72.0295 75.0886 72.1274 75.0506 72.2187C75.0126 72.31 74.957 72.3929 74.8869 72.4627C74.8168 72.5324 74.7336 72.5876 74.6421 72.625C74.5506 72.6625 74.4526 72.6815 74.3537 72.681Z" fill="white"/>
<path d="M68.5439 76.1864H63.2959C63.0958 76.1864 62.9039 76.1069 62.7625 75.9654C62.621 75.8239 62.5415 75.632 62.5415 75.432C62.5415 75.3331 62.561 75.2352 62.599 75.1439C62.637 75.0526 62.6926 74.9697 62.7627 74.9C62.8328 74.8302 62.916 74.7751 63.0075 74.7376C63.099 74.7001 63.197 74.6811 63.2959 74.6817H68.5439C68.7433 74.6838 68.9337 74.7648 69.0735 74.9069C69.2133 75.0491 69.2912 75.2408 69.2901 75.4402C69.2869 75.6371 69.2073 75.825 69.068 75.9643C68.9288 76.1035 68.7408 76.1832 68.5439 76.1864Z" fill="white"/>
</g>
<path d="M162.729 51.6026L163.729 49.7863L166.304 46.043L166.788 42.9434C166.788 42.9434 169.043 43.7634 169.412 44.4317C169.781 45.1 169.609 48.4087 169.412 48.8146C169.215 49.2205 166.891 50.8154 166.891 50.8154L165.661 53.1934L162.729 51.6026Z" fill="#EBB376"/>
<path d="M151.314 38.5767C151.314 38.5767 159.646 51.6598 160.621 52.8324C161.597 54.005 162.671 49.7861 162.671 49.7861L166.886 51.6229C166.886 51.6229 165.697 59.622 162.454 59.9459C159.211 60.2698 152.29 51.7459 152.29 51.7459L151.314 38.5767Z" fill="#263238"/>
<path opacity="0.1" d="M166.89 51.6229C166.89 51.6229 165.701 59.622 162.458 59.95C160.839 60.1099 158.297 58.0599 156.165 55.9648C154.033 53.8697 152.294 51.7336 152.294 51.7336L151.958 47.2236L151.314 38.5562C151.314 38.5562 159.646 51.6393 160.621 52.8119C161.597 53.9845 162.671 49.7656 162.671 49.7656L166.89 51.6229Z" fill="white"/>
<path opacity="0.2" d="M156.165 55.9648C154.029 53.8697 152.295 51.7336 152.295 51.7336L151.958 47.2236C154.402 49.5109 155.902 52.6285 156.165 55.9648Z" fill="black"/>
<path d="M135.189 108.744V104.685C135.189 104.618 135.166 104.553 135.124 104.501C135.083 104.449 135.025 104.413 134.959 104.398L132.02 103.73C131.957 103.716 131.891 103.715 131.827 103.726C131.764 103.738 131.703 103.761 131.648 103.797C131.594 103.832 131.547 103.877 131.51 103.93C131.473 103.984 131.447 104.044 131.433 104.107C131.429 104.144 131.429 104.181 131.433 104.218C131.433 105.53 131.524 106.485 131.515 108.133C131.515 109.15 131.388 112.213 131.384 113.615C131.38 115.017 132.762 115.21 132.889 114.636C133.463 112.061 134.25 110.126 134.996 109.306C135.129 109.149 135.197 108.949 135.189 108.744Z" fill="#263238"/>
<path d="M153.307 71.3726L154.619 78.2483C154.619 78.2483 164.98 95.0173 164.976 104.697C164.976 116.263 134.8 109.593 134.8 109.593V104.263C134.8 104.263 152.84 105.813 154.48 104.004C156.452 101.807 144.291 84.8165 144.291 84.8165L153.307 71.3726Z" fill="#263238"/>
<path opacity="0.2" d="M164.976 104.701C164.976 111.077 155.8 111.909 147.571 111.372C143.472 111.079 139.395 110.524 135.366 109.712L134.8 109.593V104.263L135.464 104.316C137.514 104.48 143.898 104.943 148.728 104.874C151.598 104.833 153.922 104.599 154.468 104.004C155.435 102.926 152.992 98.2645 150.257 93.8201C147.424 89.2158 144.279 84.8206 144.279 84.8206L148.24 78.9248L153.315 71.3726L154.627 78.2483C154.627 78.2483 164.98 95.0173 164.976 104.701Z" fill="white"/>
<path opacity="0.2" d="M148.728 104.878L147.571 111.372C143.472 111.079 139.395 110.525 135.366 109.712L135.464 104.32C137.514 104.484 143.91 104.96 148.728 104.878Z" fill="black"/>
<path opacity="0.2" d="M148.248 86.2799C148.248 86.2799 149.933 90.2446 150.249 93.8198C147.416 89.2155 144.271 84.8203 144.271 84.8203L148.232 78.9245L150.318 78.248C150.318 78.248 150.782 80.954 148.248 86.2799Z" fill="black"/>
<path d="M135.23 71.5938C135.23 71.5938 134.332 74.9599 135.23 90.3923C136.616 114.086 141.007 145.628 141.007 145.628L146.112 144.701C146.112 144.701 145.46 97.5181 146.148 84.4965C146.148 84.4965 153.364 78.0226 153.307 71.3765C153.25 64.7304 135.23 71.5938 135.23 71.5938Z" fill="#263238"/>
<path opacity="0.2" d="M135.23 71.5938C135.23 71.5938 134.332 74.9599 135.23 90.3923C136.616 114.086 141.007 145.628 141.007 145.628L146.112 144.701C146.112 144.701 145.46 97.5181 146.148 84.4965C146.148 84.4965 153.364 78.0226 153.307 71.3765C153.25 64.7304 135.23 71.5938 135.23 71.5938Z" fill="white"/>
<path d="M153.082 69.4658H135.23V71.5937L153.311 71.3723L153.082 69.4658Z" fill="#263238"/>
<path d="M140.97 72.2827H141.606V68.5107H140.97V72.2827Z" fill="#263238"/>
<path d="M150.003 72.2827H150.638V68.5107H150.003V72.2827Z" fill="#263238"/>
<path d="M144.948 71.4712H148.248V69.0932H144.948V71.4712Z" fill="white"/>
<path opacity="0.2" d="M140.97 72.2827H141.606V68.5107H140.97V72.2827Z" fill="white"/>
<path opacity="0.2" d="M150.003 72.2827H150.638V68.5107H150.003V72.2827Z" fill="white"/>
<path d="M151.315 38.5768C151.315 38.5768 140.036 38.0438 131.635 40.1635C131.635 40.1635 135.345 58.8431 135.206 69.4662H153.086C153.086 69.4662 154.242 49.5402 151.315 38.5768Z" fill="#006F98"/>
<path opacity="0.6" d="M153.082 69.4663H135.206C135.206 68.3101 135.206 67.0637 135.124 65.7517C134.968 62.6849 134.62 59.286 134.197 55.9978L134.074 55.0384C133.787 52.9023 133.48 50.8359 133.18 48.9499C132.36 43.8864 131.635 40.1636 131.635 40.1636C140.036 38.0439 151.315 38.5728 151.315 38.5728C154.242 49.5403 153.082 69.4663 153.082 69.4663Z" fill="white"/>
<path d="M138.219 39.3185C139.839 40.7904 143.803 40.2451 143.803 40.2451C143.803 40.2451 146.263 39.5686 145.763 38.7937C144.304 38.5518 143.598 37.8712 143.303 36.9979C143.145 36.4582 143.095 35.8925 143.156 35.3333C143.18 35.0212 143.222 34.7105 143.279 34.4026L138.359 30.77C139.019 33.1685 139.81 37.5801 138.219 39.3185Z" fill="#EBB376"/>
<path opacity="0.2" d="M139.507 33.0786C139.704 36.0224 142.123 36.8342 143.303 36.9982C143.145 36.4585 143.095 35.8928 143.156 35.3336L139.507 33.0786Z" fill="black"/>
<path d="M136.739 23.144C136.739 23.144 135.369 27.572 137.514 29.6753C139.658 31.7786 140.921 23.3449 140.921 23.3449L136.739 23.144Z" fill="#263238"/>
<path d="M143.955 34.321C143.339 34.992 142.521 35.4421 141.624 35.6022C140.728 35.7622 139.804 35.6232 138.994 35.2066C137.935 34.6896 137.114 33.7876 136.698 32.6851C136.641 32.5375 136.591 32.3776 136.546 32.2177C135.78 29.2739 136.136 24.3744 139.33 22.9968C140.424 22.5205 141.663 22.4974 142.774 22.9323C143.885 23.3673 144.779 24.2249 145.259 25.3174C145.544 25.9613 145.672 26.6641 145.632 27.3674C145.509 30.6679 145.587 32.6072 143.955 34.321Z" fill="#EBB376"/>
<path d="M140.654 28.4006C140.679 28.663 140.523 28.8844 140.347 28.8885C140.171 28.8926 140.027 28.6753 140.019 28.4088C140.011 28.1423 140.154 27.9209 140.326 27.9209C140.499 27.9209 140.63 28.1259 140.654 28.4006Z" fill="#263238"/>
<path d="M137.625 28.4578C137.649 28.7243 137.489 28.9457 137.317 28.9498C137.145 28.9539 136.997 28.7366 136.989 28.4701C136.981 28.2036 137.124 27.9822 137.297 27.9781C137.469 27.974 137.621 28.2036 137.625 28.4578Z" fill="#263238"/>
<path d="M138.58 28.5728C138.28 29.3995 137.866 30.1806 137.35 30.8934C137.538 31.0208 137.751 31.1059 137.974 31.1427C138.198 31.1795 138.427 31.1672 138.646 31.1066L138.58 28.5728Z" fill="#D58745"/>
<path d="M141.577 27.4001C141.548 27.4039 141.519 27.4003 141.491 27.3895C141.464 27.3788 141.44 27.3612 141.421 27.3386C141.303 27.181 141.149 27.0533 140.973 26.9657C140.796 26.8782 140.602 26.8332 140.405 26.8343C140.363 26.8377 140.321 26.8246 140.289 26.7977C140.257 26.7709 140.237 26.7325 140.232 26.6908C140.231 26.6703 140.233 26.6497 140.239 26.6301C140.246 26.6106 140.256 26.5925 140.269 26.5769C140.283 26.5612 140.299 26.5484 140.317 26.5391C140.336 26.5298 140.355 26.5242 140.376 26.5227C140.625 26.5152 140.873 26.5679 141.098 26.6764C141.323 26.7849 141.518 26.9459 141.667 27.1459C141.696 27.175 141.712 27.2139 141.712 27.2545C141.712 27.2951 141.696 27.3341 141.667 27.3632C141.639 27.3799 141.609 27.3923 141.577 27.4001Z" fill="#263238"/>
<path d="M136.301 27.4408C136.271 27.4508 136.24 27.4508 136.21 27.4408C136.192 27.4328 136.174 27.4211 136.16 27.4064C136.146 27.3918 136.134 27.3744 136.127 27.3553C136.119 27.3363 136.115 27.3159 136.116 27.2954C136.116 27.2749 136.12 27.2547 136.128 27.2358C136.227 27.0058 136.38 26.8031 136.574 26.6453C136.769 26.4875 136.998 26.3792 137.244 26.3297C137.284 26.3238 137.326 26.3344 137.359 26.3589C137.392 26.3835 137.414 26.4202 137.42 26.4609C137.425 26.5015 137.414 26.5424 137.389 26.5752C137.365 26.608 137.329 26.6302 137.289 26.6372C137.096 26.6824 136.916 26.7724 136.765 26.8999C136.613 27.0274 136.493 27.1888 136.415 27.3711C136.402 27.39 136.385 27.4059 136.365 27.4179C136.346 27.4299 136.324 27.4377 136.301 27.4408Z" fill="#263238"/>
<path d="M143.135 23.3203L142.918 24.7635C143.16 24.8879 143.346 25.0986 143.439 25.3538C143.533 25.6091 143.527 25.8901 143.422 26.1411C142.922 27.3506 143.562 29.2612 144.48 30.0402C144.48 30.0402 144.521 29.5154 144.964 29.6302C145.407 29.745 145.21 32.5002 144.304 33.8081C145.458 32.612 146.283 31.1373 146.698 29.5277C147.461 26.8709 147.379 24.907 146.858 23.8574L143.135 23.3203Z" fill="#263238"/>
<path d="M147.125 30.0484C146.953 30.4243 146.709 30.7627 146.407 31.0441C146.104 31.3255 145.749 31.5445 145.362 31.6884C144.328 32.0574 143.722 31.1513 143.951 30.1345C144.156 29.2284 144.931 27.9205 146.001 27.9984C147.071 28.0763 147.543 29.1095 147.125 30.0484Z" fill="#EBB376"/>
<path d="M138.404 31.91C138.541 32.2908 138.649 32.6814 138.728 33.0785C138.799 33.0826 138.87 33.0826 138.941 33.0785C139.909 33.0334 140.343 32.6931 140.532 32.3323C140.619 32.1523 140.663 31.9542 140.659 31.7542C140.66 31.6405 140.645 31.5273 140.614 31.418C140.03 31.7121 139.389 31.8757 138.736 31.8977C138.531 31.91 138.404 31.91 138.404 31.91Z" fill="#263238"/>
<path d="M138.736 31.8894L138.838 32.2338C139.749 32.1887 140.384 32.037 140.659 31.7459C140.66 31.6322 140.644 31.519 140.614 31.4097C140.03 31.7038 139.389 31.8674 138.736 31.8894Z" fill="white"/>
<path d="M138.941 33.0704C139.909 33.0253 140.343 32.685 140.532 32.3242C140.164 32.3481 139.803 32.4369 139.466 32.5866C139.244 32.688 139.06 32.8575 138.941 33.0704Z" fill="#DE5753"/>
<path d="M142.918 24.7638C142.918 24.7638 139.462 26.2767 137.309 24.5465C135.157 22.8163 137.309 20.1226 137.309 20.1226C137.834 20.5895 138.509 20.8541 139.212 20.8688C140.347 20.8688 142.902 20.0037 145.091 20.9221C147.28 21.8405 148.273 24.8171 146.444 26.33L142.918 24.7638Z" fill="#263238"/>
<path d="M145.419 40.0033L144.947 42.3403C144.947 42.3403 147.661 53.6727 148.248 59.5603L147.256 60.5484L145.697 59.5603C145.697 59.5603 145.558 47.5883 144.185 42.5576L141.725 40.5404L143.664 39.9131L145.419 40.0033Z" fill="#006F98"/>
<path d="M138.773 37.0967L143.5 39.2205L143.779 37.519L145.509 38.1299C145.812 38.2347 146.069 38.439 146.241 38.7093C146.412 38.9796 146.487 39.3 146.452 39.6182L146.259 41.4878L143.849 40.1799L142.66 41.865L136.998 39.1385L138.773 37.0967Z" fill="#006F98"/>
<path opacity="0.7" d="M138.773 37.0967L143.5 39.2205L143.779 37.519L145.509 38.1299C145.812 38.2347 146.069 38.439 146.241 38.7093C146.412 38.9796 146.487 39.3 146.452 39.6182L146.259 41.4878L143.849 40.1799L142.66 41.865L136.998 39.1385L138.773 37.0967Z" fill="white"/>
<path d="M137.129 38.8474C137.129 38.8474 141.573 42.4636 146.596 53.9928C146.596 53.9928 146.78 42.726 145.833 38.3062L151.315 38.5727C151.315 38.5727 155.325 47.4328 153.311 66.5716L154.701 76.141L148.658 78.6707L147.264 74.2099L145.833 78.5846L134.181 77.0266L134.8 64.9439C134.8 64.9439 132.02 44.981 131.635 40.1799L137.129 38.8474Z" fill="#263238"/>
<path opacity="0.1" d="M154.701 76.145L148.658 78.6706L147.264 74.2098L145.833 78.5804L141.323 77.9777L134.173 77.0224L134.48 71.02L134.792 64.9397C134.792 64.9397 134.291 61.344 133.681 56.8381C133.365 54.5011 133.025 51.9181 132.705 49.4581C132.196 45.4893 131.758 41.8567 131.626 40.1429L136.739 38.9129L137.12 38.8227C137.12 38.8227 141.565 42.443 146.587 53.9681C146.587 53.9681 146.772 42.7013 145.825 38.2856L151.306 38.5521C151.306 38.5521 155.316 47.4081 153.303 66.551L154.701 76.145Z" fill="white"/>
<path opacity="0.2" d="M148.617 43.4597L149.888 45.7024C149.888 45.7024 148.568 54.3124 146.444 57.33V55.5465L138.219 46.0632L139.695 43.7836L136.005 44.5134C136.005 44.5134 135.661 41.0489 136.76 38.9374L137.141 38.8472C137.141 38.8472 141.585 42.4675 146.608 53.9926C146.608 53.9926 146.792 42.7258 145.845 38.3101C145.845 38.3101 148.465 39.7287 150.331 43.4597H148.617Z" fill="white"/>
<path opacity="0.2" d="M133.689 56.8505C133.373 54.5135 133.033 51.9305 132.713 49.4705L134.021 48.8022C134.021 48.8022 135.193 53.2999 133.689 56.8505Z" fill="black"/>
<path opacity="0.2" d="M141.331 77.9899L134.181 77.0346L134.488 71.0322C136.673 72.0941 140.22 74.3245 141.331 77.9899Z" fill="black"/>
<path d="M131.635 40.1797C131.635 40.1797 122.881 53.2546 123.746 60.5526C124.611 67.8506 135.226 79.7406 135.226 79.7406L138.609 77.6373C138.609 77.6373 130.122 64.6116 129.367 60.5526C128.957 58.3714 134.017 48.8225 134.017 48.8225C134.017 48.8225 133.68 42.2297 131.635 40.1797Z" fill="#263238"/>
<path opacity="0.1" d="M131.635 40.1797C131.635 40.1797 122.881 53.2546 123.746 60.5526C124.611 67.8506 135.226 79.7406 135.226 79.7406L138.609 77.6373C138.609 77.6373 130.122 64.6116 129.367 60.5526C128.957 58.3714 134.017 48.8225 134.017 48.8225C134.017 48.8225 133.68 42.2297 131.635 40.1797Z" fill="white"/>
<path d="M159.104 49.2656L159.892 38.5154L166.89 38.9992L167.719 35.5552L169.412 36.2645L165.869 48.8146L159.104 49.2656Z" fill="#006F98"/>
<path opacity="0.7" d="M159.104 49.2656L159.892 38.5154L166.89 38.9992L167.719 35.5552L169.412 36.2645L165.869 48.8146L159.104 49.2656Z" fill="white"/>
<path d="M157.674 50.8152L160.269 39.6796H167.297L169.785 35.6616L167.731 47.5762L165.242 50.1838L157.674 50.8152Z" fill="#006F98"/>
<path opacity="0.2" d="M167.296 39.6796L165.242 50.1838L167.731 47.5762L169.785 35.6616L167.296 39.6796Z" fill="black"/>
<path d="M168.403 43.6689C168.403 43.6689 167.219 44.0789 167.055 44.7677C166.891 45.4565 166.624 49.7943 166.624 49.7943C166.624 49.7943 168.461 49.3843 168.731 48.388C169.002 47.3917 168.403 43.6689 168.403 43.6689Z" fill="#EBB376"/>
</svg>
