<svg width="205" height="116" viewBox="0 0 205 116" fill="none" xmlns="http://www.w3.org/2000/svg">
<path d="M97.1699 117.412H18.003C17.3828 117.411 16.7884 117.164 16.3503 116.725C15.9121 116.286 15.666 115.691 15.666 115.071V3.78496C15.6714 3.16833 15.9199 2.57873 16.3575 2.14422C16.795 1.70972 17.3864 1.46541 18.003 1.46436H97.1699C97.7908 1.46436 98.3863 1.71101 98.8253 2.15005C99.2644 2.58909 99.511 3.18456 99.511 3.80545V115.071C99.511 115.692 99.2644 116.288 98.8253 116.727C98.3863 117.166 97.7908 117.412 97.1699 117.412ZM18.003 1.54636C17.41 1.54744 16.8417 1.78377 16.4227 2.20347C16.0038 2.62317 15.7685 3.19195 15.7685 3.78496V115.071C15.7685 115.664 16.0038 116.233 16.4227 116.653C16.8417 117.072 17.41 117.309 18.003 117.31H97.1699C97.7633 117.309 98.3321 117.073 98.7516 116.653C99.1712 116.233 99.4074 115.665 99.4085 115.071V3.78496C99.4074 3.19157 99.1712 2.62281 98.7516 2.20322C98.3321 1.78364 97.7633 1.54744 97.1699 1.54636H18.003Z" fill="#E0E0E0"/>
<path d="M185.857 117.412H106.686C106.065 117.411 105.47 117.164 105.032 116.725C104.593 116.287 104.346 115.692 104.345 115.071V3.78496C104.351 3.16795 104.601 2.57836 105.039 2.14397C105.477 1.70958 106.069 1.4654 106.686 1.46436H185.857C186.473 1.46649 187.063 1.71128 187.5 2.14566C187.936 2.58005 188.184 3.16903 188.19 3.78496V115.071C188.19 115.691 187.944 116.285 187.507 116.724C187.07 117.163 186.476 117.41 185.857 117.412ZM106.686 1.54636C106.092 1.54744 105.524 1.78364 105.104 2.20322C104.685 2.62281 104.448 3.19157 104.447 3.78496V115.071C104.448 115.665 104.685 116.233 105.104 116.653C105.524 117.073 106.092 117.309 106.686 117.31H185.857C186.45 117.309 187.019 117.073 187.439 116.653C187.858 116.233 188.094 115.665 188.095 115.071V3.78496C188.094 3.19157 187.858 2.62281 187.439 2.20322C187.019 1.78364 186.45 1.54744 185.857 1.54636H106.686Z" fill="#E0E0E0"/>
<path d="M177.953 11.415H116.166V64.5346H177.953V11.415Z" fill="#E0E0E0"/>
<path d="M179.326 11.415H117.539V64.5346H179.326V11.415Z" fill="#F0F0F0"/>
<path d="M176.862 62.0417V13.9077L120.003 13.9077V62.0417H176.862Z" fill="#FAFAFA"/>
<path d="M158.69 62.0417V13.9077H154.976V62.0417H158.69Z" fill="#E0E0E0"/>
<path d="M139.15 62.0417V13.9077H135.435V62.0417H139.15Z" fill="#E0E0E0"/>
<path d="M159.999 63.6206V12.0508H156.284V63.6206H159.999Z" fill="#F0F0F0"/>
<path d="M140.454 63.6245V12.0547H136.739V63.6245H140.454Z" fill="#F0F0F0"/>
<path d="M176.862 62.0378V13.9038H175.825V62.0378H176.862Z" fill="#E0E0E0"/>
<path d="M72.7092 53.3662C72.7092 53.3662 65.1898 40.4143 75.6243 30.0864C75.6243 30.0864 78.3467 31.8617 78.3057 34.2479C78.2647 36.6341 75.3865 37.2368 76.0056 39.2294C76.6247 41.222 79.3348 43.1695 77.5554 44.8177C75.776 46.4659 77.8424 47.9255 77.7235 49.9427C77.6046 51.9599 72.7092 53.3662 72.7092 53.3662Z" fill="#E0E0E0"/>
<path d="M73.8901 55.4859C73.8901 55.4859 76.9405 40.8161 63.7877 34.3135C63.7877 34.3135 61.7623 36.8555 62.5577 39.1064C63.3531 41.3573 66.2682 41.0211 66.3092 43.108C66.3502 45.1949 64.3945 47.9009 66.6003 48.9013C68.8061 49.9017 67.3096 51.9435 68.0599 53.8213C68.8102 55.6991 73.8901 55.4859 73.8901 55.4859Z" fill="#E6E6E6"/>
<path d="M67.1948 51.7593C67.1948 51.7593 67.326 64.4242 72.3895 64.4242C77.453 64.4242 77.5801 51.7593 77.5801 51.7593H67.1948Z" fill="#F0F0F0"/>
<path d="M36.7729 59.6597C36.7729 59.6597 37.0558 64.4239 47.8675 64.4239C58.6792 64.4239 58.9663 59.6597 58.9663 59.6597H36.7729Z" fill="#E6E6E6"/>
<path d="M150.757 88.3843H145.05C144.339 88.3843 143.763 88.9607 143.763 89.6717V99.1099C143.763 99.8209 144.339 100.397 145.05 100.397H150.757C151.468 100.397 152.045 99.8209 152.045 99.1099V89.6717C152.045 88.9607 151.468 88.3843 150.757 88.3843Z" fill="#F0F0F0"/>
<path d="M165.894 92.312H162.053C161.575 92.312 161.188 92.6993 161.188 93.1771V99.5321C161.188 100.01 161.575 100.397 162.053 100.397H165.894C166.372 100.397 166.759 100.01 166.759 99.5321V93.1771C166.759 92.6993 166.372 92.312 165.894 92.312Z" fill="#E6E6E6"/>
<path d="M166.468 91.5288H161.479C161.318 91.5288 161.188 91.6591 161.188 91.8199V92.1479C161.188 92.3087 161.318 92.439 161.479 92.439H166.468C166.629 92.439 166.759 92.3087 166.759 92.1479V91.8199C166.759 91.6591 166.629 91.5288 166.468 91.5288Z" fill="#F0F0F0"/>
<path d="M130.552 93.7144C130.552 93.7144 130.757 100.397 138.584 100.397C146.411 100.397 146.62 93.7144 146.62 93.7144H130.552Z" fill="#E6E6E6"/>
<path d="M111.085 84.8872H122.93V82.5502H111.085V84.8872Z" fill="#E0E0E0"/>
<path d="M181.818 82.5542H122.93V84.8912H181.818V82.5542Z" fill="#F0F0F0"/>
<path d="M111.085 102.734H122.93V100.397H111.085V102.734Z" fill="#E0E0E0"/>
<path d="M181.818 100.397H122.93V102.734H181.818V100.397Z" fill="#F0F0F0"/>
<path d="M115.353 84.8872H113.168V135.694H115.353V84.8872Z" fill="#E0E0E0"/>
<path d="M125.115 84.8872H122.93V135.694H125.115V84.8872Z" fill="#F0F0F0"/>
<path d="M174.242 84.8872H172.057V135.694H174.242V84.8872Z" fill="#E0E0E0"/>
<path d="M181.819 84.8872H179.633V135.694H181.819V84.8872Z" fill="#F0F0F0"/>
<path d="M36.773 67.3965H25.5718V132.623H36.773V67.3965Z" fill="#E6E6E6"/>
<path d="M36.773 132.619H85.1079L85.1079 67.3922H36.773L36.773 132.619Z" fill="#F0F0F0"/>
<path d="M41.1765 107.974H80.7046V92.0415H41.1765V107.974Z" fill="#E6E6E6"/>
<path d="M41.1765 126.81H80.7046V110.877H41.1765V126.81Z" fill="#E6E6E6"/>
<path d="M65.3787 93.7883H56.5022C56.2133 93.7872 55.9365 93.672 55.7322 93.4677C55.528 93.2634 55.4127 92.9866 55.4116 92.6977C55.4116 92.4081 55.5264 92.1303 55.7308 91.9251C55.9352 91.7199 56.2126 91.6041 56.5022 91.603H65.3787C65.6683 91.6041 65.9457 91.7199 66.1501 91.9251C66.3546 92.1303 66.4693 92.4081 66.4693 92.6977C66.4682 92.9866 66.353 93.2634 66.1487 93.4677C65.9444 93.672 65.6676 93.7872 65.3787 93.7883Z" fill="#F0F0F0"/>
<path d="M41.1765 89.1348H80.7046V73.2022H41.1765V89.1348Z" fill="#E6E6E6"/>
<path d="M65.3787 74.9529H56.5022C56.2126 74.9518 55.9352 74.836 55.7308 74.6308C55.5264 74.4256 55.4116 74.1478 55.4116 73.8582C55.4127 73.5693 55.528 73.2925 55.7322 73.0882C55.9365 72.8839 56.2133 72.7687 56.5022 72.7676H65.3787C65.6676 72.7687 65.9444 72.8839 66.1487 73.0882C66.353 73.2925 66.4682 73.5693 66.4693 73.8582C66.4693 74.1478 66.3546 74.4256 66.1501 74.6308C65.9457 74.836 65.6683 74.9518 65.3787 74.9529Z" fill="#F0F0F0"/>
<path d="M65.3787 112.624H56.5022C56.2133 112.623 55.9365 112.507 55.7322 112.303C55.528 112.099 55.4127 111.822 55.4116 111.533C55.4116 111.244 55.5264 110.966 55.7308 110.761C55.9352 110.555 56.2126 110.44 56.5022 110.438H65.3787C65.6683 110.44 65.9457 110.555 66.1501 110.761C66.3546 110.966 66.4693 111.244 66.4693 111.533C66.4682 111.822 66.353 112.099 66.1487 112.303C65.9444 112.507 65.6676 112.623 65.3787 112.624Z" fill="#F0F0F0"/>
<path d="M86.6002 64.4238H36.7729V67.3963H86.6002V64.4238Z" fill="#E6E6E6"/>
<path d="M24.0056 67.3926H36.7729V64.4201H24.0056V67.3926Z" fill="#E0E0E0"/>
<path d="M49.2573 13.9077H31.1353V33.8091H49.2573V13.9077Z" fill="#E6E6E6"/>
<path d="M51.2216 13.9077H32.501V33.8091H51.2216V13.9077Z" fill="#F0F0F0"/>
<path d="M49.6509 32.239V15.4741L34.0668 15.4741V32.239H49.6509Z" fill="#FAFAFA"/>
<path d="M45.875 28.1758V19.5371H37.8472V28.1758H45.875Z" fill="#F0F0F0"/>
<path d="M68.3633 8.03271H54.6201V22.7968H68.3633V8.03271Z" fill="#E6E6E6"/>
<path d="M69.8227 8.03271H55.936V22.7968H69.8227V8.03271Z" fill="#F0F0F0"/>
<path d="M68.6587 21.6321V9.19678H57.1008V21.6321H68.6587Z" fill="#FAFAFA"/>
<path d="M62.8774 12.2681L59.7163 17.7457H66.0385L62.8774 12.2681Z" fill="#F0F0F0"/>
<path d="M172.118 38.7007H131.897C129.775 38.7007 128.055 40.4207 128.055 42.5424V53.4812C128.055 55.6029 129.775 57.3229 131.897 57.3229H172.118C174.24 57.3229 175.96 55.6029 175.96 53.4812V42.5424C175.96 40.4207 174.24 38.7007 172.118 38.7007Z" fill="#006F98"/>
<path d="M164.14 41.8413H132.721C132.35 41.8413 132.049 42.1424 132.049 42.5137V43.2517C132.049 43.6231 132.35 43.9241 132.721 43.9241H164.14C164.511 43.9241 164.812 43.6231 164.812 43.2517V42.5137C164.812 42.1424 164.511 41.8413 164.14 41.8413Z" fill="#006F98"/>
<path d="M154.189 46.8599H132.721C132.35 46.8599 132.049 47.1609 132.049 47.5323V48.2703C132.049 48.6416 132.35 48.9427 132.721 48.9427H154.189C154.56 48.9427 154.861 48.6416 154.861 48.2703V47.5323C154.861 47.1609 154.56 46.8599 154.189 46.8599Z" fill="#006F98"/>
<path d="M148.432 51.8779H132.721C132.35 51.8779 132.049 52.179 132.049 52.5503V53.2883C132.049 53.6597 132.35 53.9607 132.721 53.9607H148.432C148.804 53.9607 149.105 53.6597 149.105 53.2883V52.5503C149.105 52.179 148.804 51.8779 148.432 51.8779Z" fill="#006F98"/>
<path d="M167.903 51.8779H152.192C151.821 51.8779 151.52 52.179 151.52 52.5503V53.2883C151.52 53.6597 151.821 53.9607 152.192 53.9607H167.903C168.274 53.9607 168.576 53.6597 168.576 53.2883V52.5503C168.576 52.179 168.274 51.8779 167.903 51.8779Z" fill="#006F98"/>
<g opacity="0.5">
<path d="M164.14 41.8413H132.721C132.35 41.8413 132.049 42.1424 132.049 42.5137V43.2517C132.049 43.6231 132.35 43.9241 132.721 43.9241H164.14C164.511 43.9241 164.812 43.6231 164.812 43.2517V42.5137C164.812 42.1424 164.511 41.8413 164.14 41.8413Z" fill="white"/>
<path d="M154.189 46.8599H132.721C132.35 46.8599 132.049 47.1609 132.049 47.5323V48.2703C132.049 48.6416 132.35 48.9427 132.721 48.9427H154.189C154.56 48.9427 154.861 48.6416 154.861 48.2703V47.5323C154.861 47.1609 154.56 46.8599 154.189 46.8599Z" fill="white"/>
<path d="M148.432 51.8779H132.721C132.35 51.8779 132.049 52.179 132.049 52.5503V53.2883C132.049 53.6597 132.35 53.9607 132.721 53.9607H148.432C148.804 53.9607 149.105 53.6597 149.105 53.2883V52.5503C149.105 52.179 148.804 51.8779 148.432 51.8779Z" fill="white"/>
<path d="M167.903 51.8779H152.192C151.821 51.8779 151.52 52.179 151.52 52.5503V53.2883C151.52 53.6597 151.821 53.9607 152.192 53.9607H167.903C168.274 53.9607 168.576 53.6597 168.576 53.2883V52.5503C168.576 52.179 168.274 51.8779 167.903 51.8779Z" fill="white"/>
</g>
<path d="M139.9 34.3589H94.2467C91.1354 34.3589 88.6133 36.881 88.6133 39.9923V56.0315C88.6133 59.1427 91.1354 61.6649 94.2467 61.6649H139.9C143.011 61.6649 145.534 59.1427 145.534 56.0315V39.9923C145.534 36.881 143.011 34.3589 139.9 34.3589Z" fill="#006F98"/>
<path d="M141.516 38.9629H95.4564C94.9107 38.9629 94.4683 39.4053 94.4683 39.951V41.0293C94.4683 41.575 94.9107 42.0174 95.4564 42.0174H141.516C142.061 42.0174 142.504 41.575 142.504 41.0293V39.951C142.504 39.4053 142.061 38.9629 141.516 38.9629Z" fill="#006F98"/>
<path d="M126.924 46.3228H95.4564C94.9107 46.3228 94.4683 46.7651 94.4683 47.3109V48.3892C94.4683 48.9349 94.9107 49.3773 95.4564 49.3773H126.924C127.47 49.3773 127.912 48.9349 127.912 48.3892V47.3109C127.912 46.7651 127.47 46.3228 126.924 46.3228Z" fill="#006F98"/>
<path d="M118.486 53.6821H95.4564C94.9107 53.6821 94.4683 54.1245 94.4683 54.6702V55.7485C94.4683 56.2942 94.9107 56.7366 95.4564 56.7366H118.486C119.032 56.7366 119.474 56.2942 119.474 55.7485V54.6702C119.474 54.1245 119.032 53.6821 118.486 53.6821Z" fill="#006F98"/>
<path d="M143.192 53.6821H124.004C123.459 53.6821 123.016 54.1245 123.016 54.6702V55.7485C123.016 56.2942 123.459 56.7366 124.004 56.7366H143.192C143.738 56.7366 144.18 56.2942 144.18 55.7485V54.6702C144.18 54.1245 143.738 53.6821 143.192 53.6821Z" fill="#006F98"/>
<g opacity="0.5">
<path d="M141.516 38.9629H95.4564C94.9107 38.9629 94.4683 39.4053 94.4683 39.951V41.0293C94.4683 41.575 94.9107 42.0174 95.4564 42.0174H141.516C142.061 42.0174 142.504 41.575 142.504 41.0293V39.951C142.504 39.4053 142.061 38.9629 141.516 38.9629Z" fill="white"/>
<path d="M126.924 46.3223H95.4564C94.9107 46.3223 94.4683 46.7647 94.4683 47.3104V48.3887C94.4683 48.9344 94.9107 49.3768 95.4564 49.3768H126.924C127.47 49.3768 127.912 48.9344 127.912 48.3887V47.3104C127.912 46.7647 127.47 46.3223 126.924 46.3223Z" fill="white"/>
<path d="M118.486 53.6821H95.4564C94.9107 53.6821 94.4683 54.1245 94.4683 54.6702V55.7485C94.4683 56.2942 94.9107 56.7366 95.4564 56.7366H118.486C119.032 56.7366 119.474 56.2942 119.474 55.7485V54.6702C119.474 54.1245 119.032 53.6821 118.486 53.6821Z" fill="white"/>
<path d="M143.192 53.6821H124.004C123.459 53.6821 123.016 54.1245 123.016 54.6702V55.7485C123.016 56.2942 123.459 56.7366 124.004 56.7366H143.192C143.738 56.7366 144.18 56.2942 144.18 55.7485V54.6702C144.18 54.1245 143.738 53.6821 143.192 53.6821Z" fill="white"/>
</g>
<path d="M111.516 66.6133H89.5277C88.074 66.6133 86.8955 67.7918 86.8955 69.2455V102.185C86.8955 103.639 88.074 104.817 89.5277 104.817H111.516C112.97 104.817 114.148 103.639 114.148 102.185V69.2455C114.148 67.7918 112.97 66.6133 111.516 66.6133Z" fill="#006F98"/>
<path opacity="0.4" d="M111.516 66.6133H89.5277C88.074 66.6133 86.8955 67.7918 86.8955 69.2455V102.185C86.8955 103.639 88.074 104.817 89.5277 104.817H111.516C112.97 104.817 114.148 103.639 114.148 102.185V69.2455C114.148 67.7918 112.97 66.6133 111.516 66.6133Z" fill="black"/>
<path d="M110.507 70.5986H90.5321C90.2649 70.5986 90.0483 70.8152 90.0483 71.0824V71.8081C90.0483 72.0753 90.2649 72.2919 90.5321 72.2919H110.507C110.775 72.2919 110.991 72.0753 110.991 71.8081V71.0824C110.991 70.8152 110.775 70.5986 110.507 70.5986Z" fill="#FAFAFA"/>
<path d="M104.148 74.6743H90.5321C90.2649 74.6743 90.0483 74.8909 90.0483 75.1581V75.8838C90.0483 76.151 90.2649 76.3676 90.5321 76.3676H104.148C104.415 76.3676 104.632 76.151 104.632 75.8838V75.1581C104.632 74.8909 104.415 74.6743 104.148 74.6743Z" fill="#FAFAFA"/>
<path d="M110.507 78.7534H90.5321C90.2649 78.7534 90.0483 78.97 90.0483 79.2372V79.9629C90.0483 80.2301 90.2649 80.4467 90.5321 80.4467H110.507C110.775 80.4467 110.991 80.2301 110.991 79.9629V79.2372C110.991 78.97 110.775 78.7534 110.507 78.7534Z" fill="#FAFAFA"/>
<path d="M97.9572 82.8291H90.5321C90.2649 82.8291 90.0483 83.0457 90.0483 83.3129V84.0386C90.0483 84.3058 90.2649 84.5224 90.5321 84.5224H97.9572C98.2244 84.5224 98.441 84.3058 98.441 84.0386V83.3129C98.441 83.0457 98.2244 82.8291 97.9572 82.8291Z" fill="#FAFAFA"/>
<path d="M108.346 82.8291H100.921C100.654 82.8291 100.438 83.0457 100.438 83.3129V84.0386C100.438 84.3058 100.654 84.5224 100.921 84.5224H108.346C108.614 84.5224 108.83 84.3058 108.83 84.0386V83.3129C108.83 83.0457 108.614 82.8291 108.346 82.8291Z" fill="#FAFAFA"/>
<path d="M110.507 86.9087H90.5321C90.2649 86.9087 90.0483 87.1253 90.0483 87.3925V88.1182C90.0483 88.3854 90.2649 88.602 90.5321 88.602H110.507C110.775 88.602 110.991 88.3854 110.991 88.1182V87.3925C110.991 87.1253 110.775 86.9087 110.507 86.9087Z" fill="#FAFAFA"/>
<path d="M110.507 90.9839H90.5321C90.2649 90.9839 90.0483 91.2005 90.0483 91.4677V92.1934C90.0483 92.4606 90.2649 92.6772 90.5321 92.6772H110.507C110.775 92.6772 110.991 92.4606 110.991 92.1934V91.4677C110.991 91.2005 110.775 90.9839 110.507 90.9839Z" fill="#FAFAFA"/>
<path d="M106.965 95.0635H90.5321C90.2649 95.0635 90.0483 95.2801 90.0483 95.5473V96.273C90.0483 96.5402 90.2649 96.7568 90.5321 96.7568H106.965C107.232 96.7568 107.449 96.5402 107.449 96.273V95.5473C107.449 95.2801 107.232 95.0635 106.965 95.0635Z" fill="#FAFAFA"/>
<path d="M98.1991 99.1387H90.5321C90.2649 99.1387 90.0483 99.3553 90.0483 99.6225V100.348C90.0483 100.615 90.2649 100.832 90.5321 100.832H98.1991C98.4663 100.832 98.6829 100.615 98.6829 100.348V99.6225C98.6829 99.3553 98.4663 99.1387 98.1991 99.1387Z" fill="#FAFAFA"/>
<path d="M117.465 66.3799H86.9648L100.45 77.1096L121.126 84.8996V70.033C121.124 69.0634 120.737 68.1342 120.051 67.4494C119.364 66.7645 118.434 66.3799 117.465 66.3799Z" fill="#006F98"/>
<path opacity="0.4" d="M117.465 66.3799H86.9648L100.45 77.1096L121.126 84.8996V70.033C121.124 69.0634 120.737 68.1342 120.051 67.4494C119.364 66.7645 118.434 66.3799 117.465 66.3799Z" fill="black"/>
<path d="M116.133 71.9067H93.8163C93.4812 71.9067 93.2095 72.1784 93.2095 72.5135V73.6451C93.2095 73.9803 93.4812 74.2519 93.8163 74.2519H116.133C116.468 74.2519 116.739 73.9803 116.739 73.6451V72.5135C116.739 72.1784 116.468 71.9067 116.133 71.9067Z" fill="#FAFAFA"/>
<path d="M170.211 95.4244V73.9732C170.211 72.3292 168.879 70.9966 167.235 70.9966H129.986C128.342 70.9966 127.01 72.3292 127.01 73.9732V95.4244C127.01 97.0683 128.342 98.401 129.986 98.401H167.235C168.879 98.401 170.211 97.0683 170.211 95.4244Z" fill="#006F98"/>
<path d="M177.013 88.6265V67.1753C177.013 65.5314 175.681 64.1987 174.037 64.1987H136.788C135.144 64.1987 133.811 65.5314 133.811 67.1753V88.6265C133.811 90.2705 135.144 91.6031 136.788 91.6031H174.037C175.681 91.6031 177.013 90.2705 177.013 88.6265Z" fill="#006F98"/>
<path opacity="0.5" d="M177.013 88.6265V67.1753C177.013 65.5314 175.681 64.1987 174.037 64.1987H136.788C135.144 64.1987 133.811 65.5314 133.811 67.1753V88.6265C133.811 90.2705 135.144 91.6031 136.788 91.6031H174.037C175.681 91.6031 177.013 90.2705 177.013 88.6265Z" fill="white"/>
<path d="M173.233 81.275V68.0689C173.233 67.3375 172.64 66.7446 171.909 66.7446H159.736C159.005 66.7446 158.412 67.3375 158.412 68.0689V81.275C158.412 82.0064 159.005 82.5993 159.736 82.5993H171.909C172.64 82.5993 173.233 82.0064 173.233 81.275Z" fill="#006F98"/>
<path opacity="0.7" d="M173.233 81.275V68.0689C173.233 67.3375 172.64 66.7446 171.909 66.7446H159.736C159.005 66.7446 158.412 67.3375 158.412 68.0689V81.275C158.412 82.0064 159.005 82.5993 159.736 82.5993H171.909C172.64 82.5993 173.233 82.0064 173.233 81.275Z" fill="white"/>
<path d="M156.091 87.6629V77.5441C156.091 76.9826 155.636 76.5273 155.075 76.5273H145.747C145.185 76.5273 144.73 76.9826 144.73 77.5441V87.6629C144.73 88.2245 145.185 88.6797 145.747 88.6797H155.075C155.636 88.6797 156.091 88.2245 156.091 87.6629Z" fill="#006F98"/>
<path opacity="0.3" d="M156.091 87.6629V77.5441C156.091 76.9826 155.636 76.5273 155.075 76.5273H145.747C145.185 76.5273 144.73 76.9826 144.73 77.5441V87.6629C144.73 88.2245 145.185 88.6797 145.747 88.6797H155.075C155.636 88.6797 156.091 88.2245 156.091 87.6629Z" fill="white"/>
<path d="M150.409 23.5062V18.0409C150.409 16.3698 149.054 15.0151 147.383 15.0151L47.2896 15.0151C45.6185 15.0151 44.2638 16.3698 44.2638 18.0409V23.5062C44.2638 25.1773 45.6185 26.532 47.2896 26.532L147.383 26.532C149.054 26.532 150.409 25.1773 150.409 23.5062Z" fill="#006F98"/>
<path opacity="0.5" d="M150.409 23.5062V18.0409C150.409 16.3698 149.054 15.0151 147.383 15.0151L47.2896 15.0151C45.6185 15.0151 44.2638 16.3698 44.2638 18.0409V23.5062C44.2638 25.1773 45.6185 26.532 47.2896 26.532L147.383 26.532C149.054 26.532 150.409 25.1773 150.409 23.5062Z" fill="white"/>
<path d="M131.471 28.4588V24.4941H102.668V28.4588H131.471Z" fill="#006F98"/>
<path opacity="0.5" d="M131.471 28.4588V24.4941H102.668V28.4588H131.471Z" fill="white"/>
<path d="M160.736 6.4911V1.0258C160.736 -0.645301 159.382 -2 157.711 -2L57.6172 -2C55.9461 -2 54.5914 -0.645301 54.5914 1.0258V6.4911C54.5914 8.16221 55.9461 9.5169 57.6172 9.5169L157.711 9.5169C159.382 9.5169 160.736 8.16221 160.736 6.4911Z" fill="#006F98"/>
<path d="M53.4478 58.561C53.087 59.381 52.6893 60.2666 52.3408 61.1317C51.9923 61.9968 51.6315 62.8865 51.3158 63.7721C50.668 65.4986 50.1486 67.2705 49.7619 69.0734L49.643 69.7294L49.602 69.9754C49.602 70.0451 49.602 70.1353 49.5774 70.2173C49.5618 70.6165 49.57 71.0163 49.602 71.4145C49.6799 72.2796 49.8193 73.2062 50.012 74.1328C50.3564 75.9901 50.7951 77.9048 51.242 79.7908L49.1387 80.6108C48.1582 78.8235 47.3232 76.9602 46.6418 75.0389C46.2828 74.039 45.9923 73.0157 45.7726 71.9762C45.6494 71.4011 45.5727 70.817 45.543 70.2296C45.543 70.0656 45.543 69.9098 45.543 69.7335C45.543 69.5572 45.543 69.3604 45.5717 69.2456L45.6537 68.4256C45.7762 67.3696 45.9638 66.3221 46.2154 65.2891C46.445 64.2641 46.7402 63.2678 47.0354 62.2838C47.3306 61.2998 47.6996 60.3322 48.0891 59.381C48.2818 58.9054 48.4991 58.4339 48.6877 57.9624C48.8763 57.4909 49.0977 57.0399 49.3601 56.5356L53.4478 58.561Z" fill="#E4897B"/>
<path d="M51.1309 79.2373L52.7299 80.7994L49.2408 82.4394C49.2408 82.4394 48.3962 80.9593 48.9825 79.6227L51.1309 79.2373Z" fill="#E4897B"/>
<path d="M54.0216 83.124L51.0737 84.3294L49.2451 82.4229L52.7301 80.7993L54.0216 83.124Z" fill="#E4897B"/>
<path opacity="0.4" d="M113.738 81.4431C107.937 80.7917 102.46 78.4351 97.9976 74.671C93.5357 70.9069 90.2899 65.9044 88.6706 60.2959C87.0514 54.6874 87.1313 48.7247 88.9003 43.1617C90.6693 37.5986 94.048 32.6849 98.6092 29.0418C103.17 25.3986 108.709 23.1896 114.526 22.694C120.342 22.1984 126.175 23.4384 131.287 26.2573C136.399 29.0762 140.56 33.3474 143.245 38.531C145.93 43.7146 147.017 49.5778 146.37 55.3794C145.94 59.234 144.755 62.966 142.882 66.3623C141.009 69.7586 138.486 72.7526 135.455 75.1731C132.425 77.5936 128.947 79.3932 125.221 80.469C121.494 81.5448 117.593 81.8758 113.738 81.4431Z" fill="#FAFAFA"/>
<path opacity="0.4" d="M135.214 28.8485L90.3191 64.7194C90.1305 64.3094 89.946 63.8994 89.7738 63.4894C88.6483 60.8122 87.9283 57.9822 87.6377 55.0926L126.415 24.1089C129.599 25.1709 132.576 26.7743 135.214 28.8485Z" fill="#FAFAFA"/>
<path opacity="0.4" d="M145.575 44.5634L103.365 78.2859C99.3552 76.1955 95.8803 73.2102 93.2095 69.5611L139.298 32.7349C142.268 36.1448 144.416 40.1917 145.575 44.5634Z" fill="#FAFAFA"/>
<path d="M83.8001 40.8242L83.4106 40.693C84.0852 38.7024 84.9331 36.7749 85.9444 34.9325L86.3011 35.1293C85.3031 36.9511 84.4663 38.8566 83.8001 40.8242ZM88.7775 31.2548L88.4454 31.0129C91.8149 26.4569 96.2247 22.7725 101.307 20.2668L101.492 20.6358C96.4669 23.1156 92.1077 26.7607 88.7775 31.2671V31.2548ZM133.709 21.1975C132.37 20.4788 130.984 19.8502 129.56 19.3156L129.708 18.9302C131.145 19.4773 132.545 20.1183 133.898 20.849L133.709 21.1975Z" fill="#006F98"/>
<path opacity="0.3" d="M83.8001 40.8242L83.4106 40.693C84.0852 38.7024 84.9331 36.7749 85.9444 34.9325L86.3011 35.1293C85.3031 36.9511 84.4663 38.8566 83.8001 40.8242ZM88.7775 31.2548L88.4454 31.0129C91.8149 26.4569 96.2247 22.7725 101.307 20.2668L101.492 20.6358C96.4669 23.1156 92.1077 26.7607 88.7775 31.2671V31.2548ZM133.709 21.1975C132.37 20.4788 130.984 19.8502 129.56 19.3156L129.708 18.9302C131.145 19.4773 132.545 20.1183 133.898 20.849L133.709 21.1975Z" fill="black"/>
<path d="M147.546 37.0278C143.75 29.1539 137.069 23.0428 128.889 19.9616C120.708 16.8803 111.656 17.0651 103.608 20.4777C95.5607 23.8903 89.1348 30.2689 85.6629 38.2912C82.1909 46.3135 81.9392 55.3642 84.96 63.5671C82.2212 64.5265 79.5152 65.5556 76.8256 66.6175C72.947 68.1563 69.1039 69.7635 65.2964 71.4391C61.4916 73.1242 57.7032 74.8421 53.9517 76.6379C52.0698 77.5194 50.2125 78.4501 48.3388 79.3521C47.3641 79.7709 46.4809 80.3769 45.7394 81.1356C45.3381 81.5557 44.9847 82.0191 44.6857 82.5173C44.3208 83.1065 44.0445 83.7461 43.8657 84.4156C43.5572 85.6221 43.6906 86.8992 44.2418 88.0159C44.793 89.1326 45.7256 90.0152 46.871 90.5041C47.507 90.7708 48.1781 90.9448 48.8636 91.0207C49.4426 91.0863 50.0271 91.0863 50.6061 91.0207C51.6583 90.893 52.6751 90.5601 53.5991 90.0408C55.4564 89.1019 57.326 88.1958 59.171 87.2323C62.861 85.3504 66.551 83.3865 70.1959 81.3939C73.8408 79.4013 77.4898 77.3144 81.0486 75.1742C83.5086 73.6859 85.9932 72.1648 88.4286 70.574C93.1052 77.9567 100.443 83.2572 108.921 85.3773C117.399 87.4973 126.368 86.2743 133.969 81.9617C141.57 77.6491 147.221 70.5775 149.75 62.2122C152.279 53.847 151.493 44.8293 147.555 37.0278H147.546ZM128.908 76.1951C124.143 78.547 118.788 79.4332 113.52 78.7417C108.251 78.0502 103.306 75.8121 99.3097 72.3103C95.3133 68.8085 92.4449 64.2003 91.0673 59.0684C89.6898 53.9365 89.8648 48.5114 91.5704 43.479C93.2759 38.4465 96.4354 34.0329 100.649 30.796C104.863 27.5591 109.942 25.6445 115.244 25.2941C120.546 24.9437 125.833 26.1733 130.436 28.8274C135.04 31.4816 138.752 35.4411 141.105 40.2053C142.668 43.3692 143.592 46.81 143.825 50.3311C144.058 53.8522 143.594 57.3847 142.462 60.7268C141.329 64.0689 139.549 67.1551 137.223 69.8091C134.898 72.4632 132.072 74.6332 128.908 76.1951Z" fill="#006F98"/>
<path opacity="0.3" d="M147.546 37.0278C143.75 29.1539 137.069 23.0428 128.889 19.9616C120.708 16.8803 111.656 17.0651 103.608 20.4777C95.5607 23.8903 89.1348 30.2689 85.6629 38.2912C82.1909 46.3135 81.9392 55.3642 84.96 63.5671C82.2212 64.5265 79.5152 65.5556 76.8256 66.6175C72.947 68.1563 69.1039 69.7635 65.2964 71.4391C61.4916 73.1242 57.7032 74.8421 53.9517 76.6379C52.0698 77.5194 50.2125 78.4501 48.3388 79.3521C47.3641 79.7709 46.4809 80.3769 45.7394 81.1356C45.3381 81.5557 44.9847 82.0191 44.6857 82.5173C44.3208 83.1065 44.0445 83.7461 43.8657 84.4156C43.5572 85.6221 43.6906 86.8992 44.2418 88.0159C44.793 89.1326 45.7256 90.0152 46.871 90.5041C47.507 90.7708 48.1781 90.9448 48.8636 91.0207C49.4426 91.0863 50.0271 91.0863 50.6061 91.0207C51.6583 90.893 52.6751 90.5601 53.5991 90.0408C55.4564 89.1019 57.326 88.1958 59.171 87.2323C62.861 85.3504 66.551 83.3865 70.1959 81.3939C73.8408 79.4013 77.4898 77.3144 81.0486 75.1742C83.5086 73.6859 85.9932 72.1648 88.4286 70.574C93.1052 77.9567 100.443 83.2572 108.921 85.3773C117.399 87.4973 126.368 86.2743 133.969 81.9617C141.57 77.6491 147.221 70.5775 149.75 62.2122C152.279 53.847 151.493 44.8293 147.555 37.0278H147.546ZM128.908 76.1951C124.143 78.547 118.788 79.4332 113.52 78.7417C108.251 78.0502 103.306 75.8121 99.3097 72.3103C95.3133 68.8085 92.4449 64.2003 91.0673 59.0684C89.6898 53.9365 89.8648 48.5114 91.5704 43.479C93.2759 38.4465 96.4354 34.0329 100.649 30.796C104.863 27.5591 109.942 25.6445 115.244 25.2941C120.546 24.9437 125.833 26.1733 130.436 28.8274C135.04 31.4816 138.752 35.4411 141.105 40.2053C142.668 43.3692 143.592 46.81 143.825 50.3311C144.058 53.8522 143.594 57.3847 142.462 60.7268C141.329 64.0689 139.549 67.1551 137.223 69.8091C134.898 72.4632 132.072 74.6332 128.908 76.1951Z" fill="black"/>
<path d="M64.7798 43.9197C64.7798 44.1616 64.9069 44.3584 65.0668 44.3584C65.2267 44.3584 65.3538 44.1616 65.3538 43.9197C65.3538 43.6778 65.2267 43.481 65.0668 43.481C64.9069 43.481 64.7798 43.6942 64.7798 43.9197Z" fill="#263238"/>
<path d="M64.895 44.3584C65.1852 45.1009 65.5756 45.8003 66.0553 46.4371C65.8895 46.5557 65.6997 46.6367 65.4992 46.6742C65.2988 46.7118 65.0926 46.705 64.895 46.6544V44.3584Z" fill="#DE5753"/>
<path d="M63.9312 42.5709C63.9084 42.571 63.8858 42.5658 63.8652 42.5559C63.8446 42.5459 63.8265 42.5315 63.8123 42.5135C63.791 42.4822 63.7824 42.4439 63.7886 42.4065C63.7947 42.3691 63.8149 42.3355 63.8451 42.3126C64.0257 42.1757 64.2367 42.0844 64.4601 42.0466C64.6836 42.0088 64.9128 42.0255 65.1284 42.0953C65.1478 42.1006 65.1658 42.1099 65.1814 42.1226C65.1969 42.1353 65.2097 42.1511 65.2187 42.169C65.2278 42.1869 65.233 42.2065 65.234 42.2265C65.235 42.2465 65.2318 42.2666 65.2246 42.2853C65.2174 42.304 65.2064 42.321 65.1922 42.3352C65.178 42.3494 65.161 42.3605 65.1423 42.3677C65.1236 42.3749 65.1035 42.3781 65.0835 42.3771C65.0634 42.3761 65.0438 42.3709 65.0259 42.3618C64.8547 42.3093 64.6733 42.2987 64.4971 42.3308C64.3209 42.3629 64.1549 42.4368 64.0132 42.5463C63.9889 42.5625 63.9604 42.571 63.9312 42.5709Z" fill="#263238"/>
<path d="M56.498 45.7441C56.908 47.9458 57.359 51.9843 55.8174 53.4562C55.8174 53.4562 56.4201 55.6907 60.516 55.6907C65.026 55.6907 62.6644 53.4562 62.6644 53.4562C60.2044 52.8658 60.2741 51.0454 60.7005 49.3316L56.498 45.7441Z" fill="#E4897B"/>
<path d="M53.9766 54.6166C54.4645 53.8581 53.6445 52.0172 53.6445 52.0172C53.6445 52.0172 60.8933 50.1927 63.8576 52.993C64.4726 53.5711 63.792 54.4239 63.792 54.4239L53.9766 54.6166Z" fill="#006F98"/>
<path opacity="0.1" d="M53.9766 54.6166C54.4645 53.8581 53.6445 52.0172 53.6445 52.0172C53.6445 52.0172 60.8933 50.1927 63.8576 52.993C64.4726 53.5711 63.792 54.4239 63.792 54.4239L53.9766 54.6166Z" fill="black"/>
<path d="M49.8808 54.3543C47.2691 55.5843 45.7808 63.8253 45.7808 63.8253L52.1645 66.3714C53.0989 64.0897 53.8542 61.7388 54.4236 59.3399C55.301 55.5433 52.554 53.0833 49.8808 54.3543Z" fill="#263238"/>
<path d="M53.2672 58.9999C51.6887 60.5989 50.9671 63.7313 50.6514 65.769L52.1807 66.3799C53.0885 64.163 53.8286 61.8811 54.3947 59.5534C54.2594 58.6842 53.9232 58.3357 53.2672 58.9999Z" fill="#203048"/>
<path d="M67.2973 54.2971C67.2973 54.2971 70.5035 57.9215 67.4777 80.3321H51.3688C51.2581 77.8721 52.812 65.7976 50.4258 54.1454C52.206 53.8002 54.0071 53.5729 55.8173 53.4648C58.0976 53.3294 60.384 53.3294 62.6643 53.4648C64.2278 53.6222 65.7768 53.9004 67.2973 54.2971Z" fill="#263238"/>
<path d="M68.7696 62.9969L66.0554 58.3188C65.5315 60.5016 65.3175 62.7472 65.4199 64.9895C65.4937 66.5967 66.9656 72.5499 68.2899 73.4191C68.6413 69.9565 68.8015 66.4772 68.7696 62.9969Z" fill="#203048"/>
<path d="M69.1466 57.499C69.5566 59.4916 69.9666 61.5334 70.4053 63.5342C70.844 65.535 71.2991 67.544 71.828 69.4833C71.9633 69.963 72.0904 70.455 72.238 70.9142L72.3487 71.2668L72.402 71.4431V71.4226C72.3733 71.3857 72.3405 71.3816 72.3651 71.4226C72.5336 71.6067 72.7491 71.7413 72.9883 71.8121C73.3759 71.9564 73.7751 72.0675 74.1814 72.1442C76.1199 72.4514 78.0825 72.5791 80.0444 72.5255L80.4339 74.7559C79.8845 74.9322 79.372 75.0593 78.8308 75.1864C78.2896 75.3135 77.7566 75.4201 77.2113 75.5021C76.0831 75.69 74.9392 75.7669 73.796 75.7317C73.1606 75.7146 72.5286 75.6322 71.91 75.4857C71.1235 75.3137 70.3844 74.9707 69.7452 74.4812C69.3278 74.1441 68.9832 73.7257 68.7325 73.2512C68.6669 73.1282 68.6095 72.9888 68.5562 72.8699L68.4824 72.6772L68.3307 72.2672C68.1216 71.7465 67.9494 71.234 67.7608 70.7215C67.0679 68.6715 66.4898 66.601 65.9814 64.5346C65.473 62.4682 65.0343 60.4059 64.6694 58.2862L69.1466 57.499Z" fill="#E4897B"/>
<path d="M63.2753 56.4944C62.4266 59.2455 65.8665 67.4496 65.8665 67.4496L72.7176 65.7276C72.7176 65.7276 72.4552 61.4636 70.8931 58.0811C68.5397 52.9807 64.2921 53.1939 63.2753 56.4944Z" fill="#263238"/>
<path d="M79.9867 72.5256L83.3979 72.4395L81.7579 75.9901C81.7579 75.9901 80.368 76.1746 79.2282 74.3009L78.0269 72.8659L79.4086 72.5912C79.5988 72.5511 79.7923 72.5292 79.9867 72.5256Z" fill="#E4897B"/>
<path d="M85.5508 73.0996L83.5992 76.0434L81.7583 75.9901L83.3983 72.4395L85.5508 73.0996Z" fill="#E4897B"/>
<path d="M56.6867 43.399C56.8671 46.3797 56.822 48.1386 58.3267 49.6679C60.5899 51.9762 64.2758 50.6109 64.9892 47.6179C65.6329 44.9365 65.2311 40.5085 62.3119 39.3195C61.6677 39.0595 60.9681 38.9674 60.2787 39.0519C59.5892 39.1364 58.9325 39.3946 58.3702 39.8024C57.8079 40.2102 57.3584 40.7542 57.0639 41.3833C56.7695 42.0124 56.6396 42.706 56.6867 43.399Z" fill="#E4897B"/>
<path d="M53.177 42.8743C53.9191 45.5926 55.6657 48.725 57.9248 48.9259C60.7292 49.1719 61.9961 46.2732 62.3651 43.2802C64.0461 42.1281 63.1646 40.8612 64.8497 40.7013C67.0145 40.4963 66.3216 36.5357 63.4721 35.9002C63.4721 35.9002 64.4274 37.6837 62.4225 36.7817C60.5158 35.8756 58.3975 35.5084 56.2971 35.7198C56.2971 35.7198 58.8555 36.999 56.3545 37.5689C53.8535 38.1388 53.1073 39.6804 54.2594 40.6111C54.2594 40.6152 52.6891 41.0867 53.177 42.8743Z" fill="#263238"/>
<path d="M60.6554 43.8951C60.7105 44.636 61.0089 45.338 61.5041 45.8918C62.1601 46.6175 62.8448 46.1665 62.9596 45.285C63.0662 44.4937 62.8489 43.1612 62.0453 42.7594C61.2417 42.3576 60.6021 43.0013 60.6554 43.8951Z" fill="#E4897B"/>
<path d="M61.7625 80.3317C61.7625 80.3317 64.6981 101.59 62.3857 110.11C58.7203 123.599 44.7065 134.985 44.7065 134.985L39.9546 131.869C39.9546 131.869 51.8897 122.254 53.3493 110.959C54.6613 100.819 51.369 88.5563 51.369 80.3276L61.7625 80.3317Z" fill="#006F98"/>
<path opacity="0.1" d="M61.7625 80.3317C61.7625 80.3317 64.6981 101.59 62.3857 110.11C58.7203 123.599 44.7065 134.985 44.7065 134.985L39.9546 131.869C39.9546 131.869 51.8897 122.254 53.3493 110.959C54.6613 100.819 51.369 88.5563 51.369 80.3276L61.7625 80.3317Z" fill="black"/>
<path d="M62.976 92.4844C62.1945 91.5891 61.3341 90.7658 60.4053 90.0244C60.9055 96.9247 61.3155 107.146 60.8604 114.407C61.4723 113.015 61.982 111.58 62.3856 110.114C63.5131 105.953 63.3942 98.7656 62.976 92.4844Z" fill="#006F98"/>
<path opacity="0.3" d="M62.976 92.4844C62.1945 91.5891 61.3341 90.7658 60.4053 90.0244C60.9055 96.9247 61.3155 107.146 60.8604 114.407C61.4723 113.015 61.982 111.58 62.3856 110.114C63.5131 105.953 63.3942 98.7656 62.976 92.4844Z" fill="black"/>
<path d="M67.478 80.332C67.478 80.332 72.0126 99.561 72.3324 108.749C72.6932 119.048 69.0975 143.345 69.0975 143.345H63.993C63.993 143.345 63.3657 118.86 63.1402 109.479C62.8901 99.2494 56.8877 80.332 56.8877 80.332H67.478Z" fill="#006F98"/>
<path opacity="0.1" d="M67.478 80.332C67.478 80.332 72.0126 99.561 72.3324 108.749C72.6932 119.048 69.0975 143.345 69.0975 143.345H63.993C63.993 143.345 63.3657 118.86 63.1402 109.479C62.8901 99.2494 56.8877 80.332 56.8877 80.332H67.478Z" fill="black"/>
<path d="M145.96 61.853C146.308 62.181 146.583 62.4598 146.87 62.7714C147.157 63.083 147.428 63.3864 147.69 63.7021C148.223 64.3294 148.723 64.9895 149.207 65.6537C150.173 66.9861 151.033 68.3927 151.778 69.8603L151.93 70.1596C152.004 70.3045 152.065 70.4554 152.114 70.6106C152.213 70.9106 152.274 71.222 152.294 71.5372C152.321 72.0931 152.245 72.6492 152.069 73.1772C151.769 74.0544 151.325 74.8749 150.753 75.6044C149.723 76.9275 148.507 78.0957 147.145 79.073L146.124 77.9004C146.604 77.3387 147.104 76.736 147.551 76.1333C148.005 75.5494 148.417 74.9327 148.781 74.2883C149.121 73.7261 149.373 73.1149 149.527 72.4761C149.58 72.2476 149.59 72.0112 149.556 71.7791C149.541 71.7011 149.516 71.6253 149.482 71.5536C149.466 71.5222 149.449 71.492 149.429 71.4634L149.297 71.242C148.507 69.9527 147.648 68.706 146.727 67.5069C146.272 66.9042 145.784 66.3261 145.292 65.7562C145.05 65.4692 144.8 65.1904 144.55 64.9116C144.299 64.6328 144.029 64.354 143.812 64.1367L145.96 61.853Z" fill="#E4897B"/>
<path d="M146.518 77.5564L143.455 77.0562L145.058 79.7376C145.058 79.7376 147.03 79.6679 147.592 78.5076L146.518 77.5564Z" fill="#E4897B"/>
<path d="M141.191 78.2944L142.651 80.4715L145.058 79.7376L143.455 77.0562L141.191 78.2944Z" fill="#E4897B"/>
<path d="M138.198 52.4272C138.079 54.2804 137.76 58.0442 139.182 59.0856C139.182 59.0856 138.924 60.9839 135.566 61.4267C131.876 61.9064 133.561 59.8236 133.561 59.8236C135.517 59.0774 135.267 57.5891 134.734 56.2279L138.198 52.4272Z" fill="#E4897B"/>
<path d="M130.561 49.1512C130.54 49.1513 130.52 49.1469 130.502 49.1384C130.483 49.1299 130.467 49.1175 130.454 49.102C130.337 48.9629 130.188 48.8534 130.021 48.7821C129.854 48.7109 129.672 48.6801 129.49 48.692C129.471 48.6955 129.452 48.6951 129.433 48.6907C129.414 48.6863 129.396 48.6782 129.38 48.6667C129.364 48.6551 129.351 48.6405 129.341 48.6238C129.331 48.607 129.325 48.5883 129.322 48.569C129.318 48.5305 129.328 48.4916 129.352 48.4609C129.376 48.4302 129.411 48.4101 129.449 48.405C129.681 48.3854 129.914 48.4222 130.128 48.5122C130.342 48.6021 130.531 48.7426 130.679 48.9216C130.697 48.943 130.709 48.969 130.712 48.9965C130.716 49.0241 130.712 49.0521 130.7 49.0774C130.689 49.1026 130.67 49.1241 130.647 49.1394C130.624 49.1546 130.597 49.163 130.569 49.1635L130.561 49.1512Z" fill="#263238"/>
<path d="M129.921 50.9678C129.775 51.5558 129.55 52.1214 129.252 52.6488C129.389 52.7224 129.541 52.765 129.696 52.7735C129.851 52.782 130.006 52.7562 130.15 52.698L129.921 50.9678Z" fill="#DE5753"/>
<path d="M130.085 50.5165C130.117 50.7625 130.015 50.9757 129.855 51.0003C129.695 51.0249 129.535 50.8363 129.506 50.5903C129.478 50.3443 129.576 50.1311 129.736 50.1106C129.896 50.0901 130.056 50.2541 130.085 50.5165Z" fill="#263238"/>
<path d="M129.81 50.1148L129.199 50.0205C129.199 50.0205 129.56 50.4428 129.81 50.1148Z" fill="#263238"/>
<path d="M138.24 48.5896C138.449 51.6318 138.6 52.9151 137.28 54.6658C135.292 57.2939 131.511 56.888 130.396 53.9688C129.392 51.3407 129.22 46.8102 132.016 45.2194C132.631 44.8668 133.326 44.6773 134.035 44.6688C134.744 44.6602 135.443 44.8329 136.067 45.1705C136.69 45.5081 137.217 45.9994 137.597 46.5978C137.977 47.1962 138.199 47.8818 138.24 48.5896Z" fill="#E4897B"/>
<path d="M140.011 51.4146C141.716 52.3658 142.983 50.0206 142.983 50.0206C142.983 50.0206 139.925 50.3527 140.199 48.5323C140.56 46.1174 138.83 43.1818 134.492 43.559C134.25 43.5795 134.021 43.6082 133.795 43.6451C133.341 43.4299 132.827 43.3743 132.338 43.4874C131.848 43.6005 131.411 43.8757 131.097 44.2683C129.867 44.3708 128.207 45.8386 129.334 47.7779C129.413 47.5551 129.536 47.3502 129.695 47.1752C129.789 48.3109 130.782 50.1149 132.02 50.2338C132.286 51.7877 131.253 53.5876 131.61 55.2112C132.139 57.5523 136.087 58.0812 136.087 58.0812C135.951 57.7889 135.9 57.464 135.941 57.144C135.981 56.8241 136.112 56.5222 136.317 56.2731C138.998 57.5031 140.765 56.3018 140.765 56.3018C138.936 55.6212 139.49 54.4076 139.49 54.4076C140.121 54.688 140.837 54.7126 141.486 54.4763C142.135 54.2401 142.667 53.7613 142.971 53.1407C142.363 53.1696 141.761 53.0219 141.235 52.7156C140.71 52.4093 140.285 51.9574 140.011 51.4146Z" fill="#263238"/>
<path d="M133.09 50.7014C133.097 50.9933 133.047 51.2838 132.941 51.5562C132.835 51.8285 132.677 52.0772 132.475 52.2881C131.934 52.8498 131.27 52.4562 131.089 51.7387C130.929 51.0909 131.019 50.0208 131.725 49.7256C131.88 49.6646 132.048 49.6433 132.213 49.6638C132.379 49.6843 132.537 49.7458 132.672 49.8428C132.808 49.9397 132.917 50.0691 132.99 50.219C133.063 50.369 133.097 50.5348 133.09 50.7014Z" fill="#E4897B"/>
<path d="M135.644 79.0443C135.644 79.0443 136.423 99.2819 138.276 111.164C139.769 120.766 146.398 143.201 146.398 143.201H150.589C150.589 143.201 147.132 121.533 146.374 112.041C144.455 88.0192 149.436 82.8614 144.734 77.8594L135.644 79.0443Z" fill="#263238"/>
<path d="M139.146 85.4448C139.146 85.4448 137.252 85.1168 136.145 88.7248C136.555 95.5595 137.256 104.629 138.277 111.164C138.502 112.62 138.846 114.374 139.269 116.297C138.469 104.752 139.146 85.4448 139.146 85.4448Z" fill="#161F33"/>
<path d="M132.376 79.4711C132.376 79.4711 128.924 101.861 129.125 111.23C129.334 120.975 132.905 143.21 132.905 143.21H137.059C137.059 143.21 136.403 121.554 136.768 111.984C137.178 101.55 141.437 78.2944 141.437 78.2944L132.376 79.4711Z" fill="#263238"/>
<path d="M144.525 59.0898C146.128 59.2456 148.563 63.8007 148.563 63.8007L144.517 66.9044C144.517 66.9044 141.167 63.9647 141.565 62.3124C141.979 60.5945 142.987 58.9463 144.525 59.0898Z" fill="#006F98"/>
<path opacity="0.1" d="M144.525 59.0898C146.128 59.2456 148.563 63.8007 148.563 63.8007L144.517 66.9044C144.517 66.9044 141.167 63.9647 141.565 62.3124C141.979 60.5945 142.987 58.9463 144.525 59.0898Z" fill="black"/>
<path d="M143.316 61.0498C142.907 60.9397 142.484 60.8927 142.061 60.9104C141.846 61.3586 141.68 61.8287 141.565 62.3126C141.155 63.9526 144.517 66.9046 144.517 66.9046L144.816 66.675L143.316 61.0498Z" fill="#006F98"/>
<path opacity="0.3" d="M143.316 61.0498C142.907 60.9397 142.484 60.8927 142.061 60.9104C141.846 61.3586 141.68 61.8287 141.565 62.3126C141.155 63.9526 144.517 66.9046 144.517 66.9046L144.816 66.675L143.316 61.0498Z" fill="black"/>
<path d="M131.003 65.4243C129.835 68.3804 128.605 71.3857 127.625 74.35C127.559 74.5386 127.506 74.719 127.449 74.9035L127.309 75.3586C127.271 75.4926 127.271 75.6346 127.309 75.7686C127.541 76.2812 127.908 76.7207 128.371 77.0396C129.597 77.9192 130.933 78.6345 132.344 79.1675L131.975 80.6763C130.239 80.4474 128.56 79.8997 127.022 79.0609C126.076 78.5555 125.306 77.7749 124.812 76.8223C124.529 76.2135 124.431 75.5349 124.529 74.8707C124.539 74.7894 124.552 74.7087 124.57 74.6288L124.611 74.4566L124.681 74.145C124.73 73.9359 124.78 73.735 124.833 73.53C125.243 71.89 125.768 70.332 126.321 68.7863C126.875 67.2406 127.453 65.7154 128.105 64.1943L131.003 65.4243Z" fill="#E4897B"/>
<path d="M128.514 61.2752C128.514 61.2752 127.128 61.9763 132.376 79.471L144.75 77.8556C143.881 72.8454 143.471 69.7417 144.525 59.0899C142.75 58.9629 140.969 58.9629 139.195 59.0899C137.306 59.1998 135.427 59.4464 133.574 59.8279C131.2 60.3568 128.514 61.2752 128.514 61.2752Z" fill="#006F98"/>
<path opacity="0.1" d="M128.514 61.2752C128.514 61.2752 127.128 61.9763 132.376 79.471L144.75 77.8556C143.881 72.8454 143.471 69.7417 144.525 59.0899C142.75 58.9629 140.969 58.9629 139.195 59.0899C137.306 59.1998 135.427 59.4464 133.574 59.8279C131.2 60.3568 128.514 61.2752 128.514 61.2752Z" fill="black"/>
<path d="M144.84 77.1054L145.55 78.1345C145.603 78.2165 145.513 78.3149 145.373 78.3354L132.397 80.0328C132.286 80.0328 132.184 80.0041 132.167 79.9344L131.913 78.8397C131.893 78.7659 131.983 78.688 132.106 78.6716L144.635 77.0316C144.673 77.0256 144.712 77.0292 144.747 77.0421C144.783 77.055 144.815 77.0768 144.84 77.1054Z" fill="#006F98"/>
<path opacity="0.2" d="M144.84 77.1054L145.55 78.1345C145.603 78.2165 145.513 78.3149 145.373 78.3354L132.397 80.0328C132.286 80.0328 132.184 80.0041 132.167 79.9344L131.913 78.8397C131.893 78.7659 131.983 78.688 132.106 78.6716L144.635 77.0316C144.673 77.0256 144.712 77.0292 144.747 77.0421C144.783 77.055 144.815 77.0768 144.84 77.1054Z" fill="black"/>
<path d="M143.34 78.7249L143.677 78.6798C143.742 78.6798 143.787 78.6306 143.779 78.5896L143.435 77.171C143.422 77.1468 143.401 77.1278 143.375 77.1174C143.35 77.1069 143.322 77.1056 143.295 77.1136L142.959 77.1546C142.889 77.1546 142.844 77.2038 142.857 77.2489L143.201 78.6634C143.209 78.7085 143.275 78.7331 143.34 78.7249Z" fill="#263238"/>
<path d="M135.205 79.7744L135.542 79.7293C135.607 79.7293 135.656 79.6801 135.644 79.6391L135.3 78.2205C135.286 78.1966 135.265 78.1777 135.24 78.1666C135.215 78.1555 135.187 78.1528 135.16 78.159L134.824 78.2041C134.759 78.2041 134.709 78.2533 134.722 78.2943L135.066 79.7129C135.074 79.7744 135.14 79.799 135.205 79.7744Z" fill="#263238"/>
<path d="M129.092 67.2118C129.433 68.7944 129.912 70.7993 130.613 73.3372L130.765 66.9043L129.092 67.2118Z" fill="#006F98"/>
<path opacity="0.3" d="M129.092 67.2118C129.433 68.7944 129.912 70.7993 130.613 73.3372L130.765 66.9043L129.092 67.2118Z" fill="black"/>
<path d="M128.515 61.2749C126.977 61.894 125.645 67.1543 125.645 67.1543L130.934 69.7291C130.934 69.7291 133.488 63.2962 132.344 62.0416C131.2 60.787 130.286 60.5656 128.515 61.2749Z" fill="#006F98"/>
<path opacity="0.1" d="M128.515 61.2749C126.977 61.894 125.645 67.1543 125.645 67.1543L130.934 69.7291C130.934 69.7291 133.488 63.2962 132.344 62.0416C131.2 60.787 130.286 60.5656 128.515 61.2749Z" fill="black"/>
<path d="M132.43 78.6593L131.983 78.4748C131.873 78.4302 131.753 78.4153 131.636 78.4319C131.518 78.4484 131.407 78.4957 131.314 78.569C131.221 78.6422 131.149 78.7389 131.105 78.8491C131.061 78.9593 131.047 79.0791 131.064 79.1964L131.388 81.3325C131.404 81.4394 131.443 81.5416 131.503 81.6315C131.563 81.7215 131.642 81.7971 131.734 81.8528C131.827 81.9085 131.931 81.9429 132.038 81.9536C132.146 81.9643 132.254 81.9511 132.356 81.9147C132.518 81.8557 132.671 81.7713 132.807 81.6646C132.955 81.5417 133.073 81.3856 133.149 81.209C133.226 81.0324 133.261 80.8401 133.25 80.6478L133.205 79.7622C133.197 79.5229 133.119 79.2911 132.982 79.0952C132.844 78.8993 132.652 78.7478 132.43 78.6593Z" fill="#E4897B"/>
</svg>
