<svg width="205" height="116" viewBox="0 0 205 116" fill="none" xmlns="http://www.w3.org/2000/svg">
<path d="M97.1699 115.948H18.003C17.3828 115.947 16.7884 115.7 16.3503 115.261C15.9121 114.822 15.666 114.227 15.666 113.607V2.3206C15.6714 1.70397 15.9199 1.11437 16.3575 0.67987C16.795 0.245368 17.3864 0.00105632 18.003 0H97.1699C97.7908 0 98.3863 0.246651 98.8253 0.685692C99.2644 1.12473 99.511 1.7202 99.511 2.3411V113.607C99.511 114.228 99.2644 114.823 98.8253 115.262C98.3863 115.701 97.7908 115.948 97.1699 115.948ZM18.003 0.0820003C17.41 0.0830864 16.8417 0.319417 16.4227 0.739118C16.0038 1.15882 15.7685 1.7276 15.7685 2.3206V113.607C15.7685 114.2 16.0038 114.769 16.4227 115.188C16.8417 115.608 17.41 115.844 18.003 115.845H97.1699C97.7633 115.844 98.3321 115.608 98.7517 115.189C99.1712 114.769 99.4074 114.2 99.4085 113.607V2.3206C99.4074 1.72722 99.1712 1.15845 98.7517 0.738868C98.3321 0.319284 97.7633 0.0830841 97.1699 0.0820003H18.003Z" fill="#EBEBEB"/>
<path d="M185.857 115.948H106.686C106.066 115.947 105.471 115.7 105.032 115.261C104.593 114.822 104.346 114.227 104.345 113.607V2.3206C104.352 1.7036 104.601 1.114 105.039 0.679613C105.478 0.245225 106.069 0.0010448 106.686 0H185.857C186.473 0.00213384 187.064 0.246922 187.5 0.681308C187.937 1.11569 188.185 1.70468 188.19 2.3206V113.607C188.19 114.226 187.945 114.821 187.507 115.259C187.07 115.698 186.477 115.946 185.857 115.948ZM106.686 0.0820003C106.093 0.0830841 105.524 0.319284 105.105 0.738868C104.685 1.15845 104.449 1.72722 104.448 2.3206V113.607C104.449 114.2 104.685 114.769 105.105 115.189C105.524 115.608 106.093 115.844 106.686 115.845H185.857C186.451 115.844 187.019 115.608 187.439 115.189C187.859 114.769 188.095 114.2 188.096 113.607V2.3206C188.095 1.72722 187.859 1.15845 187.439 0.738868C187.019 0.319284 186.451 0.0830841 185.857 0.0820003H106.686Z" fill="#EBEBEB"/>
<path d="M124.365 54.2798H111.397C110.858 54.2798 110.421 54.7167 110.421 55.2556V64.2797C110.421 64.8186 110.858 65.2555 111.397 65.2555H124.365C124.904 65.2555 125.341 64.8186 125.341 64.2797V55.2556C125.341 54.7167 124.904 54.2798 124.365 54.2798Z" fill="#E0E0E0"/>
<path d="M118.227 55.2271H111.516V58.9499H118.227V55.2271Z" fill="#EBEBEB"/>
<path d="M112.787 60.0771H111.516V60.7783H112.787V60.0771Z" fill="#EBEBEB"/>
<path d="M112.787 61.2539H111.516V61.955H112.787V61.2539Z" fill="#EBEBEB"/>
<path d="M112.787 62.4307H111.516V63.1318H112.787V62.4307Z" fill="#EBEBEB"/>
<path d="M112.787 63.6074H111.516V64.3085H112.787V63.6074Z" fill="#EBEBEB"/>
<path d="M114.603 60.0771H113.332V60.7783H114.603V60.0771Z" fill="#EBEBEB"/>
<path d="M114.603 61.2539H113.332V61.955H114.603V61.2539Z" fill="#EBEBEB"/>
<path d="M114.603 62.4307H113.332V63.1318H114.603V62.4307Z" fill="#EBEBEB"/>
<path d="M114.603 63.6074H113.332V64.3085H114.603V63.6074Z" fill="#EBEBEB"/>
<path d="M116.416 60.0771H115.145V60.7783H116.416V60.0771Z" fill="#EBEBEB"/>
<path d="M116.416 61.2539H115.145V61.955H116.416V61.2539Z" fill="#EBEBEB"/>
<path d="M116.416 62.4307H115.145V63.1318H116.416V62.4307Z" fill="#EBEBEB"/>
<path d="M116.416 63.6074H115.145V64.3085H116.416V63.6074Z" fill="#EBEBEB"/>
<path d="M118.228 60.0771H116.957V60.7783H118.228V60.0771Z" fill="#EBEBEB"/>
<path d="M118.228 61.2539H116.957V61.955H118.228V61.2539Z" fill="#EBEBEB"/>
<path d="M118.228 62.4307H116.957V63.1318H118.228V62.4307Z" fill="#EBEBEB"/>
<path d="M118.228 63.6074H116.957V64.3085H118.228V63.6074Z" fill="#EBEBEB"/>
<path d="M124.291 54.2798H120.634V64.3084H124.291V54.2798Z" fill="#F0F0F0"/>
<path d="M124.291 57.0884H120.634V61.2581H124.291V57.0884Z" fill="#E6E6E6"/>
<path d="M120.634 61.2539L121.331 58.9497H123.783L124.291 61.2539H120.634Z" fill="#E0E0E0"/>
<path d="M181.995 10.4712V134.48H155.632L155.681 134.275H178.071V13.9767H131.532V134.275H145.936L155.632 134.48H128.027V10.4712H181.995Z" fill="#EBEBEB"/>
<path d="M178.071 13.9771V134.275H155.681L155.632 134.48L145.936 134.275H131.532V13.9771H178.071Z" fill="#F0F0F0"/>
<path d="M178.071 13.9771H131.532V134.279H178.071V13.9771Z" fill="#F5F5F5"/>
<path d="M178.071 13.9771V46.4491L155.681 134.275L155.632 134.48L145.936 134.275L177.005 13.9771H178.071Z" fill="white"/>
<path d="M136.989 61.4263H131.532V79.3884H136.989V61.4263Z" fill="white"/>
<path d="M162.602 13.9771L131.532 134.279L141.225 134.48L171.946 13.9771H162.602Z" fill="white"/>
<path d="M107.096 118.338C107.081 118.339 107.065 118.336 107.051 118.331C107.036 118.325 107.023 118.317 107.012 118.306C107.001 118.295 106.992 118.283 106.986 118.268C106.98 118.254 106.977 118.239 106.977 118.223C106.616 107.539 109.872 103.463 109.905 103.422C109.925 103.398 109.954 103.383 109.985 103.379C110.017 103.376 110.048 103.386 110.073 103.406C110.097 103.426 110.113 103.455 110.116 103.487C110.119 103.518 110.109 103.55 110.089 103.574C110.056 103.611 106.858 107.633 107.219 118.215C107.22 118.231 107.218 118.247 107.213 118.262C107.208 118.277 107.199 118.29 107.188 118.302C107.178 118.313 107.165 118.323 107.15 118.329C107.136 118.335 107.12 118.338 107.104 118.338H107.096Z" fill="#E0E0E0"/>
<path d="M108.617 118.338C108.601 118.337 108.586 118.332 108.572 118.325C108.559 118.317 108.546 118.307 108.536 118.295C108.526 118.283 108.519 118.269 108.515 118.254C108.51 118.239 108.509 118.223 108.51 118.207C108.797 115.083 109.917 112.697 111.844 111.114C114.845 108.654 118.814 109.027 118.851 109.031C118.866 109.033 118.881 109.037 118.895 109.045C118.909 109.052 118.921 109.062 118.931 109.075C118.941 109.087 118.949 109.101 118.953 109.116C118.958 109.131 118.959 109.147 118.957 109.162C118.956 109.178 118.951 109.193 118.944 109.207C118.936 109.221 118.926 109.233 118.914 109.243C118.902 109.253 118.888 109.26 118.873 109.265C118.858 109.269 118.842 109.271 118.826 109.269C118.789 109.269 114.919 108.896 111.991 111.299C110.118 112.84 109.027 115.173 108.748 118.232C108.747 118.248 108.743 118.263 108.736 118.277C108.729 118.291 108.718 118.304 108.706 118.314C108.694 118.324 108.679 118.331 108.664 118.335C108.649 118.34 108.633 118.341 108.617 118.338Z" fill="#E0E0E0"/>
<path d="M116.358 109.097C115.78 107.933 110.983 107.137 113.73 104.612C116.477 102.086 116.464 107.502 117.686 107.482C119.396 107.453 119.064 100.208 121.884 102.078C124.705 103.947 119.101 106.903 119.998 108.228C120.818 109.458 125.8 105.481 125.911 107.912C126.021 110.343 120.609 108.543 120.261 110.007C119.994 111.151 125.329 112.188 122.963 113.845C120.597 115.501 119.839 110.479 118.535 110.803C117.547 111.049 118.867 115.173 116.874 114.529C114.882 113.886 116.969 110.323 116.358 109.097Z" fill="#F0F0F0"/>
<path d="M105.28 119.671C105.25 119.67 105.221 119.658 105.2 119.638C105.178 119.617 105.164 119.59 105.161 119.56C104.21 110.29 100.04 104.591 99.9868 104.55C99.9655 104.527 99.9536 104.497 99.9536 104.466C99.9536 104.435 99.9655 104.404 99.9868 104.382C99.9994 104.372 100.014 104.365 100.029 104.361C100.044 104.357 100.06 104.356 100.076 104.359C100.092 104.361 100.107 104.366 100.12 104.375C100.134 104.383 100.146 104.394 100.155 104.406C100.2 104.464 104.419 110.191 105.378 119.552C105.38 119.567 105.379 119.583 105.374 119.598C105.37 119.613 105.362 119.627 105.352 119.64C105.342 119.652 105.33 119.662 105.316 119.669C105.303 119.677 105.287 119.681 105.272 119.683L105.28 119.671Z" fill="#E0E0E0"/>
<path d="M101.11 108.06C99.6628 109.265 100.143 116.284 95.6694 113.263C91.1963 110.241 98.81 108.445 98.4 106.731C97.7891 104.329 87.699 107.215 89.38 102.631C91.061 98.0474 97.1045 104.948 98.6912 103.234C100.147 101.664 92.8855 95.9769 96.2721 95.0093C99.6587 94.0417 98.9289 102.266 101.11 102.266C102.808 102.266 102.492 94.4066 105.62 97.1864C108.748 99.9662 101.93 102.709 102.812 104.435C103.492 105.747 108.859 102.508 108.617 105.534C108.375 108.56 102.631 106.797 101.11 108.06Z" fill="#E6E6E6"/>
<path d="M109.031 107.092C110.478 108.297 109.999 115.316 114.472 112.295C118.945 109.273 111.315 107.477 111.753 105.763C112.364 103.361 122.454 106.247 120.773 101.663C119.092 97.0796 113.049 103.98 111.462 102.266C110.003 100.696 117.268 95.0091 113.881 94.0415C110.495 93.0739 111.225 101.299 109.043 101.299C107.346 101.299 107.662 93.4388 104.533 96.2186C101.405 98.9984 108.223 101.741 107.342 103.467C106.661 104.779 101.294 101.54 101.536 104.566C101.778 107.592 107.51 105.829 109.031 107.092Z" fill="#F5F5F5"/>
<path d="M72.3852 77.4902H15.9487V133.927H72.3852V77.4902Z" fill="#EBEBEB"/>
<path d="M68.5067 81.8071H20.2661V133.824H68.5067V81.8071Z" fill="#FAFAFA"/>
<path d="M24.8051 103.431H23.1733V109.343H24.8051V103.431Z" fill="#E6E6E6"/>
<path d="M23.9892 100.684H22.3574V112.299H23.9892V100.684Z" fill="white"/>
<path d="M24.801 100.684H22.3574V102.447H24.801V100.684Z" fill="white"/>
<path d="M24.801 110.532H22.3574V112.295H24.801V110.532Z" fill="white"/>
<path d="M169.121 47.7197C168.908 48.3555 168.54 48.9286 168.052 49.3878C167.563 49.8471 166.968 50.1783 166.321 50.3519H166.3C165.735 50.4932 165.161 50.6 164.582 50.6717L164.299 50.7086C162.34 50.9382 160.331 50.8931 158.367 51.176L158.071 51.2211C157.096 51.4185 156.109 51.5473 155.115 51.6065C154.894 51.6106 154.672 51.6024 154.451 51.5819C153.573 51.5382 152.732 51.2134 152.053 50.6553C151.188 49.8845 150.823 48.7365 150.597 47.5803C151.188 47.3999 151.842 47.1936 152.561 46.9612C157.776 45.2474 152.085 42.3774 153.93 37.7936C156.509 31.3812 167.05 31.8322 166.87 36.2069C170.171 37.031 170.642 43.3491 169.121 47.7197Z" fill="#263238"/>
<path d="M154.598 40.0365C154.357 41.0369 154.279 42.0865 153.918 43.0459C153.557 44.0053 152.831 44.9237 151.823 45.1287C153.34 45.8011 155.218 45.059 156.243 43.7552C157.268 42.4514 157.596 40.7171 157.628 39.0525C157.628 38.6671 157.698 38.2038 157.427 37.9332C155.488 36.0062 154.836 39.0361 154.598 40.0365Z" fill="#263238"/>
<path d="M153.139 57.1581L152.729 57.527L152.405 57.814C152.167 58.0272 151.933 58.2241 151.692 58.4127C151.212 58.794 150.728 59.1753 150.232 59.5279C150.129 59.5976 150.027 59.6714 149.929 59.7329C149.831 59.8063 149.73 59.8747 149.625 59.9379L149.383 60.1018C148.637 60.5938 147.883 61.0531 147.108 61.4877C146.545 61.7965 145.975 62.0835 145.398 62.3487C144.857 62.6029 144.303 62.8366 143.758 63.0498L142.881 63.3655C142.581 63.468 142.282 63.55 141.991 63.6484L141.54 63.7837L141.052 63.9066C140.732 63.9804 140.408 64.0543 140.097 64.1035C137.661 64.4559 135.188 64.4808 132.745 64.1773C131.556 64.0502 130.376 63.8739 129.211 63.673C128.391 63.5295 127.571 63.3614 126.751 63.1605C126.411 63.0826 126.067 62.9924 125.722 62.8981L126.079 61.0612L127.063 61.1474C127.883 61.213 128.682 61.2744 129.486 61.3113C130.622 61.3646 131.757 61.4262 132.889 61.4262C135.08 61.4725 137.27 61.2814 139.42 60.8562C139.67 60.7988 139.916 60.7291 140.158 60.6594L140.511 60.5447L140.888 60.4012C141.134 60.3028 141.38 60.229 141.642 60.1101L142.368 59.782C143.35 59.3277 144.307 58.8241 145.238 58.2733C145.882 57.892 146.517 57.482 147.141 57.0433L147.514 56.7809C147.587 56.7317 147.665 56.6784 147.739 56.621L147.977 56.4529L148.051 56.3995C148.461 56.1002 148.871 55.7805 149.281 55.4607L149.904 54.944L150.482 54.4438L152.425 56.4446L153.139 57.1581Z" fill="#FFC3BD"/>
<path d="M127.481 61.2744L123.82 60.1387L124.488 63.7795C124.488 63.7795 126.448 63.7795 127.383 62.6356L127.481 61.2744Z" fill="#FFC3BD"/>
<path d="M121.266 60.8849L121.963 63.2547L124.496 63.7795L123.828 60.1387L121.266 60.8849Z" fill="#FFC3BD"/>
<path d="M124.148 61.1638C123.758 60.5226 123.545 59.79 123.529 59.04C123.566 58.0642 124.119 58.1339 124.119 58.1339C124.119 58.1339 124.017 59.2942 125.534 61.2499L125.571 61.3032L124.148 61.1638Z" fill="#FFC3BD"/>
<path d="M155.8 56.1696C155.484 57.1208 154.299 58.0105 153.057 58.7116C152.107 59.2402 151.12 59.7006 150.105 60.0892L149.773 60.2122L149.625 59.958L147.76 56.6575L147.452 56.1122L147.723 55.8375C148.977 54.5801 150.35 53.4473 151.823 52.455C152.594 51.9876 153.307 51.7047 153.795 51.8195C156.029 52.3074 156.431 54.3 155.8 56.1696Z" fill="#006F98"/>
<path opacity="0.3" d="M155.8 56.1696C155.484 57.1208 154.299 58.0105 153.057 58.7116C152.107 59.2402 151.12 59.7006 150.105 60.0892L149.773 60.2122L149.625 59.958L147.76 56.6575L147.452 56.1122L147.723 55.8375C148.977 54.5801 150.35 53.4473 151.823 52.455C152.594 51.9876 153.307 51.7047 153.795 51.8195C156.029 52.3074 156.431 54.3 155.8 56.1696Z" fill="black"/>
<path d="M150.117 60.0689C150.139 60.1411 150.134 60.2184 150.104 60.2874C150.074 60.3564 150.021 60.4126 149.953 60.4461C149.88 60.4842 149.796 60.4939 149.717 60.4734C149.637 60.453 149.568 60.4038 149.523 60.3354L149.396 60.1017L147.546 56.7971L147.218 56.2108C147.197 56.1732 147.184 56.1317 147.179 56.0888C147.174 56.046 147.177 56.0025 147.189 55.961C147.201 55.9195 147.221 55.8807 147.248 55.8469C147.275 55.8131 147.308 55.7849 147.346 55.7639C147.371 55.7495 147.399 55.7385 147.428 55.7311C147.481 55.7196 147.537 55.7214 147.59 55.7364C147.643 55.7514 147.691 55.7792 147.731 55.8172C147.753 55.8392 147.773 55.864 147.788 55.891L148.079 56.4158L149.937 59.7327L150.093 60.0115C150.099 60.0314 150.107 60.0507 150.117 60.0689Z" fill="#006F98"/>
<path d="M170.15 51.3852C171.458 51.9879 171.618 52.3323 171.413 53.2794C171.003 55.1121 170.683 56.7357 170.412 58.1994C170.347 58.552 170.285 58.8964 170.224 59.2285C170.224 59.29 170.203 59.3515 170.191 59.4171C170.191 59.4827 170.166 59.5401 170.154 59.6016C170.142 59.6631 170.121 59.7984 170.101 59.8927C168.809 62.8693 168.28 66.4896 168.612 71.8237C168.641 72.2337 168.645 72.6437 168.666 73.0537H167.329H162.942H162.274L157.149 73.0865H156.485H155.029C154.992 72.8569 154.955 72.6396 154.918 72.4182C154.541 70.1878 154.23 68.1911 153.967 66.4199C153.82 65.4072 153.684 64.4642 153.557 63.5909C153.557 63.5909 151.368 60.889 152.167 59.2326C152.639 58.2609 152.856 52.3159 152.938 52.0576C153.02 51.7993 153.09 51.8034 153.09 51.8034C153.5 51.7173 153.91 51.6312 154.299 51.5574C155.494 51.3141 156.694 51.1118 157.899 50.9506C158.309 50.8932 158.74 50.8399 159.162 50.7948C160.82 50.6642 162.485 50.6259 164.148 50.68C164.254 50.68 164.353 50.68 164.459 50.68C164.869 50.68 165.279 50.7128 165.689 50.7374C166.173 50.762 166.657 50.803 167.136 50.844C167.78 50.8778 168.422 50.9449 169.059 51.0449L170.15 51.3852Z" fill="#006F98"/>
<path d="M163.414 43.5171C163.069 45.6286 162.791 49.4867 164.308 50.8356C164.308 50.8356 163.529 55.3866 159.691 56.0754C157.838 55.608 157.789 51.0611 157.789 51.0611C160.093 50.4174 159.322 48.1132 159.486 45.7803L163.414 43.5171Z" fill="#FFC3BD"/>
<path opacity="0.2" d="M159.035 43.5171C159.445 45.1899 159.855 47.9943 159.265 49.786C160.495 49.5277 162.315 48.556 162.569 47.4695C162.644 46.7353 162.659 45.9962 162.614 45.2596L159.035 43.5171Z" fill="black"/>
<path d="M166.193 40.758C165.73 44.2389 165.611 45.7231 163.733 47.3918C160.888 49.9051 156.714 48.5767 156.124 45.0343C155.591 41.8363 156.431 36.6826 159.953 35.5305C160.728 35.2749 161.555 35.2212 162.356 35.3744C163.158 35.5275 163.907 35.8825 164.533 36.4059C165.159 36.9292 165.641 37.6035 165.934 38.365C166.226 39.1266 166.32 39.9502 166.206 40.758H166.193Z" fill="#FFC3BD"/>
<path d="M165.357 36.5884C163.213 38.9377 156.403 39.3764 155.37 38.7286C157.461 35.8135 160.7 34.1653 162.524 34.5466C163.691 34.8489 164.701 35.5774 165.357 36.5884Z" fill="#263238"/>
<path d="M166.817 36.2026H166.788L166.73 36.2805L166.817 36.2026Z" fill="#263238"/>
<path d="M166.87 36.1494L166.809 36.2027C166.823 36.2 166.836 36.1936 166.846 36.1842C166.857 36.1749 166.865 36.1629 166.87 36.1494Z" fill="#263238"/>
<path d="M166.788 36.2028V36.1782L166.73 36.2028C166.73 36.2028 166.776 36.2028 166.788 36.2028Z" fill="#263238"/>
<path d="M167.021 33.8984C167.194 34.2628 167.265 34.6669 167.226 35.0681C167.188 35.4694 167.042 35.8528 166.804 36.178C167.024 36.0903 167.215 35.9437 167.357 35.7543C167.499 35.5649 167.586 35.3401 167.608 35.1046C167.631 34.869 167.588 34.6318 167.484 34.419C167.381 34.2062 167.221 34.0261 167.021 33.8984Z" fill="#263238"/>
<path d="M167.214 44.1896C167.027 44.4719 166.786 44.7143 166.504 44.9029C166.223 45.0915 165.907 45.2225 165.574 45.2884C164.689 45.4565 164.32 44.6529 164.627 43.8575C164.902 43.1359 165.697 42.2175 166.55 42.3692C166.848 42.4411 167.106 42.6282 167.266 42.8894C167.427 43.1506 167.477 43.4647 167.407 43.7632C167.372 43.9168 167.307 44.0618 167.214 44.1896Z" fill="#FFC3BD"/>
<path d="M164.074 36.8587C163.549 37.4778 163.603 38.3634 163.615 39.1752C163.648 41.5532 163.931 44.538 162.114 45.5794C164.263 44.9808 165.981 43.9681 167.075 42.0247C167.94 40.4872 167.895 39.5647 167.239 37.9247C166.747 36.6865 165.267 35.4647 164.074 36.8587Z" fill="#263238"/>
<path opacity="0.1" d="M167.182 53.7632C167.182 53.7632 167.034 60.1551 167.592 62.9882C168.149 65.8213 168.588 65.1161 168.588 65.1161C168.588 65.1161 168.863 60.7168 169.408 59.4909C169.953 58.265 167.182 53.7632 167.182 53.7632Z" fill="black"/>
<path d="M173.401 59.0726C173.365 59.5072 173.34 60.0361 173.315 60.524C173.291 61.0119 173.278 61.5244 173.278 62.0246C173.278 63.0291 173.278 64.0377 173.356 65.034C173.474 67.0076 173.78 68.9653 174.271 70.8806C174.402 71.3357 174.537 71.8154 174.681 72.2541C174.824 72.6928 175.021 73.1479 175.214 73.603C175.624 74.5132 176.062 75.4398 176.53 76.3582C177.469 78.1991 178.465 80.0482 179.453 81.8932L177.879 83.0002C176.46 81.3717 175.143 79.6574 173.934 77.867C173.324 76.9732 172.741 76.0548 172.2 75.0708C171.93 74.5788 171.667 74.0786 171.429 73.5292C171.192 72.9798 171.019 72.455 170.814 71.9138C170.118 69.7741 169.675 67.5599 169.494 65.3169C169.388 64.2104 169.338 63.0992 169.347 61.9877C169.347 61.4301 169.347 60.8848 169.388 60.3272C169.429 59.7696 169.449 59.2366 169.519 58.6216L173.401 59.0726Z" fill="#FFC3BD"/>
<path d="M178.949 81.4956L181.614 83.3611L178.35 85.4439C178.35 85.4439 176.903 83.4759 177.551 81.4751L178.949 81.4956Z" fill="#FFC3BD"/>
<path d="M182.52 86.4317L179.724 87.9077L178.362 85.4477L181.614 83.3608L182.52 86.4317Z" fill="#FFC3BD"/>
<path d="M174.033 54.3371C174.648 58.9578 173.262 59.7081 173.262 59.7081L168.936 60.1181C168.936 60.1181 166.808 53.677 168.063 52.1026C169.371 50.4626 173.733 52.0944 174.033 54.3371Z" fill="#006F98"/>
<path opacity="0.3" d="M174.033 54.3371C174.648 58.9578 173.262 59.7081 173.262 59.7081L168.936 60.1181C168.936 60.1181 166.808 53.677 168.063 52.1026C169.371 50.4626 173.733 52.0944 174.033 54.3371Z" fill="black"/>
<path d="M173.672 59.6424C173.68 59.7314 173.652 59.8201 173.596 59.8891C173.539 59.9582 173.457 60.0021 173.368 60.0114L168.973 60.4214C168.885 60.4294 168.796 60.402 168.728 60.3451C168.66 60.2882 168.617 60.2066 168.608 60.118C168.599 60.0305 168.625 59.9429 168.68 59.8745C168.736 59.8061 168.816 59.7624 168.903 59.7531L173.299 59.3431C173.388 59.3339 173.477 59.3601 173.547 59.4162C173.617 59.4722 173.661 59.5535 173.672 59.6424Z" fill="#006F98"/>
<path d="M154.906 72.4428L154.308 73.7507C154.258 73.8532 154.369 73.9557 154.545 73.9434L168.654 73.3038C168.785 73.3038 168.891 73.23 168.895 73.1521L168.982 71.8647C168.982 71.7745 168.871 71.7007 168.727 71.7048L155.14 72.3157C155.093 72.3149 155.047 72.3262 155.006 72.3485C154.965 72.3708 154.931 72.4032 154.906 72.4428Z" fill="#263238"/>
<path d="M156.923 73.9927H156.538C156.46 73.9927 156.398 73.9599 156.403 73.9148L156.526 72.2379C156.526 72.1928 156.595 72.1477 156.673 72.1436H157.063C157.136 72.1436 157.202 72.1805 157.194 72.2256L157.075 73.9025C157.063 73.9318 157.041 73.9565 157.014 73.9727C156.987 73.989 156.955 73.996 156.923 73.9927Z" fill="#006F98"/>
<path d="M167.649 73.6029H167.263C167.186 73.6029 167.124 73.5701 167.124 73.5209L167.247 71.844C167.247 71.7989 167.317 71.7497 167.395 71.7497H167.805C167.819 71.7447 167.835 71.743 167.85 71.7448C167.865 71.7467 167.88 71.7519 167.893 71.7602C167.906 71.7684 167.917 71.7795 167.925 71.7926C167.933 71.8057 167.938 71.8205 167.94 71.8358L167.821 73.5127C167.796 73.5578 167.727 73.5988 167.649 73.6029Z" fill="#006F98"/>
<path d="M162.729 73.8H162.339C162.325 73.8051 162.31 73.8068 162.294 73.805C162.279 73.8032 162.265 73.7979 162.252 73.7896C162.239 73.7812 162.229 73.77 162.221 73.7569C162.214 73.7438 162.209 73.729 162.208 73.7139L162.327 72.0411C162.327 71.996 162.401 71.9509 162.479 71.9468H162.864C162.942 71.9468 163.003 71.9837 162.999 72.0329L162.876 73.7098C162.872 73.759 162.794 73.8 162.729 73.8Z" fill="#006F98"/>
<path d="M160.822 41.3645C160.802 41.6474 160.63 41.8606 160.449 41.8524C160.269 41.8442 160.125 41.6023 160.146 41.3153C160.166 41.0283 160.335 40.8192 160.519 40.8274C160.704 40.8356 160.839 41.0816 160.822 41.3645Z" fill="#263238"/>
<path d="M157.604 41.1391C157.579 41.422 157.415 41.6393 157.231 41.6311C157.046 41.6229 156.907 41.3769 156.932 41.0899C156.956 40.8029 157.116 40.5897 157.301 40.5979C157.485 40.6061 157.637 40.848 157.604 41.1391Z" fill="#263238"/>
<path d="M157.382 40.6186L156.718 40.3931C156.718 40.3931 157.03 40.9179 157.382 40.6186Z" fill="#263238"/>
<path d="M158.42 41.6885C158.12 42.3191 157.737 42.9066 157.28 43.4351C157.418 43.5475 157.578 43.6289 157.75 43.6735C157.922 43.718 158.102 43.7248 158.277 43.6934L158.42 41.6885Z" fill="#ED847E"/>
<path d="M159.728 44.8579C159.553 44.8743 159.377 44.8743 159.203 44.8579C159.194 44.8574 159.185 44.8551 159.177 44.8511C159.168 44.8471 159.161 44.8415 159.155 44.8346C159.149 44.8278 159.144 44.8198 159.141 44.8111C159.138 44.8024 159.137 44.7933 159.137 44.7841C159.139 44.766 159.148 44.7493 159.162 44.7371C159.175 44.725 159.193 44.7184 159.211 44.7185C159.568 44.7525 159.927 44.7015 160.26 44.5697C160.593 44.4378 160.889 44.2289 161.126 43.96C161.13 43.9521 161.135 43.945 161.142 43.9392C161.149 43.9335 161.156 43.9291 161.165 43.9264C161.173 43.9237 161.182 43.9228 161.191 43.9236C161.2 43.9245 161.208 43.9271 161.216 43.9313C161.224 43.9339 161.231 43.9382 161.238 43.944C161.244 43.9497 161.249 43.9568 161.252 43.9646C161.255 43.9724 161.256 43.9809 161.256 43.9893C161.255 43.9977 161.253 44.0059 161.249 44.0133C160.873 44.4842 160.326 44.7877 159.728 44.8579Z" fill="#263238"/>
<path d="M162.147 39.4376C162.123 39.4394 162.099 39.4355 162.077 39.4262C162.055 39.4169 162.035 39.4026 162.02 39.3843C161.892 39.2103 161.725 39.0698 161.531 38.9748C161.338 38.8798 161.124 38.8332 160.909 38.839C160.871 38.8413 160.834 38.8288 160.806 38.8043C160.778 38.7798 160.76 38.7451 160.757 38.7078C160.755 38.6897 160.757 38.6714 160.763 38.6541C160.768 38.6368 160.777 38.6208 160.789 38.607C160.801 38.5932 160.816 38.582 160.832 38.5739C160.848 38.5659 160.866 38.5612 160.884 38.5602C161.146 38.5505 161.406 38.6048 161.641 38.7184C161.877 38.832 162.082 39.0015 162.237 39.2121C162.249 39.226 162.257 39.2421 162.262 39.2594C162.268 39.2766 162.269 39.2948 162.267 39.3128C162.266 39.3307 162.26 39.3481 162.251 39.3639C162.243 39.3797 162.231 39.3936 162.217 39.4048C162.196 39.4214 162.172 39.4327 162.147 39.4376Z" fill="#263238"/>
<path d="M156.448 39.1178C156.424 39.1239 156.4 39.124 156.376 39.1183C156.353 39.1126 156.331 39.1011 156.313 39.085C156.287 39.0588 156.272 39.0235 156.272 38.9866C156.272 38.9497 156.287 38.9143 156.313 38.8882C156.488 38.6943 156.708 38.546 156.954 38.456C157.2 38.366 157.464 38.337 157.723 38.3716C157.758 38.3767 157.79 38.3954 157.812 38.4238C157.833 38.4522 157.843 38.488 157.838 38.5233C157.835 38.5411 157.828 38.5581 157.819 38.5732C157.809 38.5884 157.796 38.6014 157.781 38.6114C157.766 38.6214 157.749 38.6282 157.731 38.6314C157.714 38.6346 157.695 38.634 157.678 38.6299C157.464 38.6062 157.248 38.6336 157.047 38.7099C156.846 38.7861 156.666 38.9091 156.522 39.0686C156.502 39.0918 156.477 39.1089 156.448 39.1178Z" fill="#263238"/>
<path d="M154.738 73.7627C154.738 73.7627 146.415 92.3029 146.058 107.739C145.821 118.08 147.6 139.519 147.6 139.519L153.574 140.777C153.574 140.777 153.894 118.809 154.656 110.327C155.964 95.8084 165.267 73.3896 165.267 73.3896L154.738 73.7627Z" fill="#006F98"/>
<path opacity="0.4" d="M154.738 73.7627C154.738 73.7627 146.415 92.3029 146.058 107.739C145.821 118.08 147.6 139.519 147.6 139.519L153.574 140.777C153.574 140.777 153.894 118.809 154.656 110.327C155.964 95.8084 165.267 73.3896 165.267 73.3896L154.738 73.7627Z" fill="white"/>
<path opacity="0.2" d="M159.838 80.6221L160.954 84.8697C159.113 90.1504 157.538 95.5199 156.235 100.958C154.939 92.8811 158.289 84.2465 159.838 80.6221Z" fill="black"/>
<path d="M157.878 73.6849C157.878 73.6849 156.181 94.7671 159.297 108.26C161.814 119.158 170.83 136.923 170.83 136.923L174.93 134.303C174.93 134.303 171.716 120.433 169.662 113.102C164.623 95.1197 173.7 84.8779 169.088 73.2339L157.878 73.6849Z" fill="#006F98"/>
<path opacity="0.4" d="M157.878 73.6849C157.878 73.6849 156.181 94.7671 159.297 108.26C161.814 119.158 170.83 136.923 170.83 136.923L174.93 134.303C174.93 134.303 171.716 120.433 169.662 113.102C164.623 95.1197 173.7 84.8779 169.088 73.2339L157.878 73.6849Z" fill="white"/>
<path d="M160.601 40.8439L159.933 40.6143C159.933 40.6143 160.244 41.1596 160.601 40.8439Z" fill="#263238"/>
<path d="M29.7701 14.4277L30.0407 17.5232H22.8329L23.4643 24.731H20.3688L19.4668 14.4277H29.7701Z" fill="#006F98"/>
<path d="M39.1223 123.759L38.8517 120.663H31.6439L31.0125 113.451H27.917L28.819 123.759H39.1223Z" fill="#006F98"/>
<path d="M101.807 123.758L101.537 120.663H108.744L108.113 113.455H111.209L112.111 123.758H101.807Z" fill="#006F98"/>
<path d="M92.041 14.6777L92.3116 17.7732H99.5235L100.155 24.9851H103.246L102.348 14.6777H92.041Z" fill="#006F98"/>
<path d="M78.0435 24.5998L79.0603 24.7843L78.2198 24.1365C77.9984 23.9643 77.7688 23.7921 77.5433 23.6281L77.49 23.5871H77.4244C72.2297 22.5498 65.9075 20.7335 58.63 18.1218L58.5685 18.0972H58.5029C58.261 18.13 58.0191 18.171 57.7813 18.2161L56.8711 18.3924L57.7813 18.7245C65.7107 21.6109 72.529 23.5789 78.0435 24.5998Z" fill="#006F98"/>
<path d="M81.7868 27.9085L82.6068 28.1012L82 27.4698C81.8442 27.3058 81.6843 27.15 81.5203 26.9901L81.4629 26.9368H81.385C74.1362 25.2148 64.9604 22.6892 54.1241 19.4379L54.0257 19.4092L53.9396 19.4461L53.4681 19.6716L52.8818 19.9627L53.546 20.1636C64.8702 23.5543 74.3699 26.166 81.7868 27.9085Z" fill="#006F98"/>
<path d="M85.2306 31.8484L86.0506 32.1354L85.5217 31.4507C85.4438 31.3482 85.3618 31.2498 85.2839 31.1514L85.1773 31.0202V30.9177L84.9969 30.8521C78.728 28.6381 67.6949 25.2146 50.7168 21.4631L50.602 21.4385L50.5118 21.5041C50.3888 21.5943 50.2658 21.6804 50.1428 21.7788L49.7041 22.1232L50.2822 22.2503C67.6498 26.0838 78.8838 29.5852 85.2306 31.8484Z" fill="#006F98"/>
<path d="M88.4043 36.4162L89.2243 36.8262L88.7282 36.0471L88.3715 35.4855L88.3264 35.4158L88.2526 35.383C80.7045 31.5782 67.5558 26.5105 47.7733 23.9521H47.6503L47.5683 24.0342L47.2485 24.3539L46.8877 24.7352L47.4412 24.8049C67.5927 27.3674 80.8398 32.5335 88.4043 36.4162Z" fill="#006F98"/>
<path d="M83.0741 36.6538C85.8809 38.035 88.5916 39.6034 91.188 41.3483L92.008 41.8895L91.5775 41.0326C91.4914 40.8604 91.4012 40.6964 91.3151 40.5283L91.2741 40.4545V40.3684L91.1552 40.2905C88.681 38.6619 86.1081 37.1886 83.4513 35.8789C75.6613 32.0167 62.6971 27.3099 45.2147 26.7974H45.0876L45.0138 26.8917L44.7432 27.232L44.3906 27.642H44.9687C62.3937 28.1217 75.3087 32.7998 83.0741 36.6538Z" fill="#006F98"/>
<path d="M46.699 34.9029L46.9614 34.9275V34.0501L46.6949 34.0255C44.5646 33.8568 42.421 34.0523 40.3563 34.6036L40.2497 34.6323L40.2046 34.7348C40.139 34.8742 40.0775 35.0136 40.016 35.1448L39.7905 35.6819L40.3563 35.5179C42.417 34.9365 44.565 34.7282 46.699 34.9029Z" fill="#006F98"/>
<path d="M83.3654 39.5321C86.9524 41.5239 90.36 43.823 93.5498 46.4037L94.3001 47.0269L93.9352 46.129C93.845 45.9035 93.7466 45.6821 93.6482 45.4648L93.6195 45.3992L93.5621 45.35C79.235 33.9614 61.1173 28.4395 42.8738 29.9012H42.7508L42.6893 29.9996C42.6114 30.1185 42.5376 30.2415 42.4638 30.3645L42.6852 30.5285L42.4556 30.3809L42.1768 30.8401L42.7303 30.795C56.8429 29.5993 70.9914 32.6414 83.3654 39.5321Z" fill="#006F98"/>
<path d="M56.0388 33.2099C65.4401 34.2472 79.8188 37.9413 94.8699 49.6468L95.571 50.1921L95.2676 49.3721C95.2143 49.2245 95.1569 49.0769 95.0995 48.9252L95.0503 48.7981V48.7079L94.9478 48.63C79.8434 37.0393 65.4606 33.3698 56.0511 32.3325C51.2043 31.7866 46.3105 31.8031 41.4674 32.3817H41.3444L40.8442 33.3452L41.3813 33.2755C46.2475 32.6764 51.1675 32.6543 56.0388 33.2099Z" fill="#006F98"/>
<path d="M38.9252 67.2111L38.1052 66.8667L38.0191 67.1045C36.781 71.1107 35.9499 75.2316 35.5386 79.4045V79.4455V79.4865C35.6165 79.8555 35.7026 80.2245 35.7928 80.5935L36.1782 82.1925L36.3135 80.5976C36.6764 76.1351 37.5274 71.7259 38.8514 67.4489L38.9252 67.2111Z" fill="#006F98"/>
<path d="M37.5479 52.3364V52.0699L36.6623 52.0166V52.2831C36.814 57.814 36.1826 64.5298 34.6123 74.0623V74.1402C34.6615 74.5502 34.7189 74.9602 34.7804 75.3456L35.0305 77.0143L35.3011 75.3743C37.0108 65.2309 37.7201 58.1215 37.5479 52.3364Z" fill="#006F98"/>
<path d="M39.9548 64.419L41.0905 60.8602L40.2418 60.5322L39.1143 64.091L39.9548 64.419Z" fill="#006F98"/>
<path d="M37.6869 50.0199C37.9245 48.3264 38.6857 46.7495 39.864 45.5099L40.0567 45.3336L39.4171 44.6899L39.2367 44.858C37.9145 46.2187 37.0637 47.9676 36.8095 49.8477L36.7808 50.1019L37.6582 50.2864L37.6869 50.0199Z" fill="#006F98"/>
<path d="M38.0356 57.2604L38.9212 57.367V57.1046C39.0032 54.7143 41.3812 51.3646 41.5001 51.2334L41.6477 51.0284L40.922 50.479L40.7703 50.6799C40.6719 50.8398 38.1299 54.2674 38.0438 56.9898L38.0356 57.2604Z" fill="#006F98"/>
<path d="M43.1976 53.0455L43.3862 52.8651L42.7138 52.2173L42.5375 52.4059C42.2218 52.7462 39.4092 55.895 37.9168 62.3443L37.8594 62.5944L38.7245 62.8609L38.7819 62.6108C40.2907 56.0877 43.173 53.0742 43.1976 53.0455Z" fill="#006F98"/>
<path d="M43.7057 56.3868L42.9431 55.8784L41.0161 59.0149L41.7828 59.5233L43.7057 56.3868Z" fill="#006F98"/>
<path d="M44.1977 45.5878L44.4396 45.514L44.1116 44.6694L43.8656 44.7473C43.677 44.8088 39.2654 46.252 38.0436 50.8112L37.978 51.0613L38.8308 51.3524L38.8964 51.1064C40.0116 46.9572 44.0255 45.6452 44.1977 45.5878Z" fill="#006F98"/>
<path d="M45.5099 39.8231L45.7723 39.7862L45.5632 38.917L45.309 38.9539C41.1311 39.5607 38.749 41.0654 37.4944 42.2339L37.4083 42.32V42.3938L36.8999 44.206L37.6789 43.3614C38.6219 42.3241 40.9138 40.4914 45.5099 39.8231Z" fill="#006F98"/>
<path d="M57.281 36.4895C66.6577 36.8544 81.0077 40.0524 96.1449 53.2216L96.8542 53.8366L96.559 52.9633C96.4893 52.7624 96.4237 52.5533 96.3499 52.3647V52.2786L96.2556 52.2007C81.0446 39.1422 66.6331 35.9729 57.2236 35.6121C47.5763 35.239 40.7088 37.6211 38.8351 38.3591L38.7408 38.396L38.7039 38.4903C38.6547 38.6133 38.6096 38.7404 38.5686 38.8634L38.3267 39.544L38.9048 39.3062C40.1799 38.7445 47.1499 36.0795 57.281 36.4895Z" fill="#006F98"/>
<path d="M58.3962 38.8433C47.6829 39.2533 40.4669 43.5911 40.1594 43.7633L39.938 43.8945L40.4587 44.6489L40.676 44.5177C40.9712 44.3373 48.0314 40.0938 58.5192 39.7043C67.8221 39.3517 82.1024 42.029 97.2888 56.7808L97.9858 57.4573L97.7193 56.543C97.6537 56.3216 97.584 56.1002 97.5143 55.8829L97.4938 55.8091L97.4364 55.7558C82.1557 41.1434 67.7729 38.4948 58.3962 38.8433Z" fill="#006F98"/>
<path d="M78.2323 44.7389C72.3376 42.2836 65.9135 41.3747 59.5691 42.0985C48.9501 43.3572 42.0047 48.9907 41.9391 49.0481L41.7505 49.208L42.3409 49.9009L42.5336 49.741C47.5971 46.0441 53.5277 43.7142 59.7536 42.976C68.954 41.8813 83.1236 44.0256 98.2936 60.4133L98.9947 61.1677L98.7364 60.196C98.6708 59.9582 98.6093 59.7245 98.5437 59.4908V59.421L98.4945 59.3719C92.0165 52.4798 85.1982 47.5597 78.2323 44.7389Z" fill="#006F98"/>
<path d="M69.6999 44.8537C54.5299 43.4761 43.8699 54.1935 43.7551 54.2837L43.5747 54.4641L44.2389 55.0996L44.4152 54.9233C44.5177 54.8167 54.9399 44.3658 69.6958 45.7106C79.8802 46.6372 89.8145 52.7954 99.2158 64.013L99.9292 64.8617L99.6709 63.8121C99.6135 63.5743 99.5561 63.3447 99.5028 63.1069V63.0331L99.4454 62.9634C89.9703 51.8934 79.9499 45.7926 69.6999 44.8537Z" fill="#006F98"/>
<path d="M44.2801 61.3726C51.5945 50.8807 66.3422 43.9968 82.8201 52.2706C91.385 56.5715 94.9684 61.6801 99.1176 67.5923C99.5112 68.1526 99.913 68.7211 100.323 69.2979L100.995 70.2409L100.795 69.1338C100.745 68.8673 100.7 68.6049 100.651 68.3672V68.2892L100.606 68.2278C100.344 67.8588 100.085 67.4939 99.831 67.1249C95.5998 61.1061 91.9467 55.9072 83.1686 51.4915C66.2315 42.9799 51.0697 50.0484 43.5544 60.8273C36.691 70.6673 37.1789 82.0037 38.085 87.8872V87.9447C38.2982 88.5064 38.495 89.068 38.7328 89.6174L39.2371 89.5109C37.2076 79.1297 39.0485 68.8797 44.2801 61.3726Z" fill="#006F98"/>
<path d="M80.2124 89.556C78.6585 85.5544 77.9205 85.1321 77.3424 85.2715C75.9074 85.6159 77.2358 90.8352 77.2481 90.8885C77.9861 93.7134 89.6629 100.195 94.6485 102.848L94.874 102.971L95.284 102.225L95.0298 102.09C87.1824 97.9036 78.6298 92.7212 78.0968 90.7368C77.5146 88.5064 77.4982 86.7557 77.6212 86.2268C77.8467 86.4769 78.3961 87.2846 79.3719 89.7979C81.6966 95.788 90.6592 99.273 95.7965 100.815L95.9974 100.876L96.0917 100.7L96.2598 100.368L96.3992 100.081L96.0753 99.9823C91.0856 98.4694 82.3608 95.091 80.2124 89.556Z" fill="#006F98"/>
<path d="M81.4054 88.1499C79.831 84.5173 78.5928 82.9224 77.3956 83.0003C76.1984 83.0782 75.3456 84.8371 74.7552 88.7731C73.9352 94.0539 88.8551 102.414 93.4471 104.853L93.6521 104.964L93.7751 104.784C93.8448 104.685 93.9063 104.583 93.9678 104.484L94.1154 104.246L93.8489 104.103C84.669 99.2199 75.0627 92.6599 75.6285 88.9699C76.3296 84.4107 77.1824 83.8818 77.535 83.8654C77.7892 83.8654 78.765 84.1934 80.5977 88.4205C82.4304 92.6476 87.7891 96.3868 96.5098 99.3716L96.7312 99.4495L96.8173 99.2486C96.8419 99.1953 96.8665 99.1461 96.887 99.0969C96.9075 99.0477 96.9403 98.9903 96.9649 98.9329L97.0838 98.6623L96.7845 98.5639C88.4246 95.7144 83.1069 92.1105 81.4054 88.1499Z" fill="#006F98"/>
<path d="M82.5986 86.7352C80.6101 82.5696 78.7774 80.536 76.9734 80.5196C75.1694 80.5032 73.6442 82.5696 72.2707 86.7639C69.7779 94.3817 86.8298 104.025 92.1147 106.797L92.3156 106.903L92.824 106.206L92.5329 106.054C88.8839 104.127 70.8029 94.1644 73.1112 87.1001C74.3412 83.3691 75.6942 81.397 77.0636 81.397C78.433 81.397 80.0443 83.3732 81.8032 87.0591C83.7548 91.1591 88.7732 94.6974 97.1413 97.92L97.3586 98.0061L97.457 97.8093C97.5107 97.6999 97.5587 97.5877 97.6005 97.4731L97.6989 97.2189L97.4283 97.1164C89.2816 93.9799 84.4313 90.581 82.5986 86.7352Z" fill="#006F98"/>
<path d="M83.7874 85.3289C81.229 80.4704 78.7157 77.9489 76.3172 77.8997C73.9187 77.8505 71.7498 80.1547 69.7818 84.7918C67.8138 89.4289 70.9585 95.0869 78.8428 101.192C82.5721 104.007 86.5253 106.512 90.6631 108.682L90.8558 108.781L90.9788 108.629L91.2043 108.359L91.4011 108.108L91.0977 107.953C86.9772 105.8 66.6289 94.599 70.5977 85.2018C72.4181 80.8927 74.3574 78.7361 76.3664 78.7894C78.3754 78.8427 80.6345 81.1797 83.0125 85.6897C85.7185 90.827 92.709 94.2997 97.7356 96.4522L97.9816 96.5588L98.1128 96.2185C98.1374 96.1447 98.1661 96.075 98.1907 96.0012L98.2768 95.7634L98.0267 95.6568C93.1395 93.5453 86.3499 90.1997 83.7874 85.3289Z" fill="#006F98"/>
<path d="M84.9766 83.9188C81.631 78.1419 78.5232 75.3088 75.4728 75.194C72.5208 75.1079 69.7779 77.6786 67.2728 82.8364C66.0428 85.4112 65.9649 88.2033 67.0924 91.1266C70.7291 100.577 86.0344 108.908 89.0643 110.483L89.2447 110.573L89.3718 110.442L89.6137 110.179L89.8392 109.929L89.5153 109.761C86.5264 108.215 71.4425 100.04 67.9124 90.8724C66.8792 88.191 66.9325 85.6326 68.0764 83.271C70.3847 78.4945 72.8488 76.0755 75.4072 76.0755H75.5097C78.2034 76.1575 81.0488 78.8471 84.2099 84.3042C86.9815 89.093 93.1766 92.5042 98.2647 94.9396L98.5189 95.0585L98.6132 94.8125C98.6542 94.7059 98.6911 94.5952 98.728 94.4845L98.8059 94.2549L98.5722 94.1442C93.6276 91.7662 87.6006 88.4575 84.9766 83.9188Z" fill="#006F98"/>
<path d="M86.1657 82.5081C83.2301 77.8997 79.2408 72.5697 74.5094 72.4385H74.3659C70.9547 72.4385 67.7321 75.2798 64.7883 80.8886C63.0745 84.1686 62.8859 87.6495 64.2266 91.2657C68.1298 101.811 84.1649 110.564 87.3383 112.213L87.5064 112.299L87.6335 112.184C87.7237 112.102 87.8139 112.02 87.9 111.934L88.1624 111.684L87.8139 111.503C84.6815 109.88 68.8801 101.331 65.0507 91.0197C63.8207 87.6495 63.9806 84.3941 65.5837 81.3437C68.4168 75.9358 71.4385 73.2216 74.5709 73.3118C78.8431 73.4143 82.6192 78.5024 85.4318 82.9263C88.3018 87.4363 93.7835 90.7409 98.7814 93.3936L99.052 93.5371L99.1422 93.2665C99.1791 93.1517 99.2119 93.0369 99.2447 92.9262L99.298 92.7171L99.0971 92.6064C94.2263 90.0152 88.884 86.7844 86.1657 82.5081Z" fill="#006F98"/>
<path d="M87.3504 81.0895L87.2807 80.9911C84.341 76.7722 79.421 69.7079 73.4473 69.6382H73.3653C69.4334 69.6382 65.7065 72.7665 62.2953 78.937C61.2103 80.814 60.5578 82.9095 60.3855 85.0708C60.2131 87.232 60.5252 89.4044 61.299 91.4297C65.3088 102.606 80.7781 111.417 85.4234 113.853L85.5792 113.935L85.735 113.812C85.8252 113.742 85.9154 113.672 86.0015 113.598L86.2926 113.348L85.9277 113.16C82.6477 111.458 66.1493 102.414 62.1231 91.2001C61.3964 89.2894 61.1047 87.2407 61.2693 85.2031C61.4338 83.1655 62.0504 81.1901 63.0743 79.4208C66.3543 73.4758 69.8803 70.4787 73.517 70.5279C79.011 70.5935 83.7465 77.3995 86.5714 81.4626L86.6411 81.561C89.6177 85.8373 94.9395 89.2936 99.2404 91.811L99.5274 91.9832L99.7652 91.1386L99.5725 91.0279C95.3864 88.5597 90.1999 85.2018 87.3504 81.0895Z" fill="#006F98"/>
<path d="M88.5597 79.6876C88.4121 79.4949 88.2563 79.2776 88.0964 79.0685L87.7069 78.556C84.4269 74.1813 78.978 66.8587 72.3893 66.8423C67.9408 66.8423 63.7137 70.2576 59.8146 76.9939C57.1004 81.6925 56.6207 86.6166 58.3878 91.6309C62.5862 103.558 78.527 112.816 83.3117 115.37L83.4552 115.444L84.2752 114.907L83.8652 114.693C79.1256 112.192 63.3652 103.119 59.2283 91.4095C57.5514 86.6453 57.9983 81.9795 60.5977 77.4695C64.341 70.9915 68.3385 67.7115 72.4877 67.7115C78.5844 67.7115 83.8652 74.8004 87.0222 79.0275C87.3256 79.4375 87.6126 79.8188 87.8791 80.1673C90.9992 84.2673 95.8249 87.6621 99.6789 90.1631L99.9823 90.3599L100.068 90.0319L100.155 89.6793L100.191 89.4948L100.023 89.3841C96.2554 86.961 91.565 83.64 88.5597 79.6876Z" fill="#006F98"/>
<path d="M91.2944 78.8102C83.4593 67.0924 76.4647 64.5873 71.9711 64.5504C66.6411 64.5299 61.9999 67.8304 58.8511 73.9394C55.1611 81.139 54.6609 88.2074 57.4079 94.9437C62.1598 106.588 75.3454 114.107 80.7779 116.797L80.8968 116.854L81.0075 116.805C81.1428 116.743 81.274 116.674 81.4175 116.604L81.8562 116.37L81.3765 116.132C77.1617 114.082 63.0372 106.461 58.2279 94.6731C55.5793 88.191 56.059 81.3645 59.6465 74.3904C62.619 68.6135 66.9855 65.4319 71.9465 65.4319H72.0367C76.3007 65.4647 82.9714 67.8919 90.5728 79.253C92.9016 82.738 97.0672 85.8909 100.15 87.9204L100.47 88.1295L100.548 87.7441C100.573 87.6334 100.593 87.5227 100.614 87.4161L100.646 87.2398L100.487 87.1332C97.5223 85.1693 93.5166 82.1271 91.2944 78.8102Z" fill="#006F98"/>
<path d="M92.3645 76.932C89.1419 72.1596 86.0177 68.7812 82.5245 66.3007C77.8259 62.9592 73.0084 61.6267 68.5845 62.4385C63.7793 63.3282 59.5645 66.7476 56.6617 72.0653C50.2698 83.8241 53.5703 93.6682 57.4817 99.851C63.5128 109.515 74.5664 115.48 79.0395 117.596L79.1502 117.645L79.2527 117.604C79.4003 117.547 79.5397 117.489 79.6627 117.424L80.1752 117.194L79.634 116.944C75.1855 114.894 64.1893 109.031 58.1951 99.4369C54.4313 93.4591 51.2251 83.9389 57.4407 72.5327C60.2164 67.4241 64.2549 64.1482 68.8141 63.3036C72.9797 62.5328 77.5553 63.812 82.0407 66.9936C85.4232 69.3962 88.4695 72.6926 91.6265 77.3666C93.4469 80.0644 96.4194 82.9549 100.462 85.9766L100.794 86.2226L100.868 85.8413C100.897 85.7142 100.917 85.5871 100.933 85.4559L100.958 85.2919L100.819 85.1894C96.9524 82.2825 94.0988 79.5068 92.3645 76.932Z" fill="#006F98"/>
<path d="M93.435 75.0582C89.8475 69.7897 86.6126 66.4482 82.6274 63.8283C77.4737 60.4622 72.2052 59.183 67.3836 60.1383C62.1807 61.1592 57.601 64.7303 54.485 70.1874C49.155 79.5067 49.2616 90.22 54.7351 99.5844C60.799 109.953 72.3651 116.116 77.035 118.285L77.1293 118.326L77.2195 118.301C77.3753 118.26 77.527 118.211 77.6787 118.162L78.347 117.944L77.7115 117.657C73.0375 115.538 61.5165 109.494 55.4936 99.2072C52.3735 93.8772 48.1956 83.0696 55.264 70.6835C58.2652 65.4273 62.644 61.9915 67.6255 61.0116C72.2175 60.1055 77.2523 61.3355 82.1887 64.5622C86.0632 67.096 89.212 70.3719 92.7175 75.5174C94.4887 78.1209 97.1947 80.9335 100.762 83.8855L101.118 84.1807L101.18 83.7461C101.2 83.6108 101.217 83.4755 101.229 83.3361V83.1926L101.11 83.0942C97.7195 80.2488 95.1201 77.5469 93.435 75.0582Z" fill="#006F98"/>
<path d="M94.5051 73.1807C91.6556 69.0315 88.2526 64.7265 82.7258 61.3563C68.5152 52.6889 57.4534 59.6876 52.2997 68.3263C46.6499 77.7809 46.5597 89.3675 51.9963 99.3264C57.7609 109.855 68.671 116.063 74.6611 118.83L74.739 118.867H74.821C75.0178 118.834 75.231 118.801 75.4114 118.76L76.1945 118.609L75.4319 118.264C69.4295 115.554 58.4989 109.449 52.763 98.9943C47.4576 89.3183 47.5724 78.0515 53.0664 68.8593C58.0233 60.5568 68.6464 53.8123 82.3158 62.1394C87.6745 65.4194 90.9996 69.6178 93.7958 73.6768C95.8794 76.5757 98.2835 79.2302 100.963 81.5898L101.352 81.9465L101.397 81.4504C101.397 81.3069 101.418 81.1634 101.426 81.0404L101.163 80.9953L101.426 81.0322V80.901L101.323 80.8067C98.7761 78.5241 96.4894 75.9666 94.5051 73.1807Z" fill="#006F98"/>
<path d="M95.5751 71.3028C92.0491 66.2229 88.5354 62.168 82.8282 58.8921C76.2682 55.1078 69.5401 54.0705 63.4188 55.8909C58.0888 57.4858 53.3533 61.2209 50.1061 66.4443C44.0463 76.1572 43.7306 88.3465 49.2533 99.0475C54.8252 109.843 65.6533 116.218 71.6393 119.06L71.6967 119.084H71.75C72.0124 119.084 72.2707 119.084 72.5331 119.084L73.5581 119.027L72.5905 118.584C66.5594 115.804 55.6083 109.535 50.0405 98.7195C44.6654 88.3014 44.977 76.4319 50.8605 66.9691C56.2479 58.3222 67.7525 51.221 82.4305 59.6588C87.9778 62.8486 91.4095 66.8092 94.8494 71.7743C96.7049 74.4075 98.7831 76.8765 101.061 79.1543L101.471 79.593V79.0108C101.471 78.8509 101.471 78.6951 101.471 78.5352V78.4204L101.389 78.3384C99.2611 76.1568 97.3166 73.8036 95.5751 71.3028Z" fill="#006F98"/>
<path d="M96.6453 69.4292C93.4924 64.9192 89.8352 60.1919 82.9349 56.424C75.887 52.5741 68.6792 51.5983 62.0946 53.6073C56.4161 55.3375 51.3813 59.2325 47.9168 64.5707C40.3031 76.309 42.2014 89.9415 46.5146 98.7852C51.4346 108.826 60.5612 115.14 67.3754 118.67L67.441 118.703H67.482C67.8305 118.769 68.1913 118.822 68.5562 118.867L70.0445 119.056L68.6669 118.371C61.6559 114.898 52.2669 108.621 47.3059 98.4572C43.0952 89.8472 41.242 76.5386 48.6712 65.0955C54.9729 55.3785 67.8961 49.167 82.5618 57.1825C89.2858 60.8725 92.8528 65.4727 95.9319 69.8925C97.5104 72.1519 99.2189 74.3176 101.049 76.3787L101.524 76.9158L101.504 76.1614C101.504 76.0056 101.504 75.8498 101.504 75.6817V75.5874L101.438 75.5136C99.7311 73.5742 98.1311 71.543 96.6453 69.4292Z" fill="#006F98"/>
<path d="M101.241 72.4101V72.3322L101.192 72.2665C99.8638 70.5691 98.6953 68.9291 97.7236 67.5515C94.2468 62.6315 90.5076 57.8551 83.0456 53.9601C66.99 45.5633 52.7384 52.2995 45.7356 62.7012C37.6217 74.7552 39.6102 89.5317 43.784 98.5189C46.7237 104.89 51.6191 110.503 58.3021 115.177L58.3759 115.23C59.3507 115.814 60.3598 116.338 61.3976 116.801L61.6108 116.342C53.5994 111.422 47.8676 105.329 44.5794 98.2114C40.504 89.4333 38.5565 75.0053 46.4818 63.2342C53.2796 53.1318 67.113 46.5841 82.693 54.7267C89.95 58.5233 93.6113 63.1769 97.0184 68.0108C98.0065 69.4212 99.339 71.2907 100.848 73.189L101.385 73.8737L101.311 73.0537C101.284 72.8351 101.26 72.6205 101.241 72.4101Z" fill="#006F98"/>
<path d="M65.4155 18.1506C64.8517 18.0963 64.2834 18.1073 63.7222 18.1834C67.1153 19.3803 70.568 20.4012 74.0665 21.242C72.3814 20.0161 67.4901 18.3269 65.4155 18.1506Z" fill="#006F98"/>
</svg>
