<svg width="205" height="116" viewBox="0 0 205 116" fill="none" xmlns="http://www.w3.org/2000/svg">
<path d="M97.1699 115.948H18.003C17.3828 115.947 16.7884 115.7 16.3503 115.261C15.9121 114.822 15.666 114.227 15.666 113.607V2.3206C15.6714 1.70397 15.9199 1.11437 16.3575 0.67987C16.795 0.245368 17.3864 0.00105632 18.003 0H97.1699C97.7908 0 98.3863 0.246651 98.8253 0.685692C99.2644 1.12473 99.511 1.7202 99.511 2.3411V113.607C99.511 114.228 99.2644 114.823 98.8253 115.262C98.3863 115.701 97.7908 115.948 97.1699 115.948ZM18.003 0.0820003C17.41 0.0830864 16.8417 0.319417 16.4227 0.739118C16.0038 1.15882 15.7685 1.7276 15.7685 2.3206V113.607C15.7685 114.2 16.0038 114.769 16.4227 115.188C16.8417 115.608 17.41 115.844 18.003 115.845H97.1699C97.7633 115.844 98.3321 115.608 98.7516 115.189C99.1712 114.769 99.4074 114.2 99.4085 113.607V2.3206C99.4074 1.72722 99.1712 1.15845 98.7516 0.738868C98.3321 0.319284 97.7633 0.0830841 97.1699 0.0820003H18.003Z" fill="#E0E0E0"/>
<path d="M185.857 115.948H106.686C106.065 115.947 105.47 115.7 105.032 115.261C104.593 114.822 104.346 114.227 104.345 113.607V2.3206C104.351 1.7036 104.601 1.114 105.039 0.679613C105.477 0.245225 106.069 0.0010448 106.686 0H185.857C186.473 0.00213384 187.063 0.246922 187.5 0.681308C187.936 1.11569 188.184 1.70468 188.19 2.3206V113.607C188.19 114.226 187.944 114.821 187.507 115.259C187.07 115.698 186.476 115.946 185.857 115.948ZM106.686 0.0820003C106.092 0.0830841 105.524 0.319284 105.104 0.738868C104.685 1.15845 104.448 1.72722 104.447 2.3206V113.607C104.448 114.2 104.685 114.769 105.104 115.189C105.524 115.608 106.092 115.844 106.686 115.845H185.857C186.45 115.844 187.019 115.608 187.439 115.189C187.858 114.769 188.094 114.2 188.095 113.607V2.3206C188.094 1.72722 187.858 1.15845 187.439 0.738868C187.019 0.319284 186.45 0.0830841 185.857 0.0820003H106.686Z" fill="#E0E0E0"/>
<path d="M73.1156 94.1401C73.3411 94.1401 73.5666 94.1401 73.7962 94.1606C75.2248 94.2615 76.6134 94.6772 77.8624 95.3779C79.1115 96.0786 80.1901 97.0469 81.0208 98.2135C81.8516 99.3801 82.414 100.716 82.6677 102.126C82.9213 103.535 82.8601 104.983 82.4882 106.366C81.429 110.496 80.9176 114.747 80.9671 119.011V131.426C80.9671 131.86 80.7943 132.278 80.4867 132.585C80.1792 132.893 79.762 133.066 79.3271 133.066H39.9302V94.1401H73.1156Z" fill="#E6E6E6"/>
<path d="M30.2252 103.845C30.2264 102.463 30.5224 101.098 31.0936 99.8405C31.6647 98.5828 32.4977 97.4615 33.537 96.5516C34.5762 95.6417 35.7977 94.9641 37.1198 94.5642C38.4419 94.1642 39.8342 94.0511 41.2035 94.2324C42.5729 94.4137 43.8877 94.8852 45.0602 95.6154C46.2327 96.3456 47.2358 97.3177 48.0025 98.4667C48.7691 99.6157 49.2817 100.915 49.5059 102.278C49.7301 103.641 49.6607 105.036 49.3025 106.37C48.2433 110.5 47.7319 114.751 47.7814 119.015V131.429C47.7814 131.864 47.6086 132.281 47.301 132.589C46.9935 132.897 46.5763 133.069 46.1414 133.069H33.7102C33.2752 133.069 32.8581 132.897 32.5505 132.589C32.2429 132.281 32.0702 131.864 32.0702 131.429V118.285C32.106 114.287 31.6013 110.303 30.5696 106.44C30.338 105.594 30.2221 104.721 30.2252 103.845Z" fill="#F0F0F0"/>
<path d="M53.3041 133.057H103.131V109.429H53.3041V133.057Z" fill="#E6E6E6"/>
<path d="M132.364 114.771L70.565 114.771V88.4741C70.565 86.5255 71.339 84.6567 72.7169 83.2788C74.0948 81.901 75.9636 81.1269 77.9121 81.1269H125.029C126.976 81.1301 128.841 81.9057 130.217 83.2832C131.592 84.6607 132.364 86.5276 132.364 88.4741V114.771Z" fill="#E0E0E0"/>
<path d="M123.115 114.771L61.3195 114.771V88.1215C61.3195 86.2675 62.056 84.4894 63.367 83.1785C64.678 81.8675 66.456 81.131 68.31 81.131H116.124C117.978 81.131 119.756 81.8675 121.067 83.1785C122.378 84.4894 123.115 86.2675 123.115 88.1215V114.771Z" fill="#F0F0F0"/>
<path d="M100.815 116.891H53.7595C53.194 116.891 52.6518 116.666 52.2519 116.267C51.8521 115.867 51.6275 115.325 51.6275 114.759V109.4C51.6275 108.835 51.8521 108.293 52.2519 107.893C52.6518 107.493 53.194 107.268 53.7595 107.268H100.815C100.984 107.268 101.145 107.335 101.265 107.455C101.384 107.574 101.451 107.735 101.451 107.904V116.256C101.451 116.424 101.384 116.586 101.265 116.705C101.145 116.824 100.984 116.891 100.815 116.891Z" fill="#E0E0E0"/>
<path d="M135.849 94.1401C136.075 94.1401 136.304 94.1401 136.534 94.1606C137.963 94.2615 139.351 94.6772 140.6 95.3779C141.849 96.0786 142.928 97.0469 143.759 98.2135C144.589 99.3801 145.152 100.716 145.405 102.126C145.659 103.535 145.598 104.983 145.226 106.366C144.163 110.496 143.651 114.747 143.701 119.011V131.426C143.701 131.86 143.528 132.278 143.22 132.585C142.913 132.893 142.496 133.066 142.061 133.066H102.668V94.1401H135.849Z" fill="#E6E6E6"/>
<path d="M92.9596 103.845C92.9743 101.334 93.9608 98.9273 95.7121 97.1287C97.4634 95.3301 99.8432 94.2797 102.352 94.198C104.861 94.1163 107.305 95.0097 109.169 96.6906C111.034 98.3715 112.175 100.709 112.353 103.213C112.421 104.276 112.315 105.342 112.041 106.37C110.982 110.5 110.47 114.751 110.52 119.015V131.43C110.52 131.864 110.347 132.282 110.04 132.589C109.732 132.897 109.315 133.07 108.88 133.07H96.4446C96.0096 133.07 95.5925 132.897 95.2849 132.589C94.9774 132.282 94.8046 131.864 94.8046 131.43V118.285C94.8411 114.287 94.3349 110.302 93.2999 106.44C93.0697 105.594 92.9552 104.721 92.9596 103.845Z" fill="#F0F0F0"/>
<path d="M169.162 132.561H177.666V88.1129H169.162V132.561Z" fill="#E6E6E6"/>
<path d="M169.162 88.1133H137.337V132.561H169.162V88.1133Z" fill="#F0F0F0"/>
<path d="M167.956 89.5767H138.543V117.858H167.956V89.5767Z" fill="#E6E6E6"/>
<path d="M144.746 89.5767H138.543V117.858H144.746V89.5767Z" fill="#E0E0E0"/>
<path d="M70.2534 67.3345L143.988 67.3345V13.8459L70.2534 13.8459V67.3345Z" fill="#E0E0E0"/>
<path d="M64.9729 67.3345L142.639 67.3345V13.8459L64.9729 13.8459V67.3345Z" fill="#F0F0F0"/>
<path d="M140.995 65.6858V15.4937L66.6252 15.4937V65.6858H140.995Z" fill="#FAFAFA"/>
<path d="M107.033 40.9697C108.191 33.7664 103.29 26.9884 96.0862 25.8308C88.8828 24.6731 82.1049 29.5741 80.9472 36.7775C79.7895 43.9808 84.6906 50.7588 91.8939 51.9164C99.0973 53.0741 105.875 48.1731 107.033 40.9697Z" fill="#E0E0E0"/>
<path d="M72.246 54.1202C73.4473 52.6032 75.8581 51.4347 77.6416 51.5085C77.9047 51.499 78.1671 51.5419 78.4135 51.6348C78.6599 51.7278 78.8853 51.8688 79.0766 52.0497C82.332 50.1637 86.0794 49.0075 89.1749 49.1346C90.7493 49.1961 91.9711 49.5856 92.8157 50.2211C96.313 47.3757 100.77 45.3544 104.005 45.3544C105.841 45.3544 106.981 46.0104 107.387 47.0969C110.975 45.1863 114.661 44.0137 117.637 44.0137C122.377 44.0137 123.914 46.9944 121.975 51.1846C122.754 51.9759 126.485 53.0788 126.337 54.399H72.041C72.1066 54.2965 72.1599 54.2022 72.246 54.1202Z" fill="#F0F0F0"/>
<path d="M90.9381 34.8744C91.1586 34.8655 91.3779 34.9109 91.5766 35.0067C91.7754 35.1025 91.9476 35.2458 92.0779 35.4238C94.8413 33.5091 97.9573 32.3324 100.466 32.4636C101.538 32.4595 102.574 32.8524 103.373 33.5665C106.375 30.6965 110.122 28.6466 112.754 28.6466C114.255 28.6466 115.149 29.3107 115.415 30.4136C118.445 28.4743 121.512 27.2812 123.939 27.2812C126.94 27.2812 128.269 29.1139 127.854 31.9265C129.302 31.1065 130.724 30.6268 131.881 30.6268C133.484 30.6268 134.238 31.5494 134.107 33.0008C134.246 33.0008 134.386 33.0007 134.517 33.0212C136.977 33.2631 137.904 35.1368 136.727 37.2811H86.5757C87.6745 35.8584 89.5646 34.8047 90.9381 34.8744Z" fill="#F0F0F0"/>
<path d="M50.3807 35.3522C51.4843 28.1404 46.5325 21.3994 39.3207 20.2958C32.1088 19.1923 25.3679 24.144 24.2643 31.3559C23.1607 38.5677 28.1125 45.3087 35.3243 46.4122C42.5362 47.5158 49.2771 42.5641 50.3807 35.3522Z" fill="#E0E0E0"/>
<path d="M49.6071 35.4556C50.7648 28.2522 45.8638 21.4743 38.6604 20.3166C31.457 19.1589 24.6791 24.06 23.5214 31.2633C22.3638 38.4667 27.2648 45.2446 34.4681 46.4023C41.6715 47.5599 48.4494 42.6589 49.6071 35.4556Z" fill="#F0F0F0"/>
<path d="M48.1136 33.3494C48.1178 36.083 47.1535 38.7297 45.392 40.8201C43.6304 42.9105 41.1854 44.3094 38.4907 44.7686C35.7959 45.2279 33.0256 44.7178 30.6711 43.3289C28.3166 41.94 26.5301 39.762 25.6285 37.1814C24.727 34.6007 24.7687 31.7841 25.7461 29.2312C26.7236 26.6783 28.5737 24.5541 30.9682 23.2355C33.3628 21.9168 36.147 21.4889 38.827 22.0276C41.507 22.5664 43.9096 24.0369 45.6085 26.1785L45.6413 26.2154C47.2462 28.2466 48.1175 30.7607 48.1136 33.3494Z" fill="#E0E0E0"/>
<path d="M48.1138 33.3493C48.1104 35.6782 47.4034 37.9517 46.0853 39.8717C44.7672 41.7918 42.8996 43.2686 40.7275 44.1087C38.5553 44.9487 36.18 45.1127 33.913 44.5792C31.6461 44.0456 29.5933 42.8394 28.0238 41.1188C26.1725 38.7703 25.3042 35.7952 25.6018 32.8196C25.8993 29.844 27.3394 27.0997 29.619 25.1642C31.8987 23.2288 34.8402 22.2529 37.8247 22.4421C40.8091 22.6312 43.6039 23.9706 45.621 26.1784L45.6538 26.2153C47.2543 28.2481 48.1211 30.762 48.1138 33.3493Z" fill="#FAFAFA"/>
<path d="M36.8139 34.4688C36.6596 34.4672 36.5089 34.4221 36.379 34.3387C36.2492 34.2553 36.1456 34.137 36.08 33.9973L33.1362 27.7161C33.088 27.6183 33.0598 27.5119 33.0533 27.4032C33.0467 27.2944 33.0618 27.1854 33.0979 27.0826C33.1339 26.9797 33.1901 26.8851 33.2631 26.8042C33.3361 26.7233 33.4246 26.6578 33.5232 26.6115C33.6218 26.5651 33.7287 26.5389 33.8376 26.5344C33.9465 26.5299 34.0552 26.5471 34.1573 26.585C34.2595 26.623 34.353 26.6809 34.4326 26.7554C34.5121 26.83 34.5759 26.9196 34.6204 27.0191L37.228 32.5951L40.9959 31.0699C41.1976 30.9883 41.4234 30.9902 41.6237 31.0752C41.824 31.1602 41.9824 31.3212 42.0639 31.5229C42.1455 31.7246 42.1436 31.9505 42.0586 32.1508C41.9736 32.3511 41.8126 32.5094 41.6109 32.591L37.1214 34.4073C37.0238 34.4474 36.9194 34.4683 36.8139 34.4688Z" fill="#E0E0E0"/>
<path d="M152.709 107.195C155.767 107.605 157.661 100.963 150.905 95.3291C151.29 101.852 147.37 106.457 152.709 107.195Z" fill="#F0F0F0"/>
<path d="M154.636 111.397C159.076 108.285 156.038 97.4161 142.303 98.2033C148.244 106.19 146.899 116.821 154.636 111.397Z" fill="#F0F0F0"/>
<path d="M153.069 111.323C150.122 108.146 154.32 100.151 164.931 103.07C158.941 108.334 158.215 116.85 153.069 111.323Z" fill="#F0F0F0"/>
<path d="M148.502 117.859H157.624L158.313 111.795H147.813L148.502 117.859Z" fill="#E0E0E0"/>
<path d="M147.137 112.877H158.994V111.54H147.137V112.877Z" fill="#E0E0E0"/>
<path d="M153.873 45.0055C153.619 45.6492 153.377 46.2109 153.102 46.8013C152.828 47.3917 152.553 47.9575 152.262 48.5274C151.673 49.6836 151.02 50.806 150.306 51.8894C149.561 53.0433 148.698 54.1165 147.731 55.0915C147.182 55.6476 146.568 56.1362 145.903 56.547C145.068 57.0662 144.113 57.36 143.131 57.3998C142.856 57.407 142.582 57.3878 142.311 57.3424C142.074 57.3038 141.84 57.2504 141.61 57.1825C141.219 57.0634 140.838 56.9139 140.47 56.7356C139.84 56.4194 139.233 56.0591 138.654 55.6573C137.591 54.9181 136.577 54.1101 135.62 53.2383C133.761 51.5552 132.026 49.7396 130.429 47.8058L132.02 46.2068C133.902 47.691 135.833 49.1752 137.76 50.5282C138.699 51.1942 139.67 51.8127 140.671 52.3814C141.123 52.6387 141.593 52.862 142.077 53.0497C142.343 53.1829 142.637 53.2491 142.934 53.2424C143.169 53.1729 143.389 53.0602 143.582 52.9103C143.937 52.6478 144.264 52.3497 144.558 52.0206C145.263 51.2126 145.895 50.3426 146.444 49.4212C147.034 48.4618 147.588 47.4491 148.113 46.4159C148.375 45.8993 148.629 45.3745 148.875 44.8497C149.121 44.3249 149.371 43.7714 149.58 43.2876L153.873 45.0055Z" fill="#E4897B"/>
<path d="M132.459 47.195L132.02 44.7637L128.892 46.6825C128.892 46.6825 129.88 48.2159 130.921 48.2405L132.459 47.195Z" fill="#E4897B"/>
<path d="M130.56 43.2998L128.117 44.9603L128.887 46.6823L132.016 44.7635L130.56 43.2998Z" fill="#E4897B"/>
<path d="M155.308 41.8648C156.062 44.6692 151.954 50.3026 151.954 50.3026L146.559 47.2768C146.559 47.2768 147.563 44.9603 148.797 42.6028C150.786 38.7939 154.443 38.6668 155.308 41.8648Z" fill="#006F98"/>
<path opacity="0.6" d="M155.308 41.8648C156.062 44.6692 151.954 50.3026 151.954 50.3026L146.559 47.2768C146.559 47.2768 147.563 44.9603 148.797 42.6028C150.786 38.7939 154.443 38.6668 155.308 41.8648Z" fill="#FAFAFA"/>
<path d="M148.711 48.4782L150.831 49.6672L151.2 43.1646C149.97 44.1117 149.096 46.9653 148.711 48.4782Z" fill="#006F98"/>
<path opacity="0.3" d="M148.711 48.4782L150.831 49.6672L151.2 43.1646C149.97 44.1117 149.096 46.9653 148.711 48.4782Z" fill="#FAFAFA"/>
<path d="M169.068 39.5935C165.923 51.5368 166.792 63.9024 166.53 66.4362H150.019C147.559 49.0768 151.766 39.7534 151.766 39.7534C151.766 39.7534 153.078 39.4008 154.767 39.1261L155.238 39.0564C155.669 38.9949 156.112 38.9375 156.563 38.8965C158.9 38.7611 161.244 38.7611 163.582 38.8965C163.947 38.8965 164.316 38.9416 164.676 38.9703L165.107 39.0113C167.235 39.2204 169.068 39.5935 169.068 39.5935Z" fill="#006F98"/>
<path opacity="0.6" d="M169.068 39.5935C165.923 51.5368 166.792 63.9024 166.53 66.4362H150.019C147.559 49.0768 151.766 39.7534 151.766 39.7534C151.766 39.7534 153.078 39.4008 154.767 39.1261L155.238 39.0564C155.669 38.9949 156.112 38.9375 156.563 38.8965C158.9 38.7611 161.244 38.7611 163.582 38.8965C163.947 38.8965 164.316 38.9416 164.676 38.9703L165.107 39.0113C167.235 39.2204 169.068 39.5935 169.068 39.5935Z" fill="#FAFAFA"/>
<path d="M149.494 61.7376C149.552 62.4783 149.624 63.2382 149.711 64.0172L162.011 60.032C163.929 59.4602 165.595 58.2529 166.735 56.6085C166.78 55.5138 166.841 54.3617 166.936 53.1604C166.977 52.5741 167.03 51.9755 167.083 51.3687C167.136 50.7619 167.21 50.0936 167.284 49.4458L149.494 61.7376Z" fill="#006F98"/>
<path opacity="0.3" d="M149.494 61.7376C149.552 62.4783 149.624 63.2382 149.711 64.0172L162.011 60.032C163.929 59.4602 165.595 58.2529 166.735 56.6085C166.78 55.5138 166.841 54.3617 166.936 53.1604C166.977 52.5741 167.03 51.9755 167.083 51.3687C167.136 50.7619 167.21 50.0936 167.284 49.4458L149.494 61.7376Z" fill="#FAFAFA"/>
<path d="M164.677 38.9702L164.513 39.3228C164.459 39.4417 163.151 42.2133 158.342 42.2133C157.703 42.2133 155.755 42.2133 155.144 40.8521C155.027 40.5642 154.975 40.2541 154.991 39.9437C155.008 39.6334 155.092 39.3304 155.238 39.0563L154.767 39.126C154.64 39.4256 154.574 39.7477 154.574 40.0731C154.574 40.3986 154.64 40.7207 154.767 41.0202C155.484 42.6233 157.637 42.6233 158.338 42.6233C163.406 42.6233 164.824 39.618 164.898 39.4909L165.115 39.0112L164.677 38.9702Z" fill="#FAFAFA"/>
<path d="M163.348 30.9917C162.774 33.2508 162.089 37.3877 163.582 38.8965C163.582 38.8965 162.54 41.1884 158.342 41.1884C154.508 41.1884 156.562 38.8965 156.562 38.8965C159.117 38.2938 159.162 36.4365 158.826 34.6735L163.348 30.9917Z" fill="#E4897B"/>
<path d="M161.503 32.4922L158.826 34.6693C158.911 35.0741 158.959 35.4858 158.969 35.8993C159.752 36.6783 161.323 34.7062 161.487 33.6976C161.564 33.3 161.57 32.8917 161.503 32.4922Z" fill="#CE6F64"/>
<path d="M154 29.8972C154.065 30.2633 154.206 30.6119 154.412 30.921C154.619 31.2301 154.888 31.493 155.201 31.693C156.054 32.2342 156.841 31.5495 156.878 30.5983C156.927 29.7455 156.542 28.4335 155.546 28.2777C155.329 28.2453 155.107 28.2655 154.899 28.3367C154.692 28.4079 154.504 28.5279 154.353 28.6866C154.201 28.8454 154.09 29.0382 154.029 29.2489C153.967 29.4596 153.958 29.6819 154 29.8972Z" fill="#CE6F64"/>
<path d="M156.267 23.9354C154.689 24.5299 153.729 30.5733 155.591 31.6024C157.452 32.6315 159.256 22.812 156.267 23.9354Z" fill="#263238"/>
<path d="M153.602 26.0307C154.767 27.2607 160.703 25.7847 160.929 23.6691C161.154 21.5535 151.4 23.7183 153.602 26.0307Z" fill="#263238"/>
<path d="M163.262 27.3265C163.151 30.4056 163.242 32.2055 161.741 33.8865C161.28 34.4474 160.674 34.8702 159.988 35.1082C159.303 35.3463 158.565 35.3904 157.856 35.2356C157.146 35.0808 156.494 34.7332 155.97 34.231C155.446 33.7289 155.071 33.0918 154.886 32.39C154.164 29.6922 154.476 25.1125 157.42 23.6447C158.037 23.3055 158.734 23.1378 159.439 23.159C160.143 23.1802 160.829 23.3895 161.425 23.7652C162.021 24.1408 162.506 24.6692 162.829 25.2954C163.152 25.9217 163.302 26.6229 163.262 27.3265Z" fill="#E4897B"/>
<path d="M161.405 20.9344C163.582 20.3973 164.057 21.0123 164.156 22.5006C164.254 23.9889 166.239 23.5748 165.57 25.8216C165.259 26.8835 164.459 26.7933 164.947 28.0438C165.505 29.4829 162.196 31.2254 161.417 31.2213C160.134 31.2213 160.417 28.5481 161.462 26.1168C162.245 24.2964 160.294 24.8007 158.055 25.4813C153.012 27.0106 149.671 22.6113 152.799 20.5039C154.455 19.3846 159.01 21.7052 161.405 20.9344Z" fill="#263238"/>
<path d="M164.721 30.5898C164.33 31.2734 163.697 31.7854 162.946 32.0248C161.958 32.3282 161.495 31.459 161.794 30.5201C162.065 29.6714 162.909 28.4947 163.885 28.6054C164.861 28.7161 165.197 29.7411 164.721 30.5898Z" fill="#E4897B"/>
<path d="M150.019 66.4199C150.019 66.4199 147.247 91.2208 147.03 100.634C146.804 110.429 156.423 140.978 156.423 140.978L161.343 138.908C161.343 138.908 155.603 110.999 156.423 101.385C157.276 90.9174 160.871 66.4199 160.871 66.4199H150.019Z" fill="#263238"/>
<path d="M156.903 73.2461C154.697 77.8299 156.185 86.8909 157.382 92.2619C157.838 88.4735 158.375 84.3572 158.887 80.5483C158.838 74.6894 158.383 70.1711 156.903 73.2461Z" fill="#182137"/>
<path d="M155.874 66.4199C155.874 66.4199 157.993 90.0072 159.4 98.8468C160.937 108.527 166.98 140.765 166.98 140.765H172.638C172.638 140.765 169.248 109.306 168.608 99.7242C167.915 89.3225 166.529 66.4199 166.529 66.4199H155.874Z" fill="#263238"/>
<path d="M170.56 137.44C170.547 137.44 170.534 137.435 170.525 137.426C170.516 137.416 170.511 137.404 170.511 137.391C170.478 137.108 167.423 108.691 166.849 100.081C166.226 90.737 164.971 70.0238 164.959 69.8147C164.959 69.8077 164.959 69.8007 164.962 69.794C164.964 69.7873 164.967 69.7811 164.972 69.7758C164.976 69.7705 164.982 69.7661 164.988 69.7629C164.995 69.7597 165.001 69.7578 165.008 69.7573C165.022 69.7573 165.035 69.7623 165.045 69.7715C165.055 69.7806 165.061 69.7931 165.062 69.8065C165.062 70.0156 166.329 90.7165 166.952 100.073C167.526 108.683 170.58 137.079 170.613 137.383C170.614 137.389 170.614 137.396 170.612 137.403C170.611 137.41 170.607 137.416 170.603 137.421C170.599 137.427 170.594 137.431 170.588 137.435C170.582 137.438 170.575 137.44 170.568 137.44H170.56Z" fill="#006F98"/>
<path opacity="0.5" d="M170.56 137.44C170.547 137.44 170.534 137.435 170.525 137.426C170.516 137.416 170.511 137.404 170.511 137.391C170.478 137.108 167.423 108.691 166.849 100.081C166.226 90.737 164.971 70.0238 164.959 69.8147C164.959 69.8077 164.959 69.8007 164.962 69.794C164.964 69.7873 164.967 69.7811 164.972 69.7758C164.976 69.7705 164.982 69.7661 164.988 69.7629C164.995 69.7597 165.001 69.7578 165.008 69.7573C165.022 69.7573 165.035 69.7623 165.045 69.7715C165.055 69.7806 165.061 69.7931 165.062 69.8065C165.062 70.0156 166.329 90.7165 166.952 100.073C167.526 108.683 170.58 137.079 170.613 137.383C170.614 137.389 170.614 137.396 170.612 137.403C170.611 137.41 170.607 137.416 170.603 137.421C170.599 137.427 170.594 137.431 170.588 137.435C170.582 137.438 170.575 137.44 170.568 137.44H170.56Z" fill="black"/>
<path d="M158.67 28.5688C158.67 28.8189 158.551 29.0321 158.387 29.0444C158.223 29.0567 158.088 28.8681 158.084 28.6344C158.079 28.4007 158.202 28.1711 158.366 28.1588C158.53 28.1465 158.67 28.3187 158.67 28.5688Z" fill="#263238"/>
<path d="M155.857 28.8022C155.857 29.0523 155.739 29.2655 155.575 29.2778C155.411 29.2901 155.275 29.1015 155.271 28.8678C155.267 28.6341 155.39 28.4045 155.554 28.3922C155.718 28.3799 155.849 28.5521 155.857 28.8022Z" fill="#263238"/>
<path d="M156.751 28.8516C156.473 29.6424 156.092 30.3936 155.62 31.0861C156.067 31.4592 156.809 31.2091 156.809 31.2091L156.751 28.8516Z" fill="#DE5753"/>
<path d="M157.104 32.2341C157.085 32.2341 157.067 32.2269 157.053 32.2139C157.039 32.201 157.031 32.1832 157.03 32.1644C157.03 32.1444 157.037 32.1252 157.051 32.1107C157.065 32.0962 157.084 32.0875 157.104 32.0865C157.418 32.0636 157.724 31.9703 157.998 31.8135C158.272 31.6566 158.507 31.4403 158.686 31.1804C158.695 31.1641 158.711 31.1521 158.729 31.1471C158.747 31.1421 158.766 31.1445 158.783 31.1537C158.799 31.163 158.811 31.1783 158.816 31.1964C158.821 31.2144 158.818 31.2338 158.809 31.2501C158.619 31.5335 158.366 31.7695 158.071 31.9401C157.775 32.1106 157.444 32.2112 157.104 32.2341Z" fill="#263238"/>
<path d="M159.547 26.9777C159.525 26.9785 159.502 26.9741 159.482 26.9648C159.461 26.9556 159.443 26.9418 159.428 26.9244C159.316 26.7803 159.172 26.6647 159.006 26.587C158.841 26.5094 158.66 26.4718 158.477 26.4775C158.459 26.4797 158.44 26.4782 158.422 26.473C158.404 26.4678 158.387 26.459 158.372 26.4471C158.358 26.4352 158.346 26.4205 158.337 26.4039C158.328 26.3873 158.323 26.3691 158.321 26.3504C158.32 26.311 158.334 26.2727 158.36 26.243C158.386 26.2134 158.422 26.1946 158.461 26.1905C158.691 26.18 158.921 26.2247 159.131 26.321C159.34 26.4173 159.524 26.5623 159.666 26.744C159.678 26.7588 159.687 26.7759 159.692 26.7943C159.697 26.8126 159.698 26.8318 159.695 26.8506C159.693 26.8694 159.686 26.8875 159.676 26.9037C159.666 26.9199 159.653 26.9339 159.637 26.9449C159.612 26.9653 159.58 26.9768 159.547 26.9777Z" fill="#263238"/>
<path d="M154.64 27.3999C154.619 27.3945 154.599 27.3847 154.582 27.3712C154.568 27.3578 154.558 27.3419 154.55 27.3243C154.543 27.3067 154.539 27.2878 154.539 27.2687C154.539 27.2496 154.543 27.2307 154.55 27.2131C154.558 27.1955 154.568 27.1795 154.582 27.1662C154.724 26.9743 154.91 26.8189 155.124 26.7127C155.337 26.6065 155.573 26.5525 155.812 26.5553C155.831 26.5562 155.85 26.5611 155.867 26.5696C155.883 26.5782 155.898 26.5902 155.91 26.6049C155.922 26.6196 155.931 26.6366 155.936 26.6549C155.941 26.6732 155.942 26.6923 155.939 26.7111C155.933 26.7498 155.913 26.785 155.883 26.8099C155.853 26.8349 155.814 26.8478 155.775 26.8464C155.588 26.8506 155.404 26.8975 155.238 26.9835C155.072 27.0695 154.927 27.1922 154.816 27.3425C154.796 27.3692 154.768 27.389 154.737 27.3993C154.705 27.4096 154.671 27.4098 154.64 27.3999Z" fill="#263238"/>
<path d="M170.654 43.6279L166.386 42.4922C166.386 42.4922 162.204 52.7873 160.728 53.4597C158.719 54.374 153.627 57.5597 151.466 59.0644C151.343 59.5728 151.437 60.934 151.712 61.303C155.402 60.6347 162.466 57.9164 163.942 56.5306C167.304 53.3818 170.654 43.6279 170.654 43.6279Z" fill="#E4897B"/>
<path d="M171.765 42.4511C172.893 46.0837 168.485 51.0611 168.485 51.0611L162.397 48.5765C163.115 46.4726 163.946 44.4087 164.886 42.3937C166.759 38.3634 170.626 38.7816 171.765 42.4511Z" fill="#006F98"/>
<path opacity="0.6" d="M171.765 42.4511C172.893 46.0837 168.485 51.0611 168.485 51.0611L162.397 48.5765C163.115 46.4726 163.946 44.4087 164.886 42.3937C166.759 38.3634 170.626 38.7816 171.765 42.4511Z" fill="#FAFAFA"/>
<path d="M118.9 64.14C119.252 63.1384 119.9 62.2674 120.758 61.6428C121.616 61.0181 122.644 60.6693 123.705 60.6427H165.23C165.803 60.6292 166.372 60.7411 166.897 60.9707C167.422 61.2002 167.89 61.5418 168.269 61.9716C168.648 62.4013 168.928 62.9087 169.09 63.4582C169.252 64.0078 169.292 64.5861 169.207 65.1527L159.978 143.598C159.811 144.826 159.212 145.954 158.289 146.78C157.365 147.607 156.178 148.077 154.939 148.108H50.7991C50.2261 148.122 49.6569 148.011 49.1317 147.781C48.6064 147.552 48.1377 147.211 47.7586 146.781C47.3795 146.351 47.0992 145.843 46.9374 145.293C46.7756 144.743 46.7362 144.165 46.8221 143.598L54.6859 76.8213C54.8531 75.5935 55.4519 74.4653 56.3753 73.6389C57.2986 72.8125 58.486 72.3419 59.7248 72.3113H107.695C112.582 72.3113 117.235 68.9247 118.9 64.14Z" fill="#006F98"/>
<path opacity="0.1" d="M118.9 64.14C119.252 63.1384 119.9 62.2674 120.758 61.6428C121.616 61.0181 122.644 60.6693 123.705 60.6427H165.23C165.803 60.6292 166.372 60.7411 166.897 60.9707C167.422 61.2002 167.89 61.5418 168.269 61.9716C168.648 62.4013 168.928 62.9087 169.09 63.4582C169.252 64.0078 169.292 64.5861 169.207 65.1527L159.978 143.598C159.811 144.826 159.212 145.954 158.289 146.78C157.365 147.607 156.178 148.077 154.939 148.108H50.7991C50.2261 148.122 49.6569 148.011 49.1317 147.781C48.6064 147.552 48.1377 147.211 47.7586 146.781C47.3795 146.351 47.0992 145.843 46.9374 145.293C46.7756 144.743 46.7362 144.165 46.8221 143.598L54.6859 76.8213C54.8531 75.5935 55.4519 74.4653 56.3753 73.6389C57.2986 72.8125 58.486 72.3419 59.7248 72.3113H107.695C112.582 72.3113 117.235 68.9247 118.9 64.14Z" fill="#FAFAFA"/>
<path d="M81.7792 29.4103L25.6973 68.519L62.7141 121.601L118.796 82.4924L81.7792 29.4103Z" fill="#006F98"/>
<path opacity="0.8" d="M81.7792 29.4103L25.6973 68.519L62.7141 121.601L118.796 82.4924L81.7792 29.4103Z" fill="#FAFAFA"/>
<path d="M81.6312 30.2355L25.5493 69.3442L62.5661 122.426L118.648 83.3176L81.6312 30.2355Z" fill="#FAFAFA"/>
<path d="M80.489 37.2267L32.4985 70.6929L57.9957 107.256L105.986 73.7896L80.489 37.2267Z" fill="#006F98"/>
<path opacity="0.8" d="M80.489 37.2267L32.4985 70.6929L57.9957 107.256L105.986 73.7896L80.489 37.2267Z" fill="#FAFAFA"/>
<path d="M62.1148 68.6996C63.0428 70.0308 63.555 71.6074 63.5864 73.2299C63.6179 74.8523 63.1673 76.4476 62.2917 77.8138C61.416 79.18 60.1547 80.2557 58.6674 80.9047C57.18 81.5537 55.5336 81.7468 53.9365 81.4595C52.3393 81.1723 50.8634 80.4176 49.6954 79.291C48.5274 78.1645 47.7199 76.7167 47.3752 75.131C47.0304 73.5453 47.1639 71.893 47.7588 70.3832C48.3536 68.8734 49.3831 67.574 50.7168 66.6496C52.501 65.4129 54.7029 64.9342 56.8395 65.3185C58.9762 65.7028 60.8732 66.9187 62.1148 68.6996Z" fill="#006F98"/>
<path opacity="0.1" d="M62.1148 68.6996C63.0428 70.0308 63.555 71.6074 63.5864 73.2299C63.6179 74.8523 63.1673 76.4476 62.2917 77.8138C61.416 79.18 60.1547 80.2557 58.6674 80.9047C57.18 81.5537 55.5336 81.7468 53.9365 81.4595C52.3393 81.1723 50.8634 80.4176 49.6954 79.291C48.5274 78.1645 47.7199 76.7167 47.3752 75.131C47.0304 73.5453 47.1639 71.893 47.7588 70.3832C48.3536 68.8734 49.3831 67.574 50.7168 66.6496C52.501 65.4129 54.7029 64.9342 56.8395 65.3185C58.9762 65.7028 60.8732 66.9187 62.1148 68.6996Z" fill="#FAFAFA"/>
<path d="M92.7254 65.0872C91.4899 63.8564 89.9988 62.9124 88.3579 62.3222C86.7169 61.732 84.9661 61.5099 83.2298 61.6719C83.1765 61.5981 83.1355 61.5161 83.0822 61.4382C81.494 59.1325 79.1431 57.4613 76.4437 56.7187C73.7442 55.9762 70.8694 56.2101 68.3254 57.3792C65.7815 58.5483 63.7317 60.5775 62.5371 63.1096C61.3425 65.6416 61.0797 68.514 61.795 71.2208C61.4366 71.3896 61.0925 71.5871 60.7659 71.8112C59.5968 72.624 58.6984 73.7688 58.1868 75.0975C57.6751 76.4263 57.5738 77.878 57.8959 79.265C56.331 79.8784 54.9975 80.9667 54.0829 82.3769C53.143 83.7788 52.6334 85.4249 52.6166 87.1126C52.5999 88.8004 53.0767 90.4562 53.9886 91.8766C54.6167 92.82 55.4269 93.6285 56.3717 94.2546C57.3165 94.8807 58.3768 95.3118 59.4904 95.5226C60.604 95.7334 61.7485 95.7196 62.8568 95.4822C63.965 95.2447 65.0147 94.7883 65.9442 94.1398L79.7407 84.5171L92.381 75.7021C93.7864 74.7421 94.7573 73.2672 95.0834 71.5967C95.4095 69.9262 95.0646 68.1945 94.1235 66.7764L94.0866 66.719C93.6831 66.135 93.2275 65.5888 92.7254 65.0872Z" fill="#006F98"/>
<path opacity="0.3" d="M92.7254 65.0872C91.4899 63.8564 89.9988 62.9124 88.3579 62.3222C86.7169 61.732 84.9661 61.5099 83.2298 61.6719C83.1765 61.5981 83.1355 61.5161 83.0822 61.4382C81.494 59.1325 79.1431 57.4613 76.4437 56.7187C73.7442 55.9762 70.8694 56.2101 68.3254 57.3792C65.7815 58.5483 63.7317 60.5775 62.5371 63.1096C61.3425 65.6416 61.0797 68.514 61.795 71.2208C61.4366 71.3896 61.0925 71.5871 60.7659 71.8112C59.5968 72.624 58.6984 73.7688 58.1868 75.0975C57.6751 76.4263 57.5738 77.878 57.8959 79.265C56.331 79.8784 54.9975 80.9667 54.0829 82.3769C53.143 83.7788 52.6334 85.4249 52.6166 87.1126C52.5999 88.8004 53.0767 90.4562 53.9886 91.8766C54.6167 92.82 55.4269 93.6285 56.3717 94.2546C57.3165 94.8807 58.3768 95.3118 59.4904 95.5226C60.604 95.7334 61.7485 95.7196 62.8568 95.4822C63.965 95.2447 65.0147 94.7883 65.9442 94.1398L79.7407 84.5171L92.381 75.7021C93.7864 74.7421 94.7573 73.2672 95.0834 71.5967C95.4095 69.9262 95.0646 68.1945 94.1235 66.7764L94.0866 66.719C93.6831 66.135 93.2275 65.5888 92.7254 65.0872Z" fill="black"/>
<g style="mix-blend-mode:multiply">
<path d="M83.5508 38.7631L26.0864 75.8105L61.1522 130.201L118.617 93.1537L83.5508 38.7631Z" fill="#006F98"/>
</g>
<path opacity="0.8" d="M83.5508 38.7631L26.0864 75.8105L61.1522 130.201L118.617 93.1537L83.5508 38.7631Z" fill="#FAFAFA"/>
<path d="M83.3775 39.5883L25.9131 76.6357L60.9789 131.026L118.443 93.9789L83.3775 39.5883Z" fill="#FAFAFA"/>
<path d="M81.984 46.5345L32.8105 78.2368L56.9638 115.701L106.137 83.9987L81.984 46.5345Z" fill="#006F98"/>
<path opacity="0.8" d="M81.984 46.5345L32.8105 78.2368L56.9638 115.701L106.137 83.9987L81.984 46.5345Z" fill="#FAFAFA"/>
<path d="M63.5923 83.468C64.5366 79.0481 61.7191 74.6995 57.2991 73.7552C52.8792 72.8108 48.5306 75.6284 47.5863 80.0483C46.642 84.4682 49.4595 88.8168 53.8794 89.7611C58.2994 90.7054 62.648 87.8879 63.5923 83.468Z" fill="#006F98"/>
<path opacity="0.1" d="M63.5923 83.468C64.5366 79.0481 61.7191 74.6995 57.2991 73.7552C52.8792 72.8108 48.5306 75.6284 47.5863 80.0483C46.642 84.4682 49.4595 88.8168 53.8794 89.7611C58.2994 90.7054 62.648 87.8879 63.5923 83.468Z" fill="#FAFAFA"/>
<path d="M93.1929 74.833C92.0024 73.5569 90.5454 72.5585 88.9256 71.9087C87.3058 71.2589 85.5628 70.9737 83.8203 71.0733C83.7711 70.9913 83.7342 70.9093 83.6809 70.8314C82.1764 68.4693 79.8862 66.714 77.2142 65.8751C74.5422 65.0362 71.6598 65.1674 69.075 66.2456C66.4902 67.3238 64.369 69.2798 63.0852 71.7689C61.8014 74.2579 61.4375 77.1203 62.0575 79.8514C61.6913 80.0042 61.3388 80.188 61.0038 80.4008C59.8086 81.1715 58.8715 82.2824 58.3133 83.5904C57.755 84.8984 57.6011 86.3436 57.8714 87.7398C56.2843 88.2928 54.9115 89.3313 53.9477 90.7082C52.9572 92.0745 52.388 93.7006 52.31 95.3863C52.2321 97.0721 52.6489 98.7438 53.509 100.196C54.101 101.163 54.8802 102.002 55.8009 102.664C56.7217 103.325 57.7653 103.796 58.8706 104.049C59.976 104.302 61.1207 104.332 62.2375 104.136C63.3544 103.94 64.4209 103.523 65.3744 102.91L79.5399 93.775L92.4959 85.4233C93.9318 84.5118 94.9515 83.0722 95.3351 81.4153C95.7186 79.7584 95.4352 78.0171 94.5459 76.5673L94.5049 76.5099C94.1205 75.9115 93.6813 75.3502 93.1929 74.833Z" fill="#006F98"/>
<path opacity="0.3" d="M93.1929 74.833C92.0024 73.5569 90.5454 72.5585 88.9256 71.9087C87.3058 71.2589 85.5628 70.9737 83.8203 71.0733C83.7711 70.9913 83.7342 70.9093 83.6809 70.8314C82.1764 68.4693 79.8862 66.714 77.2142 65.8751C74.5422 65.0362 71.6598 65.1674 69.075 66.2456C66.4902 67.3238 64.369 69.2798 63.0852 71.7689C61.8014 74.2579 61.4375 77.1203 62.0575 79.8514C61.6913 80.0042 61.3388 80.188 61.0038 80.4008C59.8086 81.1715 58.8715 82.2824 58.3133 83.5904C57.755 84.8984 57.6011 86.3436 57.8714 87.7398C56.2843 88.2928 54.9115 89.3313 53.9477 90.7082C52.9572 92.0745 52.388 93.7006 52.31 95.3863C52.2321 97.0721 52.6489 98.7438 53.509 100.196C54.101 101.163 54.8802 102.002 55.8009 102.664C56.7217 103.325 57.7653 103.796 58.8706 104.049C59.976 104.302 61.1207 104.332 62.2375 104.136C63.3544 103.94 64.4209 103.523 65.3744 102.91L79.5399 93.775L92.4959 85.4233C93.9318 84.5118 94.9515 83.0722 95.3351 81.4153C95.7186 79.7584 95.4352 78.0171 94.5459 76.5673L94.5049 76.5099C94.1205 75.9115 93.6813 75.3502 93.1929 74.833Z" fill="black"/>
<g style="mix-blend-mode:multiply">
<path d="M134.932 45.5467L66.9683 53.002L74.0247 117.33L141.989 109.875L134.932 45.5467Z" fill="#006F98"/>
</g>
<path opacity="0.8" d="M134.932 45.5467L66.9683 53.002L74.0247 117.33L141.989 109.875L134.932 45.5467Z" fill="#FAFAFA"/>
<path d="M134.404 46.2025L66.4399 53.6577L73.4964 117.986L141.46 110.531L134.404 46.2025Z" fill="#FAFAFA"/>
<path d="M130.054 51.7918L71.8955 58.1714L76.756 102.481L134.914 96.1012L130.054 51.7918Z" fill="#006F98"/>
<path opacity="0.8" d="M130.054 51.7918L71.8955 58.1714L76.756 102.481L134.914 96.1012L130.054 51.7918Z" fill="#FAFAFA"/>
<path d="M134.742 94.4801L134.919 96.0996L104.71 99.4165L111.922 90.8639L119.306 82.0981L134.742 94.4801Z" fill="#006F98"/>
<path opacity="0.3" d="M134.742 94.4801L134.919 96.0996L104.71 99.4165L111.922 90.8639L119.306 82.0981L134.742 94.4801Z" fill="black"/>
<path d="M121.84 97.5346L76.7642 102.479L76.3706 98.9163L94.0621 78.855L111.922 90.8639L121.84 97.5346Z" fill="#006F98"/>
<path opacity="0.3" d="M121.84 97.5346L76.7642 102.479L76.3706 98.9163L94.0621 78.855L111.922 90.8639L121.84 97.5346Z" fill="black"/>
<path d="M116.299 68.2534C116.459 64.4322 113.49 61.2052 109.669 61.0458C105.848 60.8863 102.621 63.8547 102.462 67.6758C102.302 71.497 105.271 74.724 109.092 74.8835C112.913 75.043 116.14 72.0746 116.299 68.2534Z" fill="#006F98"/>
<path opacity="0.1" d="M116.299 68.2534C116.459 64.4322 113.49 61.2052 109.669 61.0458C105.848 60.8863 102.621 63.8547 102.462 67.6758C102.302 71.497 105.271 74.724 109.092 74.8835C112.913 75.043 116.14 72.0746 116.299 68.2534Z" fill="#FAFAFA"/>
<g style="mix-blend-mode:multiply" opacity="0.7">
<path d="M101.209 80.5156C101.487 78.7526 103.172 77.498 105.276 77.498H146.813C149.302 77.498 151.507 79.2405 151.733 81.3889L157.301 144.217C157.534 146.366 155.702 148.108 153.201 148.108H49.0607C46.5679 148.108 44.3621 146.366 44.1407 144.217L39.6676 91.4544C39.4339 89.306 41.2625 87.5676 43.7676 87.5676H91.7376C96.6166 87.5676 100.557 84.6443 101.209 80.5156Z" fill="#006F98"/>
</g>
<path d="M151.811 58.8228L148.531 59.9462L146.448 61.414L150.187 62.8654C150.187 62.8654 153.68 62.4964 154.521 60.6022L151.811 58.8228Z" fill="#E4897B"/>
</svg>
